<svg version="1.1" xmlns="http://www.w3.org/2000/svg" width="764" height="353"><defs><clipPath id="VewEemrzIxcs"><path fill="none" stroke="none" d="M 62.5 29.5 L 362.5 29.5 L 362.5 329.5 L 62.5 329.5 L 62.5 29.5 Z"/></clipPath><clipPath id="TZFwcEopnHsR"><path fill="none" stroke="none" d="M 62.5 29.5 L 362.5 29.5 L 362.5 329.5 L 62.5 329.5 L 62.5 29.5 Z"/></clipPath><clipPath id="NsHIizfysvSb"><path fill="none" stroke="none" d="M 62.5 29.5 L 362.5 29.5 L 362.5 329.5 L 62.5 329.5 L 62.5 29.5 Z"/></clipPath><clipPath id="itKpkLTUFlTK"><path fill="none" stroke="none" d="M 62.5 29.5 L 362.5 29.5 L 362.5 329.5 L 62.5 329.5 L 62.5 29.5 Z"/></clipPath><clipPath id="ZtlxoFWnvDeF"><path fill="none" stroke="none" d="M 62.5 29.5 L 362.5 29.5 L 362.5 329.5 L 62.5 329.5 L 62.5 29.5 Z"/></clipPath><clipPath id="BVQZCBEvHCnx"><path fill="none" stroke="none" d="M 62.5 29.5 L 362.5 29.5 L 362.5 329.5 L 62.5 329.5 L 62.5 29.5 Z"/></clipPath><clipPath id="RTPCncnNwTkU"><path fill="none" stroke="none" d="M 62.5 29.5 L 362.5 29.5 L 362.5 329.5 L 62.5 329.5 L 62.5 29.5 Z"/></clipPath><clipPath id="WWmTmzLByUUm"><path fill="none" stroke="none" d="M 62.5 29.5 L 362.5 29.5 L 362.5 329.5 L 62.5 329.5 L 62.5 29.5 Z"/></clipPath><clipPath id="beGTNrzpsLnZ"><path fill="none" stroke="none" d="M 62.5 29.5 L 362.5 29.5 L 362.5 329.5 L 62.5 329.5 L 62.5 29.5 Z"/></clipPath><clipPath id="PKamKgKqUbGR"><path fill="none" stroke="none" d="M 62.5 29.5 L 362.5 29.5 L 362.5 329.5 L 62.5 329.5 L 62.5 29.5 Z"/></clipPath><clipPath id="ZZEzvGlHmEhb"><path fill="none" stroke="none" d="M 62.5 29.5 L 362.5 29.5 L 362.5 329.5 L 62.5 329.5 L 62.5 29.5 Z"/></clipPath><clipPath id="mffRTpNZSBOx"><path fill="none" stroke="none" d="M 62.5 29.5 L 362.5 29.5 L 362.5 329.5 L 62.5 329.5 L 62.5 29.5 Z"/></clipPath><clipPath id="BAEFHzXGHuUG"><path fill="none" stroke="none" d="M 62.5 29.5 L 362.5 29.5 L 362.5 329.5 L 62.5 329.5 L 62.5 29.5 Z"/></clipPath><clipPath id="ccWUdqTvpxSa"><path fill="none" stroke="none" d="M 62.5 29.5 L 362.5 29.5 L 362.5 329.5 L 62.5 329.5 L 62.5 29.5 Z"/></clipPath><clipPath id="JfChdPkLaKaf"><path fill="none" stroke="none" d="M 62.5 29.5 L 362.5 29.5 L 362.5 329.5 L 62.5 329.5 L 62.5 29.5 Z"/></clipPath><clipPath id="QTpnnLiiHdes"><path fill="none" stroke="none" d="M 62.5 29.5 L 362.5 29.5 L 362.5 329.5 L 62.5 329.5 L 62.5 29.5 Z"/></clipPath><clipPath id="gcdxXQfSdfTA"><path fill="none" stroke="none" d="M 62.5 29.5 L 362.5 29.5 L 362.5 329.5 L 62.5 329.5 L 62.5 29.5 Z"/></clipPath><clipPath id="GVvIDIauRwDG"><path fill="none" stroke="none" d="M 62.5 29.5 L 362.5 29.5 L 362.5 329.5 L 62.5 329.5 L 62.5 29.5 Z"/></clipPath><clipPath id="belNyiVxXHGd"><path fill="none" stroke="none" d="M 62.5 29.5 L 362.5 29.5 L 362.5 329.5 L 62.5 329.5 L 62.5 29.5 Z"/></clipPath><clipPath id="JhVRnUTwBOnX"><path fill="none" stroke="none" d="M 62.5 29.5 L 362.5 29.5 L 362.5 329.5 L 62.5 329.5 L 62.5 29.5 Z"/></clipPath></defs><path fill="rgb(0,0,0)" stroke="none" paint-order="stroke" d="M 0 0 L 764 0 L 764 353 L 0 353 L 0 0 Z" fill-opacity="0"/><path fill="none" stroke="rgb(229,229,229)" paint-order="fill" d="M 62.5 29.5 L 362.5 29.5 L 362.5 329.5 L 62.5 329.5 L 62.5 29.5 Z" stroke-opacity="1" stroke-linejoin="bevel" stroke-miterlimit="10"/><path fill="rgb(229,174,56)" stroke="rgb(0,0,0)" paint-order="fill" d="M 62.5 314.5472412109375 L 66.78571319580078 313.48590087890625 L 71.07142639160156 312.5279541015625 L 75.35713958740234 311.6595764160156 L 79.64286041259766 310.8677673339844 L 83.92857360839844 310.1405944824219 L 88.21428680419922 309.4671936035156 L 92.5 308.83782958984375 L 96.78571319580078 308.2438659667969 L 101.07142639160156 307.6778564453125 L 105.35713958740234 307.13330078125 L 109.64286041259766 306.6046142578125 L 113.92857360839844 306.087158203125 L 118.21428680419922 305.5769958496094 L 122.5 305.0708923339844 L 126.78571319580078 304.56622314453125 L 131.07142639160156 304.0609436035156 L 135.35714721679688 303.5533752441406 L 139.64285278320312 303.04229736328125 L 143.92857360839844 302.5268249511719 L 148.2142791748047 302.0063171386719 L 152.5 301.4804382324219 L 156.7857208251953 300.9489440917969 L 161.07142639160156 300.411865234375 L 165.35714721679688 299.8692932128906 L 169.64285278320312 299.3213806152344 L 173.92857360839844 298.7684326171875 L 178.2142791748047 298.210693359375 L 182.5 297.6485595703125 L 186.7857208251953 297.082275390625 L 191.07142639160156 296.51220703125 L 195.35714721679688 295.9385986328125 L 199.64285278320312 295.3616638183594 L 203.92857360839844 294.7816467285156 L 208.2142791748047 294.1986083984375 L 212.5 293.6126708984375 L 216.7857208251953 293.02374267578125 L 221.07142639160156 292.43182373046875 L 225.35714721679688 291.8367004394531 L 229.64285278320312 291.2381286621094 L 233.92857360839844 290.6358337402344 L 238.2142791748047 290.0294189453125 L 242.5 289.4184875488281 L 246.7857208251953 288.8024597167969 L 251.07142639160156 288.18084716796875 L 255.35714721679688 287.55303955078125 L 259.6428527832031 286.9184265136719 L 263.9285583496094 286.2763671875 L 268.21429443359375 285.6261901855469 L 272.5 284.9673156738281 L 276.78570556640625 284.299072265625 L 281.0714416503906 283.6209411621094 L 285.3571472167969 282.9324035644531 L 289.6428527832031 282.2330017089844 L 293.9285583496094 281.52239990234375 L 298.21429443359375 280.8004455566406 L 302.5 280.0670166015625 L 306.78570556640625 279.322265625 L 311.0714416503906 278.56646728515625 L 315.3571472167969 277.8002014160156 L 319.6428527832031 277.02423095703125 L 323.9285583496094 276.2396545410156 L 328.21429443359375 275.4478759765625 L 332.5 274.6506652832031 L 336.78570556640625 273.85015869140625 L 341.0714416503906 273.0489501953125 L 345.3571472167969 272.2500915527344 L 349.6428527832031 271.4571228027344 L 353.9285583496094 270.6741027832031 L 358.21429443359375 269.9056701660156 L 362.5 269.156982421875 L 362.5 300.8678894042969 L 358.21429443359375 300.6444396972656 L 353.9285583496094 300.4400634765625 L 349.6428527832031 300.2523193359375 L 345.3571472167969 300.0791320800781 L 341.0714416503906 299.9185485839844 L 336.78570556640625 299.7690124511719 L 332.5 299.62908935546875 L 328.21429443359375 299.4976806640625 L 323.9285583496094 299.373779296875 L 319.6428527832031 299.2567443847656 L 315.3571472167969 299.1460266113281 L 311.0714416503906 299.041259765625 L 306.78570556640625 298.94232177734375 L 302.5 298.8491516113281 L 298.21429443359375 298.76190185546875 L 293.9285583496094 298.6808166503906 L 289.6428527832031 298.6062927246094 L 285.3571472167969 298.5387878417969 L 281.0714416503906 298.4788818359375 L 276.78570556640625 298.42718505859375 L 272.5 298.3843994140625 L 268.21429443359375 298.35125732421875 L 263.9285583496094 298.3285217285156 L 259.6428527832031 298.3169860839844 L 255.35714721679688 298.3174133300781 L 251.07142639160156 298.33062744140625 L 246.7857208251953 298.3572998046875 L 242.5 298.398193359375 L 238.2142791748047 298.4539489746094 L 233.92857360839844 298.5251770019531 L 229.64285278320312 298.61236572265625 L 225.35714721679688 298.7159729003906 L 221.07142639160156 298.83636474609375 L 216.7857208251953 298.9737548828125 L 212.5 299.1283264160156 L 208.2142791748047 299.3000793457031 L 203.92857360839844 299.4889831542969 L 199.64285278320312 299.69482421875 L 195.35714721679688 299.91729736328125 L 191.07142639160156 300.156005859375 L 186.7857208251953 300.41046142578125 L 182.5 300.6800842285156 L 178.2142791748047 300.9642028808594 L 173.92857360839844 301.2620849609375 L 169.64285278320312 301.5729675292969 L 165.35714721679688 301.8960266113281 L 161.07142639160156 302.2304992675781 L 156.7857208251953 302.5755920410156 L 152.5 302.93060302734375 L 148.2142791748047 303.294921875 L 143.92857360839844 303.6680908203125 L 139.64285278320312 304.0497131347656 L 135.35714721679688 304.4397888183594 L 131.07142639160156 304.83843994140625 L 126.78571319580078 305.2462158203125 L 122.5 305.6639709472656 L 118.21428680419922 306.0931091308594 L 113.92857360839844 306.5355529785156 L 109.64286041259766 306.9937744140625 L 105.35713958740234 307.4710388183594 L 101.07142639160156 307.9713439941406 L 96.78571319580078 308.4996032714844 L 92.5 309.06170654296875 L 88.21428680419922 309.6645812988281 L 83.92857360839844 310.3162841796875 L 79.64286041259766 311.02606201171875 L 75.35713958740234 311.80438232421875 L 71.07142639160156 312.6628112792969 L 66.78571319580078 313.614013671875 L 62.5 314.6716003417969 Z" fill-opacity="0.6" clip-path="url(#NsHIizfysvSb)" stroke-opacity="0.6" stroke-linejoin="bevel" stroke-miterlimit="10"/><path fill="rgb(229,174,56)" stroke="rgb(0,0,0)" paint-order="fill" d="M 62.5 237.9334716796875 L 66.78571319580078 236.9764404296875 L 71.07142639160156 235.93174743652344 L 75.35713958740234 234.8125 L 79.64286041259766 233.6309051513672 L 83.92857360839844 232.39804077148438 L 88.21428680419922 231.12387084960938 L 92.5 229.81715393066406 L 96.78571319580078 228.4854736328125 L 101.07142639160156 227.13526916503906 L 105.35713958740234 225.77195739746094 L 109.64286041259766 224.3999481201172 L 113.92857360839844 223.02276611328125 L 118.21428680419922 221.64317321777344 L 122.5 220.26318359375 L 126.78571319580078 218.8842315673828 L 131.07142639160156 217.50718688964844 L 135.35714721679688 216.1324920654297 L 139.64285278320312 214.7601318359375 L 143.92857360839844 213.3898468017578 L 148.2142791748047 212.02101135253906 L 152.5 210.6528778076172 L 156.7857208251953 209.28443908691406 L 161.07142639160156 207.9145965576172 L 165.35714721679688 206.54217529296875 L 169.64285278320312 205.1658935546875 L 173.92857360839844 203.78448486328125 L 178.2142791748047 202.3966827392578 L 182.5 201.00119018554688 L 186.7857208251953 199.59683227539062 L 191.07142639160156 198.1824493408203 L 195.35714721679688 196.75694274902344 L 199.64285278320312 195.31936645507812 L 203.92857360839844 193.86880493164062 L 208.2142791748047 192.40447998046875 L 212.5 190.9257354736328 L 216.7857208251953 189.4320068359375 L 221.07142639160156 187.92283630371094 L 225.35714721679688 186.3979034423828 L 229.64285278320312 184.85694885253906 L 233.92857360839844 183.29983520507812 L 238.2142791748047 181.72653198242188 L 242.5 180.13706970214844 L 246.7857208251953 178.5315704345703 L 251.07142639160156 176.91018676757812 L 255.35714721679688 175.2731475830078 L 259.6428527832031 173.62071228027344 L 263.9285583496094 171.95318603515625 L 268.21429443359375 170.27084350585938 L 272.5 168.57398986816406 L 276.78570556640625 166.86289978027344 L 281.0714416503906 165.13784790039062 L 285.3571472167969 163.3990020751953 L 289.6428527832031 161.64654541015625 L 293.9285583496094 159.8805389404297 L 298.21429443359375 158.10096740722656 L 302.5 156.30772399902344 L 306.78570556640625 154.50057983398438 L 311.0714416503906 152.67916870117188 L 315.3571472167969 150.843017578125 L 319.6428527832031 148.991455078125 L 323.9285583496094 147.1236572265625 L 328.21429443359375 145.23861694335938 L 332.5 143.33511352539062 L 336.78570556640625 141.41175842285156 L 341.0714416503906 139.46688842773438 L 345.3571472167969 137.4986572265625 L 349.6428527832031 135.50494384765625 L 353.9285583496094 133.4833984375 L 358.21429443359375 131.43138122558594 L 362.5 129.34600830078125 L 362.5 161.05690002441406 L 358.21429443359375 162.17015075683594 L 353.9285583496094 163.2493438720703 L 349.6428527832031 164.30015563964844 L 345.3571472167969 165.3276824951172 L 341.0714416503906 166.3365020751953 L 336.78570556640625 167.3306121826172 L 332.5 168.31356811523438 L 328.21429443359375 169.2884063720703 L 323.9285583496094 170.25779724121094 L 319.6428527832031 171.22398376464844 L 315.3571472167969 172.1888427734375 L 311.0714416503906 173.15396118164062 L 306.78570556640625 174.12062072753906 L 302.5 175.08984375 L 298.21429443359375 176.0624237060547 L 293.9285583496094 177.0389404296875 L 289.6428527832031 178.0198516845703 L 285.3571472167969 179.00540161132812 L 281.0714416503906 179.9957733154297 L 276.78570556640625 180.99099731445312 L 272.5 181.99107360839844 L 268.21429443359375 182.9958953857422 L 263.9285583496094 184.00534057617188 L 259.6428527832031 185.01927185058594 L 255.35714721679688 186.0375213623047 L 251.07142639160156 187.05995178222656 L 246.7857208251953 188.08641052246094 L 242.5 189.11679077148438 L 238.2142791748047 190.1510467529297 L 233.92857360839844 191.1891632080078 L 229.64285278320312 192.23117065429688 L 225.35714721679688 193.2771759033203 L 221.07142639160156 194.32737731933594 L 216.7857208251953 195.38201904296875 L 212.5 196.44140625 L 208.2142791748047 197.50596618652344 L 203.92857360839844 198.57614135742188 L 199.64285278320312 199.6525115966797 L 195.35714721679688 200.73565673828125 L 191.07142639160156 201.8262481689453 L 186.7857208251953 202.92501831054688 L 182.5 204.03274536132812 L 178.2142791748047 205.15017700195312 L 173.92857360839844 206.2781524658203 L 169.64285278320312 207.41748046875 L 165.35714721679688 208.56890869140625 L 161.07142639160156 209.73321533203125 L 156.7857208251953 210.91107177734375 L 152.5 212.10305786132812 L 148.2142791748047 213.3096160888672 L 143.92857360839844 214.5310821533203 L 139.64285278320312 215.76754760742188 L 135.35714721679688 217.01889038085938 L 131.07142639160156 218.28469848632812 L 126.78571319580078 219.564208984375 L 122.5 220.8562774658203 L 118.21428680419922 222.15931701660156 L 113.92857360839844 223.47116088867188 L 109.64286041259766 224.7891082763672 L 105.35713958740234 226.1096954345703 L 101.07142639160156 227.4287567138672 L 96.78571319580078 228.74119567871094 L 92.5 230.04103088378906 L 88.21428680419922 231.3212432861328 L 83.92857360839844 232.57369995117188 L 79.64286041259766 233.7891845703125 L 75.35713958740234 234.9573211669922 L 71.07142639160156 236.0666046142578 L 66.78571319580078 237.10455322265625 L 62.5 238.05783081054688 Z" fill-opacity="0.6" clip-path="url(#itKpkLTUFlTK)" stroke-opacity="0.6" stroke-linejoin="bevel" stroke-miterlimit="10"/><path fill="rgb(252,79,48)" stroke="rgb(0,0,0)" paint-order="fill" d="M 62.5 307.02935791015625 L 66.78571319580078 306.02203369140625 L 71.07142639160156 305.0240783691406 L 75.35713958740234 304.0352478027344 L 79.64286041259766 303.0552978515625 L 83.92857360839844 302.083984375 L 88.21428680419922 301.12103271484375 L 92.5 300.1662292480469 L 96.78571319580078 299.2193603515625 L 101.07142639160156 298.2801208496094 L 105.35713958740234 297.3482971191406 L 109.64286041259766 296.4236755371094 L 113.92857360839844 295.5059814453125 L 118.21428680419922 294.594970703125 L 122.5 293.6903991699219 L 126.78571319580078 292.7920227050781 L 131.07142639160156 291.8996276855469 L 135.35714721679688 291.012939453125 L 139.64285278320312 290.1317443847656 L 143.92857360839844 289.2557678222656 L 148.2142791748047 288.3847961425781 L 152.5 287.5185546875 L 156.7857208251953 286.6568298339844 L 161.07142639160156 285.7993469238281 L 165.35714721679688 284.9459228515625 L 169.64285278320312 284.09625244140625 L 173.92857360839844 283.2500915527344 L 178.2142791748047 282.4072570800781 L 182.5 281.5674743652344 L 186.7857208251953 280.73046875 L 191.07142639160156 279.8960266113281 L 195.35714721679688 279.0639343261719 L 199.64285278320312 278.23388671875 L 203.92857360839844 277.40570068359375 L 208.2142791748047 276.5791015625 L 212.5 275.75384521484375 L 216.7857208251953 274.9296875 L 221.07142639160156 274.1064147949219 L 225.35714721679688 273.28375244140625 L 229.64285278320312 272.4614562988281 L 233.92857360839844 271.6393127441406 L 238.2142791748047 270.8170471191406 L 242.5 269.99444580078125 L 246.7857208251953 269.1712341308594 L 251.07142639160156 268.3471984863281 L 255.35714721679688 267.5220947265625 L 259.6428527832031 266.6956481933594 L 263.9285583496094 265.86767578125 L 268.21429443359375 265.037841796875 L 272.5 264.20599365234375 L 276.78570556640625 263.3718566894531 L 281.0714416503906 262.5351867675781 L 285.3571472167969 261.6957092285156 L 289.6428527832031 260.8532409667969 L 293.9285583496094 260.00750732421875 L 298.21429443359375 259.1582336425781 L 302.5 258.30523681640625 L 306.78570556640625 257.4482727050781 L 311.0714416503906 256.5870361328125 L 315.3571472167969 255.72134399414062 L 319.6428527832031 254.85092163085938 L 323.9285583496094 253.9755401611328 L 328.21429443359375 253.09495544433594 L 332.5 252.20892333984375 L 336.78570556640625 251.31719970703125 L 341.0714416503906 250.41954040527344 L 345.3571472167969 249.5157012939453 L 349.6428527832031 248.60545349121094 L 353.9285583496094 247.68853759765625 L 358.21429443359375 246.7647247314453 L 362.5 245.83375549316406 L 362.5 269.156982421875 L 358.21429443359375 269.9056701660156 L 353.9285583496094 270.6741027832031 L 349.6428527832031 271.4571228027344 L 345.3571472167969 272.2500915527344 L 341.0714416503906 273.0489501953125 L 336.78570556640625 273.85015869140625 L 332.5 274.6506652832031 L 328.21429443359375 275.4478759765625 L 323.9285583496094 276.2396545410156 L 319.6428527832031 277.02423095703125 L 315.3571472167969 277.8002014160156 L 311.0714416503906 278.56646728515625 L 306.78570556640625 279.322265625 L 302.5 280.0670166015625 L 298.21429443359375 280.8004455566406 L 293.9285583496094 281.52239990234375 L 289.6428527832031 282.2330017089844 L 285.3571472167969 282.9324035644531 L 281.0714416503906 283.6209411621094 L 276.78570556640625 284.299072265625 L 272.5 284.9673156738281 L 268.21429443359375 285.6261901855469 L 263.9285583496094 286.2763671875 L 259.6428527832031 286.9184265136719 L 255.35714721679688 287.55303955078125 L 251.07142639160156 288.18084716796875 L 246.7857208251953 288.8024597167969 L 242.5 289.4184875488281 L 238.2142791748047 290.0294189453125 L 233.92857360839844 290.6358337402344 L 229.64285278320312 291.2381286621094 L 225.35714721679688 291.8367004394531 L 221.07142639160156 292.43182373046875 L 216.7857208251953 293.02374267578125 L 212.5 293.6126708984375 L 208.2142791748047 294.1986083984375 L 203.92857360839844 294.7816467285156 L 199.64285278320312 295.3616638183594 L 195.35714721679688 295.9385986328125 L 191.07142639160156 296.51220703125 L 186.7857208251953 297.082275390625 L 182.5 297.6485595703125 L 178.2142791748047 298.210693359375 L 173.92857360839844 298.7684326171875 L 169.64285278320312 299.3213806152344 L 165.35714721679688 299.8692932128906 L 161.07142639160156 300.411865234375 L 156.7857208251953 300.9489440917969 L 152.5 301.4804382324219 L 148.2142791748047 302.0063171386719 L 143.92857360839844 302.5268249511719 L 139.64285278320312 303.04229736328125 L 135.35714721679688 303.5533752441406 L 131.07142639160156 304.0609436035156 L 126.78571319580078 304.56622314453125 L 122.5 305.0708923339844 L 118.21428680419922 305.5769958496094 L 113.92857360839844 306.087158203125 L 109.64286041259766 306.6046142578125 L 105.35713958740234 307.13330078125 L 101.07142639160156 307.6778564453125 L 96.78571319580078 308.2438659667969 L 92.5 308.83782958984375 L 88.21428680419922 309.4671936035156 L 83.92857360839844 310.1405944824219 L 79.64286041259766 310.8677673339844 L 75.35713958740234 311.6595764160156 L 71.07142639160156 312.5279541015625 L 66.78571319580078 313.48590087890625 L 62.5 314.5472412109375 Z" fill-opacity="0.6" clip-path="url(#ZtlxoFWnvDeF)" stroke-opacity="0.6" stroke-linejoin="bevel" stroke-miterlimit="10"/><path fill="rgb(252,79,48)" stroke="rgb(0,0,0)" paint-order="fill" d="M 62.5 238.05783081054688 L 66.78571319580078 237.10455322265625 L 71.07142639160156 236.0666046142578 L 75.35713958740234 234.9573211669922 L 79.64286041259766 233.7891845703125 L 83.92857360839844 232.57369995117188 L 88.21428680419922 231.3212432861328 L 92.5 230.04103088378906 L 96.78571319580078 228.74119567871094 L 101.07142639160156 227.4287567138672 L 105.35713958740234 226.1096954345703 L 109.64286041259766 224.7891082763672 L 113.92857360839844 223.47116088867188 L 118.21428680419922 222.15931701660156 L 122.5 220.8562774658203 L 126.78571319580078 219.564208984375 L 131.07142639160156 218.28469848632812 L 135.35714721679688 217.01889038085938 L 139.64285278320312 215.76754760742188 L 143.92857360839844 214.5310821533203 L 148.2142791748047 213.3096160888672 L 152.5 212.10305786132812 L 156.7857208251953 210.91107177734375 L 161.07142639160156 209.73321533203125 L 165.35714721679688 208.56890869140625 L 169.64285278320312 207.41748046875 L 173.92857360839844 206.2781524658203 L 178.2142791748047 205.15017700195312 L 182.5 204.03274536132812 L 186.7857208251953 202.92501831054688 L 191.07142639160156 201.8262481689453 L 195.35714721679688 200.73565673828125 L 199.64285278320312 199.6525115966797 L 203.92857360839844 198.57614135742188 L 208.2142791748047 197.50596618652344 L 212.5 196.44140625 L 216.7857208251953 195.38201904296875 L 221.07142639160156 194.32737731933594 L 225.35714721679688 193.2771759033203 L 229.64285278320312 192.23117065429688 L 233.92857360839844 191.1891632080078 L 238.2142791748047 190.1510467529297 L 242.5 189.11679077148438 L 246.7857208251953 188.08641052246094 L 251.07142639160156 187.05995178222656 L 255.35714721679688 186.0375213623047 L 259.6428527832031 185.01927185058594 L 263.9285583496094 184.00534057617188 L 268.21429443359375 182.9958953857422 L 272.5 181.99107360839844 L 276.78570556640625 180.99099731445312 L 281.0714416503906 179.9957733154297 L 285.3571472167969 179.00540161132812 L 289.6428527832031 178.0198516845703 L 293.9285583496094 177.0389404296875 L 298.21429443359375 176.0624237060547 L 302.5 175.08984375 L 306.78570556640625 174.12062072753906 L 311.0714416503906 173.15396118164062 L 315.3571472167969 172.1888427734375 L 319.6428527832031 171.22398376464844 L 323.9285583496094 170.25779724121094 L 328.21429443359375 169.2884063720703 L 332.5 168.31356811523438 L 336.78570556640625 167.3306121826172 L 341.0714416503906 166.3365020751953 L 345.3571472167969 165.3276824951172 L 349.6428527832031 164.30015563964844 L 353.9285583496094 163.2493438720703 L 358.21429443359375 162.17015075683594 L 362.5 161.05690002441406 L 362.5 184.380126953125 L 358.21429443359375 185.31109619140625 L 353.9285583496094 186.2349090576172 L 349.6428527832031 187.15182495117188 L 345.3571472167969 188.06207275390625 L 341.0714416503906 188.96591186523438 L 336.78570556640625 189.8635711669922 L 332.5 190.7552947998047 L 328.21429443359375 191.64132690429688 L 323.9285583496094 192.52191162109375 L 319.6428527832031 193.3972930908203 L 315.3571472167969 194.26771545410156 L 311.0714416503906 195.13340759277344 L 306.78570556640625 195.99462890625 L 302.5 196.85162353515625 L 298.21429443359375 197.70462036132812 L 293.9285583496094 198.55386352539062 L 289.6428527832031 199.3996124267578 L 285.3571472167969 200.24208068847656 L 281.0714416503906 201.08154296875 L 276.78570556640625 201.91822814941406 L 272.5 202.75238037109375 L 268.21429443359375 203.584228515625 L 263.9285583496094 204.41403198242188 L 259.6428527832031 205.24203491210938 L 255.35714721679688 206.06846618652344 L 251.07142639160156 206.89358520507812 L 246.7857208251953 207.71762084960938 L 242.5 208.5408172607422 L 238.2142791748047 209.36343383789062 L 233.92857360839844 210.18568420410156 L 229.64285278320312 211.00782775878906 L 225.35714721679688 211.8301239013672 L 221.07142639160156 212.6527862548828 L 216.7857208251953 213.47607421875 L 212.5 214.3002166748047 L 208.2142791748047 215.12547302246094 L 203.92857360839844 215.9520721435547 L 199.64285278320312 216.7802734375 L 195.35714721679688 217.6103057861328 L 191.07142639160156 218.44241333007812 L 186.7857208251953 219.27684020996094 L 182.5 220.11383056640625 L 178.2142791748047 220.95362854003906 L 173.92857360839844 221.79647827148438 L 169.64285278320312 222.64260864257812 L 165.35714721679688 223.49227905273438 L 161.07142639160156 224.34573364257812 L 156.7857208251953 225.2032012939453 L 152.5 226.06492614746094 L 148.2142791748047 226.93116760253906 L 143.92857360839844 227.80213928222656 L 139.64285278320312 228.67811584472656 L 135.35714721679688 229.559326171875 L 131.07142639160156 230.4459991455078 L 126.78571319580078 231.33840942382812 L 122.5 232.2367706298828 L 118.21428680419922 233.14132690429688 L 113.92857360839844 234.05235290527344 L 109.64286041259766 234.9700469970703 L 105.35713958740234 235.89468383789062 L 101.07142639160156 236.8264923095703 L 96.78571319580078 237.76571655273438 L 92.5 238.71261596679688 L 88.21428680419922 239.6674041748047 L 83.92857360839844 240.63034057617188 L 79.64286041259766 241.60166931152344 L 75.35713958740234 242.58163452148438 L 71.07142639160156 243.57046508789062 L 66.78571319580078 244.56842041015625 L 62.5 245.5757293701172 Z" fill-opacity="0.6" clip-path="url(#BVQZCBEvHCnx)" stroke-opacity="0.6" stroke-linejoin="bevel" stroke-miterlimit="10"/><path fill="rgb(48,162,218)" stroke="rgb(0,0,0)" paint-order="fill" d="M 62.5 245.5757293701172 L 66.78571319580078 244.56842041015625 L 71.07142639160156 243.57046508789062 L 75.35713958740234 242.58163452148438 L 79.64286041259766 241.60166931152344 L 83.92857360839844 240.63034057617188 L 88.21428680419922 239.6674041748047 L 92.5 238.71261596679688 L 96.78571319580078 237.76571655273438 L 101.07142639160156 236.8264923095703 L 105.35713958740234 235.89468383789062 L 109.64286041259766 234.9700469970703 L 113.92857360839844 234.05235290527344 L 118.21428680419922 233.14132690429688 L 122.5 232.2367706298828 L 126.78571319580078 231.33840942382812 L 131.07142639160156 230.4459991455078 L 135.35714721679688 229.559326171875 L 139.64285278320312 228.67811584472656 L 143.92857360839844 227.80213928222656 L 148.2142791748047 226.93116760253906 L 152.5 226.06492614746094 L 156.7857208251953 225.2032012939453 L 161.07142639160156 224.34573364257812 L 165.35714721679688 223.49227905273438 L 169.64285278320312 222.64260864257812 L 173.92857360839844 221.79647827148438 L 178.2142791748047 220.95362854003906 L 182.5 220.11383056640625 L 186.7857208251953 219.27684020996094 L 191.07142639160156 218.44241333007812 L 195.35714721679688 217.6103057861328 L 199.64285278320312 216.7802734375 L 203.92857360839844 215.9520721435547 L 208.2142791748047 215.12547302246094 L 212.5 214.3002166748047 L 216.7857208251953 213.47607421875 L 221.07142639160156 212.6527862548828 L 225.35714721679688 211.8301239013672 L 229.64285278320312 211.00782775878906 L 233.92857360839844 210.18568420410156 L 238.2142791748047 209.36343383789062 L 242.5 208.5408172607422 L 246.7857208251953 207.71762084960938 L 251.07142639160156 206.89358520507812 L 255.35714721679688 206.06846618652344 L 259.6428527832031 205.24203491210938 L 263.9285583496094 204.41403198242188 L 268.21429443359375 203.584228515625 L 272.5 202.75238037109375 L 276.78570556640625 201.91822814941406 L 281.0714416503906 201.08154296875 L 285.3571472167969 200.24208068847656 L 289.6428527832031 199.3996124267578 L 293.9285583496094 198.55386352539062 L 298.21429443359375 197.70462036132812 L 302.5 196.85162353515625 L 306.78570556640625 195.99462890625 L 311.0714416503906 195.13340759277344 L 315.3571472167969 194.26771545410156 L 319.6428527832031 193.3972930908203 L 323.9285583496094 192.52191162109375 L 328.21429443359375 191.64132690429688 L 332.5 190.7552947998047 L 336.78570556640625 189.8635711669922 L 341.0714416503906 188.96591186523438 L 345.3571472167969 188.06207275390625 L 349.6428527832031 187.15182495117188 L 353.9285583496094 186.2349090576172 L 358.21429443359375 185.31109619140625 L 362.5 184.380126953125 L 362.5 245.83375549316406 L 358.21429443359375 246.7647247314453 L 353.9285583496094 247.68853759765625 L 349.6428527832031 248.60545349121094 L 345.3571472167969 249.5157012939453 L 341.0714416503906 250.41954040527344 L 336.78570556640625 251.31719970703125 L 332.5 252.20892333984375 L 328.21429443359375 253.09495544433594 L 323.9285583496094 253.9755401611328 L 319.6428527832031 254.85092163085938 L 315.3571472167969 255.72134399414062 L 311.0714416503906 256.5870361328125 L 306.78570556640625 257.4482727050781 L 302.5 258.30523681640625 L 298.21429443359375 259.1582336425781 L 293.9285583496094 260.00750732421875 L 289.6428527832031 260.8532409667969 L 285.3571472167969 261.6957092285156 L 281.0714416503906 262.5351867675781 L 276.78570556640625 263.3718566894531 L 272.5 264.20599365234375 L 268.21429443359375 265.037841796875 L 263.9285583496094 265.86767578125 L 259.6428527832031 266.6956481933594 L 255.35714721679688 267.5220947265625 L 251.07142639160156 268.3471984863281 L 246.7857208251953 269.1712341308594 L 242.5 269.99444580078125 L 238.2142791748047 270.8170471191406 L 233.92857360839844 271.6393127441406 L 229.64285278320312 272.4614562988281 L 225.35714721679688 273.28375244140625 L 221.07142639160156 274.1064147949219 L 216.7857208251953 274.9296875 L 212.5 275.75384521484375 L 208.2142791748047 276.5791015625 L 203.92857360839844 277.40570068359375 L 199.64285278320312 278.23388671875 L 195.35714721679688 279.0639343261719 L 191.07142639160156 279.8960266113281 L 186.7857208251953 280.73046875 L 182.5 281.5674743652344 L 178.2142791748047 282.4072570800781 L 173.92857360839844 283.2500915527344 L 169.64285278320312 284.09625244140625 L 165.35714721679688 284.9459228515625 L 161.07142639160156 285.7993469238281 L 156.7857208251953 286.6568298339844 L 152.5 287.5185546875 L 148.2142791748047 288.3847961425781 L 143.92857360839844 289.2557678222656 L 139.64285278320312 290.1317443847656 L 135.35714721679688 291.012939453125 L 131.07142639160156 291.8996276855469 L 126.78571319580078 292.7920227050781 L 122.5 293.6903991699219 L 118.21428680419922 294.594970703125 L 113.92857360839844 295.5059814453125 L 109.64286041259766 296.4236755371094 L 105.35713958740234 297.3482971191406 L 101.07142639160156 298.2801208496094 L 96.78571319580078 299.2193603515625 L 92.5 300.1662292480469 L 88.21428680419922 301.12103271484375 L 83.92857360839844 302.083984375 L 79.64286041259766 303.0552978515625 L 75.35713958740234 304.0352478027344 L 71.07142639160156 305.0240783691406 L 66.78571319580078 306.02203369140625 L 62.5 307.02935791015625 Z" fill-opacity="0.6" clip-path="url(#RTPCncnNwTkU)" stroke-opacity="0.6" stroke-linejoin="bevel" stroke-miterlimit="10"/><path fill="none" stroke="rgb(0,0,0)" paint-order="fill" d="M 62.5 276.30255126953125 L 66.78571319580078 275.29522705078125 L 71.07142639160156 274.2972717285156 L 75.35713958740234 273.3084411621094 L 79.64286041259766 272.3284912109375 L 83.92857360839844 271.3571472167969 L 88.21428680419922 270.39422607421875 L 92.5 269.4394226074219 L 96.78571319580078 268.4925231933594 L 101.07142639160156 267.5533142089844 L 105.35713958740234 266.6214904785156 L 109.64286041259766 265.6968688964844 L 113.92857360839844 264.7791748046875 L 118.21428680419922 263.8681335449219 L 122.5 262.9635925292969 L 126.78571319580078 262.0652160644531 L 131.07142639160156 261.1728210449219 L 135.35714721679688 260.2861328125 L 139.64285278320312 259.4049377441406 L 143.92857360839844 258.5289611816406 L 148.2142791748047 257.6579895019531 L 152.5 256.791748046875 L 156.7857208251953 255.9300079345703 L 161.07142639160156 255.07254028320312 L 165.35714721679688 254.21910095214844 L 169.64285278320312 253.3694305419922 L 173.92857360839844 252.52328491210938 L 178.2142791748047 251.68045043945312 L 182.5 250.8406524658203 L 186.7857208251953 250.003662109375 L 191.07142639160156 249.16921997070312 L 195.35714721679688 248.3371124267578 L 199.64285278320312 247.507080078125 L 203.92857360839844 246.67889404296875 L 208.2142791748047 245.85227966308594 L 212.5 245.02703857421875 L 216.7857208251953 244.202880859375 L 221.07142639160156 243.3795928955078 L 225.35714721679688 242.5569305419922 L 229.64285278320312 241.73464965820312 L 233.92857360839844 240.91249084472656 L 238.2142791748047 240.09024047851562 L 242.5 239.26763916015625 L 246.7857208251953 238.44442749023438 L 251.07142639160156 237.62039184570312 L 255.35714721679688 236.7952880859375 L 259.6428527832031 235.96884155273438 L 263.9285583496094 235.14085388183594 L 268.21429443359375 234.31105041503906 L 272.5 233.47918701171875 L 276.78570556640625 232.64503479003906 L 281.0714416503906 231.80836486816406 L 285.3571472167969 230.96890258789062 L 289.6428527832031 230.1264190673828 L 293.9285583496094 229.2806854248047 L 298.21429443359375 228.43142700195312 L 302.5 227.57843017578125 L 306.78570556640625 226.72145080566406 L 311.0714416503906 225.8602294921875 L 315.3571472167969 224.99452209472656 L 319.6428527832031 224.1240997314453 L 323.9285583496094 223.2487335205078 L 328.21429443359375 222.36813354492188 L 332.5 221.4821014404297 L 336.78570556640625 220.5903778076172 L 341.0714416503906 219.69271850585938 L 345.3571472167969 218.7888946533203 L 349.6428527832031 217.87864685058594 L 353.9285583496094 216.96173095703125 L 358.21429443359375 216.03790283203125 L 362.5 215.10694885253906" stroke-opacity="1" stroke-linejoin="bevel" stroke-miterlimit="10" stroke-width="2" clip-path="url(#WWmTmzLByUUm)"/><path fill="none" stroke="rgb(0,0,0)" paint-order="fill" d="M 62.5 329.5 L 362.5 329.5" stroke-opacity="1" stroke-linejoin="bevel" stroke-miterlimit="10"/><path fill="none" stroke="rgb(0,0,0)" paint-order="fill" d="M 62.5 335.5 L 62.5 327.5 M 105.5 335.5 L 105.5 327.5 M 148.5 335.5 L 148.5 327.5 M 191.5 335.5 L 191.5 327.5 M 233.5 335.5 L 233.5 327.5 M 276.5 335.5 L 276.5 327.5 M 319.5 335.5 L 319.5 327.5 M 362.5 335.5 L 362.5 327.5" stroke-opacity="1" stroke-linejoin="bevel" stroke-miterlimit="10"/><path fill="none" stroke="rgb(0,0,0)" paint-order="fill" d="" stroke-opacity="1" stroke-linejoin="bevel" stroke-miterlimit="10"/><text fill="rgb(68,68,68)" stroke="none" font-family="helvetica" font-size="10pt" font-style="normal" font-weight="normal" text-decoration="normal" x="47.173004150390625" y="349.56141090393066" text-anchor="start" dominant-baseline="alphabetic" transform="matrix(1, 0, 0, 1, 0.5, 0.5)" fill-opacity="1">2030</text><text fill="none" stroke="rgb(0,0,0)" font-family="helvetica" font-size="10pt" font-style="normal" font-weight="normal" text-decoration="normal" x="47.173004150390625" y="349.56141090393066" text-anchor="start" dominant-baseline="alphabetic" transform="matrix(1, 0, 0, 1, 0.5, 0.5)" stroke-opacity="0" stroke-linejoin="bevel" stroke-miterlimit="10">2030</text><text fill="rgb(68,68,68)" stroke="none" font-family="helvetica" font-size="10pt" font-style="normal" font-weight="normal" text-decoration="normal" x="90.03014373779297" y="349.56141090393066" text-anchor="start" dominant-baseline="alphabetic" transform="matrix(1, 0, 0, 1, 0.5, 0.5)" fill-opacity="1">2040</text><text fill="none" stroke="rgb(0,0,0)" font-family="helvetica" font-size="10pt" font-style="normal" font-weight="normal" text-decoration="normal" x="90.03014373779297" y="349.56141090393066" text-anchor="start" dominant-baseline="alphabetic" transform="matrix(1, 0, 0, 1, 0.5, 0.5)" stroke-opacity="0" stroke-linejoin="bevel" stroke-miterlimit="10">2040</text><text fill="rgb(68,68,68)" stroke="none" font-family="helvetica" font-size="10pt" font-style="normal" font-weight="normal" text-decoration="normal" x="132.8872833251953" y="349.56141090393066" text-anchor="start" dominant-baseline="alphabetic" transform="matrix(1, 0, 0, 1, 0.5, 0.5)" fill-opacity="1">2050</text><text fill="none" stroke="rgb(0,0,0)" font-family="helvetica" font-size="10pt" font-style="normal" font-weight="normal" text-decoration="normal" x="132.8872833251953" y="349.56141090393066" text-anchor="start" dominant-baseline="alphabetic" transform="matrix(1, 0, 0, 1, 0.5, 0.5)" stroke-opacity="0" stroke-linejoin="bevel" stroke-miterlimit="10">2050</text><text fill="rgb(68,68,68)" stroke="none" font-family="helvetica" font-size="10pt" font-style="normal" font-weight="normal" text-decoration="normal" x="175.7444305419922" y="349.56141090393066" text-anchor="start" dominant-baseline="alphabetic" transform="matrix(1, 0, 0, 1, 0.5, 0.5)" fill-opacity="1">2060</text><text fill="none" stroke="rgb(0,0,0)" font-family="helvetica" font-size="10pt" font-style="normal" font-weight="normal" text-decoration="normal" x="175.7444305419922" y="349.56141090393066" text-anchor="start" dominant-baseline="alphabetic" transform="matrix(1, 0, 0, 1, 0.5, 0.5)" stroke-opacity="0" stroke-linejoin="bevel" stroke-miterlimit="10">2060</text><text fill="rgb(68,68,68)" stroke="none" font-family="helvetica" font-size="10pt" font-style="normal" font-weight="normal" text-decoration="normal" x="218.60157775878906" y="349.56141090393066" text-anchor="start" dominant-baseline="alphabetic" transform="matrix(1, 0, 0, 1, 0.5, 0.5)" fill-opacity="1">2070</text><text fill="none" stroke="rgb(0,0,0)" font-family="helvetica" font-size="10pt" font-style="normal" font-weight="normal" text-decoration="normal" x="218.60157775878906" y="349.56141090393066" text-anchor="start" dominant-baseline="alphabetic" transform="matrix(1, 0, 0, 1, 0.5, 0.5)" stroke-opacity="0" stroke-linejoin="bevel" stroke-miterlimit="10">2070</text><text fill="rgb(68,68,68)" stroke="none" font-family="helvetica" font-size="10pt" font-style="normal" font-weight="normal" text-decoration="normal" x="261.4587097167969" y="349.56141090393066" text-anchor="start" dominant-baseline="alphabetic" transform="matrix(1, 0, 0, 1, 0.5, 0.5)" fill-opacity="1">2080</text><text fill="none" stroke="rgb(0,0,0)" font-family="helvetica" font-size="10pt" font-style="normal" font-weight="normal" text-decoration="normal" x="261.4587097167969" y="349.56141090393066" text-anchor="start" dominant-baseline="alphabetic" transform="matrix(1, 0, 0, 1, 0.5, 0.5)" stroke-opacity="0" stroke-linejoin="bevel" stroke-miterlimit="10">2080</text><text fill="rgb(68,68,68)" stroke="none" font-family="helvetica" font-size="10pt" font-style="normal" font-weight="normal" text-decoration="normal" x="304.31585693359375" y="349.56141090393066" text-anchor="start" dominant-baseline="alphabetic" transform="matrix(1, 0, 0, 1, 0.5, 0.5)" fill-opacity="1">2090</text><text fill="none" stroke="rgb(0,0,0)" font-family="helvetica" font-size="10pt" font-style="normal" font-weight="normal" text-decoration="normal" x="304.31585693359375" y="349.56141090393066" text-anchor="start" dominant-baseline="alphabetic" transform="matrix(1, 0, 0, 1, 0.5, 0.5)" stroke-opacity="0" stroke-linejoin="bevel" stroke-miterlimit="10">2090</text><text fill="rgb(68,68,68)" stroke="none" font-family="helvetica" font-size="10pt" font-style="normal" font-weight="normal" text-decoration="normal" x="347.1730041503906" y="349.56141090393066" text-anchor="start" dominant-baseline="alphabetic" transform="matrix(1, 0, 0, 1, 0.5, 0.5)" fill-opacity="1">2100</text><text fill="none" stroke="rgb(0,0,0)" font-family="helvetica" font-size="10pt" font-style="normal" font-weight="normal" text-decoration="normal" x="347.1730041503906" y="349.56141090393066" text-anchor="start" dominant-baseline="alphabetic" transform="matrix(1, 0, 0, 1, 0.5, 0.5)" stroke-opacity="0" stroke-linejoin="bevel" stroke-miterlimit="10">2100</text><text fill="rgb(68,68,68)" stroke="none" font-family="helvetica" font-size="12pt" font-style="normal" font-weight="normal" text-decoration="normal" x="212" y="369.03797340393066" text-anchor="start" dominant-baseline="alphabetic" transform="matrix(1, 0, 0, 1, 0.5, 0.5)" fill-opacity="1"></text><text fill="none" stroke="rgb(0,0,0)" font-family="helvetica" font-size="12pt" font-style="normal" font-weight="normal" text-decoration="normal" x="212" y="369.03797340393066" text-anchor="start" dominant-baseline="alphabetic" transform="matrix(1, 0, 0, 1, 0.5, 0.5)" stroke-opacity="0" stroke-linejoin="bevel" stroke-miterlimit="10"></text><path fill="none" stroke="rgb(0,0,0)" paint-order="fill" d="M 62.5 329.5 L 62.5 29.5" stroke-opacity="1" stroke-linejoin="bevel" stroke-miterlimit="10"/><path fill="none" stroke="rgb(0,0,0)" paint-order="fill" d="M 56.5 329.5 L 64.5 329.5 M 56.5 292.5 L 64.5 292.5 M 56.5 254.5 L 64.5 254.5 M 56.5 217.5 L 64.5 217.5 M 56.5 179.5 L 64.5 179.5 M 56.5 142.5 L 64.5 142.5 M 56.5 104.5 L 64.5 104.5 M 56.5 67.5 L 64.5 67.5 M 56.5 29.5 L 64.5 29.5" stroke-opacity="1" stroke-linejoin="bevel" stroke-miterlimit="10"/><path fill="none" stroke="rgb(0,0,0)" paint-order="fill" d="" stroke-opacity="1" stroke-linejoin="bevel" stroke-miterlimit="10"/><text fill="rgb(68,68,68)" stroke="none" font-family="helvetica" font-size="10pt" font-style="normal" font-weight="normal" text-decoration="normal" x="43.58650207519531" y="333.78070545196533" text-anchor="start" dominant-baseline="alphabetic" transform="matrix(1, 0, 0, 1, 0.5, 0.5)" fill-opacity="1">0</text><text fill="none" stroke="rgb(0,0,0)" font-family="helvetica" font-size="10pt" font-style="normal" font-weight="normal" text-decoration="normal" x="43.58650207519531" y="333.78070545196533" text-anchor="start" dominant-baseline="alphabetic" transform="matrix(1, 0, 0, 1, 0.5, 0.5)" stroke-opacity="0" stroke-linejoin="bevel" stroke-miterlimit="10">0</text><text fill="rgb(68,68,68)" stroke="none" font-family="helvetica" font-size="10pt" font-style="normal" font-weight="normal" text-decoration="normal" x="36.173004150390625" y="296.28070545196533" text-anchor="start" dominant-baseline="alphabetic" transform="matrix(1, 0, 0, 1, 0.5, 0.5)" fill-opacity="1">30</text><text fill="none" stroke="rgb(0,0,0)" font-family="helvetica" font-size="10pt" font-style="normal" font-weight="normal" text-decoration="normal" x="36.173004150390625" y="296.28070545196533" text-anchor="start" dominant-baseline="alphabetic" transform="matrix(1, 0, 0, 1, 0.5, 0.5)" stroke-opacity="0" stroke-linejoin="bevel" stroke-miterlimit="10">30</text><text fill="rgb(68,68,68)" stroke="none" font-family="helvetica" font-size="10pt" font-style="normal" font-weight="normal" text-decoration="normal" x="36.173004150390625" y="258.78070545196533" text-anchor="start" dominant-baseline="alphabetic" transform="matrix(1, 0, 0, 1, 0.5, 0.5)" fill-opacity="1">60</text><text fill="none" stroke="rgb(0,0,0)" font-family="helvetica" font-size="10pt" font-style="normal" font-weight="normal" text-decoration="normal" x="36.173004150390625" y="258.78070545196533" text-anchor="start" dominant-baseline="alphabetic" transform="matrix(1, 0, 0, 1, 0.5, 0.5)" stroke-opacity="0" stroke-linejoin="bevel" stroke-miterlimit="10">60</text><text fill="rgb(68,68,68)" stroke="none" font-family="helvetica" font-size="10pt" font-style="normal" font-weight="normal" text-decoration="normal" x="36.173004150390625" y="221.28070545196533" text-anchor="start" dominant-baseline="alphabetic" transform="matrix(1, 0, 0, 1, 0.5, 0.5)" fill-opacity="1">90</text><text fill="none" stroke="rgb(0,0,0)" font-family="helvetica" font-size="10pt" font-style="normal" font-weight="normal" text-decoration="normal" x="36.173004150390625" y="221.28070545196533" text-anchor="start" dominant-baseline="alphabetic" transform="matrix(1, 0, 0, 1, 0.5, 0.5)" stroke-opacity="0" stroke-linejoin="bevel" stroke-miterlimit="10">90</text><text fill="rgb(68,68,68)" stroke="none" font-family="helvetica" font-size="10pt" font-style="normal" font-weight="normal" text-decoration="normal" x="28.759506225585938" y="183.78070545196533" text-anchor="start" dominant-baseline="alphabetic" transform="matrix(1, 0, 0, 1, 0.5, 0.5)" fill-opacity="1">120</text><text fill="none" stroke="rgb(0,0,0)" font-family="helvetica" font-size="10pt" font-style="normal" font-weight="normal" text-decoration="normal" x="28.759506225585938" y="183.78070545196533" text-anchor="start" dominant-baseline="alphabetic" transform="matrix(1, 0, 0, 1, 0.5, 0.5)" stroke-opacity="0" stroke-linejoin="bevel" stroke-miterlimit="10">120</text><text fill="rgb(68,68,68)" stroke="none" font-family="helvetica" font-size="10pt" font-style="normal" font-weight="normal" text-decoration="normal" x="28.759506225585938" y="146.28070545196533" text-anchor="start" dominant-baseline="alphabetic" transform="matrix(1, 0, 0, 1, 0.5, 0.5)" fill-opacity="1">150</text><text fill="none" stroke="rgb(0,0,0)" font-family="helvetica" font-size="10pt" font-style="normal" font-weight="normal" text-decoration="normal" x="28.759506225585938" y="146.28070545196533" text-anchor="start" dominant-baseline="alphabetic" transform="matrix(1, 0, 0, 1, 0.5, 0.5)" stroke-opacity="0" stroke-linejoin="bevel" stroke-miterlimit="10">150</text><text fill="rgb(68,68,68)" stroke="none" font-family="helvetica" font-size="10pt" font-style="normal" font-weight="normal" text-decoration="normal" x="28.759506225585938" y="108.78070545196533" text-anchor="start" dominant-baseline="alphabetic" transform="matrix(1, 0, 0, 1, 0.5, 0.5)" fill-opacity="1">180</text><text fill="none" stroke="rgb(0,0,0)" font-family="helvetica" font-size="10pt" font-style="normal" font-weight="normal" text-decoration="normal" x="28.759506225585938" y="108.78070545196533" text-anchor="start" dominant-baseline="alphabetic" transform="matrix(1, 0, 0, 1, 0.5, 0.5)" stroke-opacity="0" stroke-linejoin="bevel" stroke-miterlimit="10">180</text><text fill="rgb(68,68,68)" stroke="none" font-family="helvetica" font-size="10pt" font-style="normal" font-weight="normal" text-decoration="normal" x="28.759506225585938" y="71.28070545196533" text-anchor="start" dominant-baseline="alphabetic" transform="matrix(1, 0, 0, 1, 0.5, 0.5)" fill-opacity="1">210</text><text fill="none" stroke="rgb(0,0,0)" font-family="helvetica" font-size="10pt" font-style="normal" font-weight="normal" text-decoration="normal" x="28.759506225585938" y="71.28070545196533" text-anchor="start" dominant-baseline="alphabetic" transform="matrix(1, 0, 0, 1, 0.5, 0.5)" stroke-opacity="0" stroke-linejoin="bevel" stroke-miterlimit="10">210</text><text fill="rgb(68,68,68)" stroke="none" font-family="helvetica" font-size="10pt" font-style="normal" font-weight="normal" text-decoration="normal" x="28.759506225585938" y="33.78070545196533" text-anchor="start" dominant-baseline="alphabetic" transform="matrix(1, 0, 0, 1, 0.5, 0.5)" fill-opacity="1">240</text><text fill="none" stroke="rgb(0,0,0)" font-family="helvetica" font-size="10pt" font-style="normal" font-weight="normal" text-decoration="normal" x="28.759506225585938" y="33.78070545196533" text-anchor="start" dominant-baseline="alphabetic" transform="matrix(1, 0, 0, 1, 0.5, 0.5)" stroke-opacity="0" stroke-linejoin="bevel" stroke-miterlimit="10">240</text><text fill="rgb(68,68,68)" stroke="none" font-family="helvetica" font-size="12pt" font-style="normal" font-weight="normal" text-decoration="normal" x="-85.94752502441406" y="175" text-anchor="start" dominant-baseline="alphabetic" transform="matrix(6.123233995736766e-17, -1, 1, 6.123233995736766e-17, -157.74049377441406, 200.25950622558594)" fill-opacity="1">Days suitable for transmission</text><text fill="none" stroke="rgb(0,0,0)" font-family="helvetica" font-size="12pt" font-style="normal" font-weight="normal" text-decoration="normal" x="-85.94752502441406" y="175" text-anchor="start" dominant-baseline="alphabetic" transform="matrix(6.123233995736766e-17, -1, 1, 6.123233995736766e-17, -157.74049377441406, 200.25950622558594)" stroke-opacity="0" stroke-linejoin="bevel" stroke-miterlimit="10">Days suitable for transmission</text><path fill="rgb(255,255,255)" stroke="rgb(229,229,229)" paint-order="fill" d="M 67.5 34.5 L 224.5 34.5 L 224.5 133.5 L 67.5 133.5 L 67.5 34.5 Z" fill-opacity="0.9490196078431372" clip-path="url(#beGTNrzpsLnZ)" stroke-opacity="0.5019607843137255" stroke-linejoin="bevel" stroke-miterlimit="10"/><path fill="none" stroke="rgb(0,0,0)" paint-order="fill" d="M 72.5 49.5 L 92.5 49.5" stroke-opacity="1" stroke-linejoin="bevel" stroke-miterlimit="10" stroke-width="2" clip-path="url(#beGTNrzpsLnZ)"/><g clip-path="url(#beGTNrzpsLnZ)"><text fill="rgb(68,68,68)" stroke="none" font-family="helvetica" font-size="10pt" font-style="normal" font-weight="normal" text-decoration="normal" x="0" y="4.5" text-anchor="start" dominant-baseline="alphabetic" transform="matrix(1, 0, 0, 1, 97.5, 49.5)" fill-opacity="1">Mean</text></g><g clip-path="url(#beGTNrzpsLnZ)"><text fill="none" stroke="rgb(0,0,0)" font-family="helvetica" font-size="10pt" font-style="normal" font-weight="normal" text-decoration="normal" x="0" y="4.5" text-anchor="start" dominant-baseline="alphabetic" transform="matrix(1, 0, 0, 1, 97.5, 49.5)" stroke-opacity="0" stroke-linejoin="bevel" stroke-miterlimit="10">Mean</text></g><path fill="rgb(48,162,218)" stroke="rgb(0,0,0)" paint-order="fill" d="M 74.5 64.5 L 90.5 64.5 L 90.5 80.5 L 74.5 80.5 L 74.5 64.5 Z" fill-opacity="0.6" clip-path="url(#beGTNrzpsLnZ)" stroke-opacity="0.6" stroke-linejoin="bevel" stroke-miterlimit="10"/><g clip-path="url(#beGTNrzpsLnZ)"><text fill="rgb(68,68,68)" stroke="none" font-family="helvetica" font-size="10pt" font-style="normal" font-weight="normal" text-decoration="normal" x="0" y="4.5" text-anchor="start" dominant-baseline="alphabetic" transform="matrix(1, 0, 0, 1, 97.5, 72.5)" fill-opacity="1">Internal variability</text></g><g clip-path="url(#beGTNrzpsLnZ)"><text fill="none" stroke="rgb(0,0,0)" font-family="helvetica" font-size="10pt" font-style="normal" font-weight="normal" text-decoration="normal" x="0" y="4.5" text-anchor="start" dominant-baseline="alphabetic" transform="matrix(1, 0, 0, 1, 97.5, 72.5)" stroke-opacity="0" stroke-linejoin="bevel" stroke-miterlimit="10">Internal variability</text></g><path fill="rgb(252,79,48)" stroke="rgb(0,0,0)" paint-order="fill" d="M 74.5 87.5 L 90.5 87.5 L 90.5 103.5 L 74.5 103.5 L 74.5 87.5 Z" fill-opacity="0.6" clip-path="url(#beGTNrzpsLnZ)" stroke-opacity="0.6" stroke-linejoin="bevel" stroke-miterlimit="10"/><g clip-path="url(#beGTNrzpsLnZ)"><text fill="rgb(68,68,68)" stroke="none" font-family="helvetica" font-size="10pt" font-style="normal" font-weight="normal" text-decoration="normal" x="0" y="4.5" text-anchor="start" dominant-baseline="alphabetic" transform="matrix(1, 0, 0, 1, 97.5, 95.5)" fill-opacity="1">Model uncertainty</text></g><g clip-path="url(#beGTNrzpsLnZ)"><text fill="none" stroke="rgb(0,0,0)" font-family="helvetica" font-size="10pt" font-style="normal" font-weight="normal" text-decoration="normal" x="0" y="4.5" text-anchor="start" dominant-baseline="alphabetic" transform="matrix(1, 0, 0, 1, 97.5, 95.5)" stroke-opacity="0" stroke-linejoin="bevel" stroke-miterlimit="10">Model uncertainty</text></g><path fill="rgb(229,174,56)" stroke="rgb(0,0,0)" paint-order="fill" d="M 74.5 110.5 L 90.5 110.5 L 90.5 126.5 L 74.5 126.5 L 74.5 110.5 Z" fill-opacity="0.6" clip-path="url(#beGTNrzpsLnZ)" stroke-opacity="0.6" stroke-linejoin="bevel" stroke-miterlimit="10"/><g clip-path="url(#beGTNrzpsLnZ)"><text fill="rgb(68,68,68)" stroke="none" font-family="helvetica" font-size="10pt" font-style="normal" font-weight="normal" text-decoration="normal" x="0" y="4.5" text-anchor="start" dominant-baseline="alphabetic" transform="matrix(1, 0, 0, 1, 97.5, 118.5)" fill-opacity="1">Scenario uncertainty</text></g><g clip-path="url(#beGTNrzpsLnZ)"><text fill="none" stroke="rgb(0,0,0)" font-family="helvetica" font-size="10pt" font-style="normal" font-weight="normal" text-decoration="normal" x="0" y="4.5" text-anchor="start" dominant-baseline="alphabetic" transform="matrix(1, 0, 0, 1, 97.5, 118.5)" stroke-opacity="0" stroke-linejoin="bevel" stroke-miterlimit="10">Scenario uncertainty</text></g><text fill="rgb(68,68,68)" stroke="none" font-family="helvetica" font-size="16pt" font-style="normal" font-weight="normal" text-decoration="normal" x="0" y="19" text-anchor="start" dominant-baseline="alphabetic" transform="matrix(1, 0, 0, 1, 7.346923828125, 4.25)" fill-opacity="1">A.</text><text fill="none" stroke="rgb(0,0,0)" font-family="helvetica" font-size="16pt" font-style="normal" font-weight="normal" text-decoration="normal" x="0" y="19" text-anchor="start" dominant-baseline="alphabetic" transform="matrix(1, 0, 0, 1, 7.346923828125, 4.25)" stroke-opacity="0" stroke-miterlimit="10" stroke-dasharray="">A.</text><g transform="matrix(1, 0, 0, 1, 382, 0)"><path fill="none" stroke="rgb(229,229,229)" paint-order="fill" d="M 62.5 29.5 L 362.5 29.5 L 362.5 329.5 L 62.5 329.5 L 62.5 29.5 Z" stroke-opacity="1" stroke-linejoin="bevel" stroke-miterlimit="10"/><path fill="rgb(229,174,56)" stroke="rgb(0,0,0)" paint-order="fill" d="M 62.5 208.27236938476562 L 66.78571319580078 207.24862670898438 L 71.07142639160156 206.36480712890625 L 75.35713958740234 205.6027374267578 L 79.64286041259766 204.9445343017578 L 83.92857360839844 204.37313842773438 L 88.21428680419922 203.87266540527344 L 92.5 203.4287109375 L 96.78571319580078 203.02838134765625 L 101.07142639160156 202.66046142578125 L 105.35713958740234 202.3153076171875 L 109.64286041259766 201.9847869873047 L 113.92857360839844 201.66213989257812 L 118.21428680419922 201.34193420410156 L 122.5 201.01980590820312 L 126.78571319580078 200.69241333007812 L 131.07142639160156 200.35728454589844 L 135.35714721679688 200.01268005371094 L 139.64285278320312 199.6575164794922 L 143.92857360839844 199.29122924804688 L 148.2142791748047 198.9137420654297 L 152.5 198.52532958984375 L 156.7857208251953 198.1265411376953 L 161.07142639160156 197.7181854248047 L 165.35714721679688 197.30126953125 L 169.64285278320312 196.87689208984375 L 173.92857360839844 196.44622802734375 L 178.2142791748047 196.0105438232422 L 182.5 195.57102966308594 L 186.7857208251953 195.12892150878906 L 191.07142639160156 194.6853485107422 L 195.35714721679688 194.24136352539062 L 199.64285278320312 193.79791259765625 L 203.92857360839844 193.3558349609375 L 208.2142791748047 192.91583251953125 L 212.5 192.47842407226562 L 216.7857208251953 192.0440216064453 L 221.07142639160156 191.6128692626953 L 225.35714721679688 191.18505859375 L 229.64285278320312 190.7605438232422 L 233.92857360839844 190.339111328125 L 238.2142791748047 189.92047119140625 L 242.5 189.50418090820312 L 246.7857208251953 189.08973693847656 L 251.07142639160156 188.67652893066406 L 255.35714721679688 188.26393127441406 L 259.6428527832031 187.85130310058594 L 263.9285583496094 187.43797302246094 L 268.21429443359375 187.02334594726562 L 272.5 186.6068572998047 L 276.78570556640625 186.1880645751953 L 281.0714416503906 185.76666259765625 L 285.3571472167969 185.34254455566406 L 289.6428527832031 184.91575622558594 L 293.9285583496094 184.48666381835938 L 298.21429443359375 184.05589294433594 L 302.5 183.6244354248047 L 306.78570556640625 183.19363403320312 L 311.0714416503906 182.76528930664062 L 315.3571472167969 182.34169006347656 L 319.6428527832031 181.92559814453125 L 323.9285583496094 181.52041625976562 L 328.21429443359375 181.13006591796875 L 332.5 180.75918579101562 L 336.78570556640625 180.41302490234375 L 341.0714416503906 180.09756469726562 L 345.3571472167969 179.8194580078125 L 349.6428527832031 179.58609008789062 L 353.9285583496094 179.4054718017578 L 358.21429443359375 179.2863006591797 L 362.5 179.23779296875 L 362.5 201.79019165039062 L 358.21429443359375 201.06690979003906 L 353.9285583496094 200.41436767578125 L 349.6428527832031 199.82669067382812 L 345.3571472167969 199.29824829101562 L 341.0714416503906 198.82376098632812 L 336.78570556640625 198.3982696533203 L 332.5 198.01719665527344 L 328.21429443359375 197.67630004882812 L 323.9285583496094 197.37171936035156 L 319.6428527832031 197.09996032714844 L 315.3571472167969 196.85787963867188 L 311.0714416503906 196.6427001953125 L 306.78570556640625 196.45193481445312 L 302.5 196.28350830078125 L 298.21429443359375 196.1355743408203 L 293.9285583496094 196.0066375732422 L 289.6428527832031 195.8954315185547 L 285.3571472167969 195.8009490966797 L 281.0714416503906 195.72244262695312 L 276.78570556640625 195.65933227539062 L 272.5 195.61122131347656 L 268.21429443359375 195.577880859375 L 263.9285583496094 195.5592041015625 L 259.6428527832031 195.55517578125 L 255.35714721679688 195.5658721923828 L 251.07142639160156 195.59141540527344 L 246.7857208251953 195.63197326660156 L 242.5 195.68768310546875 L 238.2142791748047 195.75869750976562 L 233.92857360839844 195.8450927734375 L 229.64285278320312 195.94688415527344 L 225.35714721679688 196.06405639648438 L 221.07142639160156 196.19644165039062 L 216.7857208251953 196.34376525878906 L 212.5 196.50564575195312 L 208.2142791748047 196.68157958984375 L 203.92857360839844 196.8708953857422 L 199.64285278320312 197.0727996826172 L 195.35714721679688 197.286376953125 L 191.07142639160156 197.51055908203125 L 186.7857208251953 197.74417114257812 L 182.5 197.98593139648438 L 178.2142791748047 198.23448181152344 L 173.92857360839844 198.4884033203125 L 169.64285278320312 198.74623107910156 L 165.35714721679688 199.00650024414062 L 161.07142639160156 199.26780700683594 L 156.7857208251953 199.52882385253906 L 152.5 199.78831481933594 L 148.2142791748047 200.04530334472656 L 143.92857360839844 200.29896545410156 L 139.64285278320312 200.5488739013672 L 135.35714721679688 200.79493713378906 L 131.07142639160156 201.03756713867188 L 126.78571319580078 201.27769470214844 L 122.5 201.51699829101562 L 118.21428680419922 201.7578582763672 L 113.92857360839844 202.00364685058594 L 109.64286041259766 202.25869750976562 L 105.35713958740234 202.52859497070312 L 101.07142639160156 202.82020568847656 L 96.78571319580078 203.14186096191406 L 92.5 203.50341796875 L 88.21428680419922 203.91639709472656 L 83.92857360839844 204.39393615722656 L 79.64286041259766 204.95074462890625 L 75.35713958740234 205.6029052734375 L 71.07142639160156 206.36761474609375 L 66.78571319580078 207.2627410888672 L 62.5 208.30625915527344 Z" fill-opacity="0.6" clip-path="url(#BAEFHzXGHuUG)" stroke-opacity="0.6" stroke-linejoin="bevel" stroke-miterlimit="10"/><path fill="rgb(229,174,56)" stroke="rgb(0,0,0)" paint-order="fill" d="M 62.5 141.64625549316406 L 66.78571319580078 141.4935760498047 L 71.07142639160156 141.19183349609375 L 75.35713958740234 140.7589111328125 L 79.64286041259766 140.2125701904297 L 83.92857360839844 139.5698699951172 L 88.21428680419922 138.8468017578125 L 92.5 138.0579833984375 L 96.78571319580078 137.2164306640625 L 101.07142639160156 136.3335418701172 L 105.35713958740234 135.41908264160156 L 109.64286041259766 134.48129272460938 L 113.92857360839844 133.52691650390625 L 118.21428680419922 132.5614013671875 L 122.5 131.5890350341797 L 126.78571319580078 130.61302185058594 L 131.07142639160156 129.63568115234375 L 135.35714721679688 128.65855407714844 L 139.64285278320312 127.68247985839844 L 143.92857360839844 126.70774841308594 L 148.2142791748047 125.73419189453125 L 152.5 124.76122283935547 L 156.7857208251953 123.78797149658203 L 161.07142639160156 122.81330108642578 L 165.35714721679688 121.83589935302734 L 169.64285278320312 120.85432434082031 L 173.92857360839844 119.86705017089844 L 178.2142791748047 118.87252044677734 L 182.5 117.8691635131836 L 186.7857208251953 116.85545349121094 L 191.07142639160156 115.82991027832031 L 195.35714721679688 114.7911605834961 L 199.64285278320312 113.7379150390625 L 203.92857360839844 112.66900634765625 L 208.2142791748047 111.58338928222656 L 212.5 110.48018646240234 L 216.7857208251953 109.35861206054688 L 221.07142639160156 108.21804809570312 L 225.35714721679688 107.0580062866211 L 229.64285278320312 105.87811279296875 L 233.92857360839844 104.6781005859375 L 238.2142791748047 103.45782470703125 L 242.5 102.21719360351562 L 246.7857208251953 100.9561996459961 L 251.07142639160156 99.67486572265625 L 255.35714721679688 98.37324523925781 L 259.6428527832031 97.05137634277344 L 263.9285583496094 95.70928192138672 L 268.21429443359375 94.34691619873047 L 272.5 92.96417999267578 L 276.78570556640625 91.56084442138672 L 281.0714416503906 90.13658142089844 L 285.3571472167969 88.69087982177734 L 289.6428527832031 87.22306823730469 L 293.9285583496094 85.73226928710938 L 298.21429443359375 84.21737670898438 L 302.5 82.6770248413086 L 306.78570556640625 81.10958862304688 L 311.0714416503906 79.51315307617188 L 315.3571472167969 77.88549041748047 L 319.6428527832031 76.22403717041016 L 323.9285583496094 74.52589416503906 L 328.21429443359375 72.78782653808594 L 332.5 71.00621795654297 L 336.78570556640625 69.1771011352539 L 341.0714416503906 67.29613494873047 L 345.3571472167969 65.3586196899414 L 349.6428527832031 63.359500885009766 L 353.9285583496094 61.293392181396484 L 358.21429443359375 59.154563903808594 L 362.5 56.93700408935547 L 362.5 79.4894027709961 L 358.21429443359375 80.93517303466797 L 353.9285583496094 82.30229187011719 L 349.6428527832031 83.60010528564453 L 345.3571472167969 84.83740997314453 L 341.0714416503906 86.02233123779297 L 336.78570556640625 87.16234588623047 L 332.5 88.26423645019531 L 328.21429443359375 89.33406066894531 L 323.9285583496094 90.37721252441406 L 319.6428527832031 91.39839935302734 L 315.3571472167969 92.40168762207031 L 311.0714416503906 93.39055633544922 L 306.78570556640625 94.36790466308594 L 302.5 95.33609771728516 L 298.21429443359375 96.29705810546875 L 293.9285583496094 97.25224304199219 L 289.6428527832031 98.20274353027344 L 285.3571472167969 99.14929962158203 L 281.0714416503906 100.09236145019531 L 276.78570556640625 101.03211975097656 L 272.5 101.96855163574219 L 268.21429443359375 102.90145111083984 L 263.9285583496094 103.83049774169922 L 259.6428527832031 104.75524139404297 L 255.35714721679688 105.67517852783203 L 251.07142639160156 106.58975982666016 L 246.7857208251953 107.49844360351562 L 242.5 108.40069580078125 L 238.2142791748047 109.2960433959961 L 233.92857360839844 110.18406677246094 L 229.64285278320312 111.064453125 L 225.35714721679688 111.93699645996094 L 221.07142639160156 112.8016128540039 L 216.7857208251953 113.6583480834961 L 212.5 114.50740814208984 L 208.2142791748047 115.3491439819336 L 203.92857360839844 116.18405151367188 L 199.64285278320312 117.01280212402344 L 195.35714721679688 117.836181640625 L 191.07142639160156 118.6551284790039 L 186.7857208251953 119.470703125 L 182.5 120.28406524658203 L 178.2142791748047 121.09647369384766 L 173.92857360839844 121.90922546386719 L 169.64285278320312 122.72366333007812 L 165.35714721679688 123.54113006591797 L 161.07142639160156 124.36292266845703 L 156.7857208251953 125.19025421142578 L 152.5 126.02422332763672 L 148.2142791748047 126.86573791503906 L 143.92857360839844 127.71549224853516 L 139.64285278320312 128.5738525390625 L 135.35714721679688 129.44082641601562 L 131.07142639160156 130.3159637451172 L 126.78571319580078 131.1983184814453 L 122.5 132.0862274169922 L 118.21428680419922 132.9773406982422 L 113.92857360839844 133.868408203125 L 109.64286041259766 134.7552032470703 L 105.35713958740234 135.6323699951172 L 101.07142639160156 136.4932861328125 L 96.78571319580078 137.32989501953125 L 92.5 138.1326904296875 L 88.21428680419922 138.89053344726562 L 83.92857360839844 139.59066772460938 L 79.64286041259766 140.21878051757812 L 75.35713958740234 140.75909423828125 L 71.07142639160156 141.1946563720703 L 66.78571319580078 141.5076904296875 L 62.5 141.6801300048828 Z" fill-opacity="0.6" clip-path="url(#ccWUdqTvpxSa)" stroke-opacity="0.6" stroke-linejoin="bevel" stroke-miterlimit="10"/><path fill="rgb(252,79,48)" stroke="rgb(0,0,0)" paint-order="fill" d="M 62.5 200.33624267578125 L 66.78571319580078 199.73814392089844 L 71.07142639160156 199.1397247314453 L 75.35713958740234 198.54090881347656 L 79.64286041259766 197.941650390625 L 83.92857360839844 197.34188842773438 L 88.21428680419922 196.74159240722656 L 92.5 196.14068603515625 L 96.78571319580078 195.5391387939453 L 101.07142639160156 194.93685913085938 L 105.35713958740234 194.33383178710938 L 109.64286041259766 193.72998046875 L 113.92857360839844 193.12527465820312 L 118.21428680419922 192.51962280273438 L 122.5 191.9130096435547 L 126.78571319580078 191.30535888671875 L 131.07142639160156 190.6966094970703 L 135.35714721679688 190.0867462158203 L 139.64285278320312 189.47567749023438 L 143.92857360839844 188.8633575439453 L 148.2142791748047 188.24974060058594 L 152.5 187.634765625 L 156.7857208251953 187.0183868408203 L 161.07142639160156 186.40054321289062 L 165.35714721679688 185.78118896484375 L 169.64285278320312 185.16026306152344 L 173.92857360839844 184.5377197265625 L 178.2142791748047 183.9134979248047 L 182.5 183.28753662109375 L 186.7857208251953 182.65980529785156 L 191.07142639160156 182.0302276611328 L 195.35714721679688 181.3987579345703 L 199.64285278320312 180.76535034179688 L 203.92857360839844 180.12994384765625 L 208.2142791748047 179.4924774169922 L 212.5 178.8529052734375 L 216.7857208251953 178.211181640625 L 221.07142639160156 177.56723022460938 L 225.35714721679688 176.9210205078125 L 229.64285278320312 176.27249145507812 L 233.92857360839844 175.62158203125 L 238.2142791748047 174.96824645996094 L 242.5 174.31243896484375 L 246.7857208251953 173.65408325195312 L 251.07142639160156 172.99313354492188 L 255.35714721679688 172.3295440673828 L 259.6428527832031 171.66326904296875 L 263.9285583496094 170.99423217773438 L 268.21429443359375 170.3223876953125 L 272.5 169.64768981933594 L 276.78570556640625 168.97007751464844 L 281.0714416503906 168.2895050048828 L 285.3571472167969 167.6059112548828 L 289.6428527832031 166.9192352294922 L 293.9285583496094 166.2294464111328 L 298.21429443359375 165.53646850585938 L 302.5 164.8402557373047 L 306.78570556640625 164.14076232910156 L 311.0714416503906 163.4379119873047 L 315.3571472167969 162.73167419433594 L 319.6428527832031 162.02198791503906 L 323.9285583496094 161.30880737304688 L 328.21429443359375 160.59205627441406 L 332.5 159.8717041015625 L 336.78570556640625 159.14767456054688 L 341.0714416503906 158.41993713378906 L 345.3571472167969 157.6884307861328 L 349.6428527832031 156.95309448242188 L 353.9285583496094 156.21388244628906 L 358.21429443359375 155.47073364257812 L 362.5 154.7235870361328 L 362.5 179.23779296875 L 358.21429443359375 179.2863006591797 L 353.9285583496094 179.4054718017578 L 349.6428527832031 179.58609008789062 L 345.3571472167969 179.8194580078125 L 341.0714416503906 180.09756469726562 L 336.78570556640625 180.41302490234375 L 332.5 180.75918579101562 L 328.21429443359375 181.13006591796875 L 323.9285583496094 181.52041625976562 L 319.6428527832031 181.92559814453125 L 315.3571472167969 182.34169006347656 L 311.0714416503906 182.76528930664062 L 306.78570556640625 183.19363403320312 L 302.5 183.6244354248047 L 298.21429443359375 184.05589294433594 L 293.9285583496094 184.48666381835938 L 289.6428527832031 184.91575622558594 L 285.3571472167969 185.34254455566406 L 281.0714416503906 185.76666259765625 L 276.78570556640625 186.1880645751953 L 272.5 186.6068572998047 L 268.21429443359375 187.02334594726562 L 263.9285583496094 187.43797302246094 L 259.6428527832031 187.85130310058594 L 255.35714721679688 188.26393127441406 L 251.07142639160156 188.67652893066406 L 246.7857208251953 189.08973693847656 L 242.5 189.50418090820312 L 238.2142791748047 189.92047119140625 L 233.92857360839844 190.339111328125 L 229.64285278320312 190.7605438232422 L 225.35714721679688 191.18505859375 L 221.07142639160156 191.6128692626953 L 216.7857208251953 192.0440216064453 L 212.5 192.47842407226562 L 208.2142791748047 192.91583251953125 L 203.92857360839844 193.3558349609375 L 199.64285278320312 193.79791259765625 L 195.35714721679688 194.24136352539062 L 191.07142639160156 194.6853485107422 L 186.7857208251953 195.12892150878906 L 182.5 195.57102966308594 L 178.2142791748047 196.0105438232422 L 173.92857360839844 196.44622802734375 L 169.64285278320312 196.87689208984375 L 165.35714721679688 197.30126953125 L 161.07142639160156 197.7181854248047 L 156.7857208251953 198.1265411376953 L 152.5 198.52532958984375 L 148.2142791748047 198.9137420654297 L 143.92857360839844 199.29122924804688 L 139.64285278320312 199.6575164794922 L 135.35714721679688 200.01268005371094 L 131.07142639160156 200.35728454589844 L 126.78571319580078 200.69241333007812 L 122.5 201.01980590820312 L 118.21428680419922 201.34193420410156 L 113.92857360839844 201.66213989257812 L 109.64286041259766 201.9847869873047 L 105.35713958740234 202.3153076171875 L 101.07142639160156 202.66046142578125 L 96.78571319580078 203.02838134765625 L 92.5 203.4287109375 L 88.21428680419922 203.87266540527344 L 83.92857360839844 204.37313842773438 L 79.64286041259766 204.9445343017578 L 75.35713958740234 205.6027374267578 L 71.07142639160156 206.36480712890625 L 66.78571319580078 207.24862670898438 L 62.5 208.27236938476562 Z" fill-opacity="0.6" clip-path="url(#JfChdPkLaKaf)" stroke-opacity="0.6" stroke-linejoin="bevel" stroke-miterlimit="10"/><path fill="rgb(252,79,48)" stroke="rgb(0,0,0)" paint-order="fill" d="M 62.5 141.6801300048828 L 66.78571319580078 141.5076904296875 L 71.07142639160156 141.1946563720703 L 75.35713958740234 140.75909423828125 L 79.64286041259766 140.21878051757812 L 83.92857360839844 139.59066772460938 L 88.21428680419922 138.89053344726562 L 92.5 138.1326904296875 L 96.78571319580078 137.32989501953125 L 101.07142639160156 136.4932861328125 L 105.35713958740234 135.6323699951172 L 109.64286041259766 134.7552032470703 L 113.92857360839844 133.868408203125 L 118.21428680419922 132.9773406982422 L 122.5 132.0862274169922 L 126.78571319580078 131.1983184814453 L 131.07142639160156 130.3159637451172 L 135.35714721679688 129.44082641601562 L 139.64285278320312 128.5738525390625 L 143.92857360839844 127.71549224853516 L 148.2142791748047 126.86573791503906 L 152.5 126.02422332763672 L 156.7857208251953 125.19025421142578 L 161.07142639160156 124.36292266845703 L 165.35714721679688 123.54113006591797 L 169.64285278320312 122.72366333007812 L 173.92857360839844 121.90922546386719 L 178.2142791748047 121.09647369384766 L 182.5 120.28406524658203 L 186.7857208251953 119.470703125 L 191.07142639160156 118.6551284790039 L 195.35714721679688 117.836181640625 L 199.64285278320312 117.01280212402344 L 203.92857360839844 116.18405151367188 L 208.2142791748047 115.3491439819336 L 212.5 114.50740814208984 L 216.7857208251953 113.6583480834961 L 221.07142639160156 112.8016128540039 L 225.35714721679688 111.93699645996094 L 229.64285278320312 111.064453125 L 233.92857360839844 110.18406677246094 L 238.2142791748047 109.2960433959961 L 242.5 108.40069580078125 L 246.7857208251953 107.49844360351562 L 251.07142639160156 106.58975982666016 L 255.35714721679688 105.67517852783203 L 259.6428527832031 104.75524139404297 L 263.9285583496094 103.83049774169922 L 268.21429443359375 102.90145111083984 L 272.5 101.96855163574219 L 276.78570556640625 101.03211975097656 L 281.0714416503906 100.09236145019531 L 285.3571472167969 99.14929962158203 L 289.6428527832031 98.20274353027344 L 293.9285583496094 97.25224304199219 L 298.21429443359375 96.29705810546875 L 302.5 95.33609771728516 L 306.78570556640625 94.36790466308594 L 311.0714416503906 93.39055633544922 L 315.3571472167969 92.40168762207031 L 319.6428527832031 91.39839935302734 L 323.9285583496094 90.37721252441406 L 328.21429443359375 89.33406066894531 L 332.5 88.26423645019531 L 336.78570556640625 87.16234588623047 L 341.0714416503906 86.02233123779297 L 345.3571472167969 84.83740997314453 L 349.6428527832031 83.60010528564453 L 353.9285583496094 82.30229187011719 L 358.21429443359375 80.93517303466797 L 362.5 79.4894027709961 L 362.5 104.00360870361328 L 358.21429443359375 104.75074005126953 L 353.9285583496094 105.49388885498047 L 349.6428527832031 106.23310852050781 L 345.3571472167969 106.96844482421875 L 341.0714416503906 107.699951171875 L 336.78570556640625 108.42769622802734 L 332.5 109.15171813964844 L 328.21429443359375 109.8720703125 L 323.9285583496094 110.58882141113281 L 319.6428527832031 111.30200958251953 L 315.3571472167969 112.0116958618164 L 311.0714416503906 112.71793365478516 L 306.78570556640625 113.4207763671875 L 302.5 114.12026977539062 L 298.21429443359375 114.81648254394531 L 293.9285583496094 115.50946044921875 L 289.6428527832031 116.19925689697266 L 285.3571472167969 116.88592529296875 L 281.0714416503906 117.56951904296875 L 276.78570556640625 118.2500991821289 L 272.5 118.9277114868164 L 268.21429443359375 119.60240936279297 L 263.9285583496094 120.27424621582031 L 259.6428527832031 120.94328308105469 L 255.35714721679688 121.60956573486328 L 251.07142639160156 122.27315521240234 L 246.7857208251953 122.93409729003906 L 242.5 123.59244537353516 L 238.2142791748047 124.2482681274414 L 233.92857360839844 124.90160369873047 L 229.64285278320312 125.55250549316406 L 225.35714721679688 126.20104217529297 L 221.07142639160156 126.84725189208984 L 216.7857208251953 127.49119567871094 L 212.5 128.13291931152344 L 208.2142791748047 128.77249145507812 L 203.92857360839844 129.4099578857422 L 199.64285278320312 130.0453643798828 L 195.35714721679688 130.67877197265625 L 191.07142639160156 131.31024169921875 L 186.7857208251953 131.9398193359375 L 182.5 132.5675506591797 L 178.2142791748047 133.19351196289062 L 173.92857360839844 133.81773376464844 L 169.64285278320312 134.44027709960938 L 165.35714721679688 135.0612030029297 L 161.07142639160156 135.68055725097656 L 156.7857208251953 136.29840087890625 L 152.5 136.91477966308594 L 148.2142791748047 137.52975463867188 L 143.92857360839844 138.14337158203125 L 139.64285278320312 138.7556915283203 L 135.35714721679688 139.36676025390625 L 131.07142639160156 139.9766387939453 L 126.78571319580078 140.5853729248047 L 122.5 141.19302368164062 L 118.21428680419922 141.7996368408203 L 113.92857360839844 142.40528869628906 L 109.64286041259766 143.010009765625 L 105.35713958740234 143.6138458251953 L 101.07142639160156 144.21688842773438 L 96.78571319580078 144.81915283203125 L 92.5 145.4207000732422 L 88.21428680419922 146.0216064453125 L 83.92857360839844 146.6219024658203 L 79.64286041259766 147.22166442871094 L 75.35713958740234 147.8209228515625 L 71.07142639160156 148.41973876953125 L 66.78571319580078 149.01817321777344 L 62.5 149.6162567138672 Z" fill-opacity="0.6" clip-path="url(#QTpnnLiiHdes)" stroke-opacity="0.6" stroke-linejoin="bevel" stroke-miterlimit="10"/><path fill="rgb(48,162,218)" stroke="rgb(0,0,0)" paint-order="fill" d="M 62.5 149.6162567138672 L 66.78571319580078 149.01817321777344 L 71.07142639160156 148.41973876953125 L 75.35713958740234 147.8209228515625 L 79.64286041259766 147.22166442871094 L 83.92857360839844 146.6219024658203 L 88.21428680419922 146.0216064453125 L 92.5 145.4207000732422 L 96.78571319580078 144.81915283203125 L 101.07142639160156 144.21688842773438 L 105.35713958740234 143.6138458251953 L 109.64286041259766 143.010009765625 L 113.92857360839844 142.40528869628906 L 118.21428680419922 141.7996368408203 L 122.5 141.19302368164062 L 126.78571319580078 140.5853729248047 L 131.07142639160156 139.9766387939453 L 135.35714721679688 139.36676025390625 L 139.64285278320312 138.7556915283203 L 143.92857360839844 138.14337158203125 L 148.2142791748047 137.52975463867188 L 152.5 136.91477966308594 L 156.7857208251953 136.29840087890625 L 161.07142639160156 135.68055725097656 L 165.35714721679688 135.0612030029297 L 169.64285278320312 134.44027709960938 L 173.92857360839844 133.81773376464844 L 178.2142791748047 133.19351196289062 L 182.5 132.5675506591797 L 186.7857208251953 131.9398193359375 L 191.07142639160156 131.31024169921875 L 195.35714721679688 130.67877197265625 L 199.64285278320312 130.0453643798828 L 203.92857360839844 129.4099578857422 L 208.2142791748047 128.77249145507812 L 212.5 128.13291931152344 L 216.7857208251953 127.49119567871094 L 221.07142639160156 126.84725189208984 L 225.35714721679688 126.20104217529297 L 229.64285278320312 125.55250549316406 L 233.92857360839844 124.90160369873047 L 238.2142791748047 124.2482681274414 L 242.5 123.59244537353516 L 246.7857208251953 122.93409729003906 L 251.07142639160156 122.27315521240234 L 255.35714721679688 121.60956573486328 L 259.6428527832031 120.94328308105469 L 263.9285583496094 120.27424621582031 L 268.21429443359375 119.60240936279297 L 272.5 118.9277114868164 L 276.78570556640625 118.2500991821289 L 281.0714416503906 117.56951904296875 L 285.3571472167969 116.88592529296875 L 289.6428527832031 116.19925689697266 L 293.9285583496094 115.50946044921875 L 298.21429443359375 114.81648254394531 L 302.5 114.12026977539062 L 306.78570556640625 113.4207763671875 L 311.0714416503906 112.71793365478516 L 315.3571472167969 112.0116958618164 L 319.6428527832031 111.30200958251953 L 323.9285583496094 110.58882141113281 L 328.21429443359375 109.8720703125 L 332.5 109.15171813964844 L 336.78570556640625 108.42769622802734 L 341.0714416503906 107.699951171875 L 345.3571472167969 106.96844482421875 L 349.6428527832031 106.23310852050781 L 353.9285583496094 105.49388885498047 L 358.21429443359375 104.75074005126953 L 362.5 104.00360870361328 L 362.5 154.7235870361328 L 358.21429443359375 155.47073364257812 L 353.9285583496094 156.21388244628906 L 349.6428527832031 156.95309448242188 L 345.3571472167969 157.6884307861328 L 341.0714416503906 158.41993713378906 L 336.78570556640625 159.14767456054688 L 332.5 159.8717041015625 L 328.21429443359375 160.59205627441406 L 323.9285583496094 161.30880737304688 L 319.6428527832031 162.02198791503906 L 315.3571472167969 162.73167419433594 L 311.0714416503906 163.4379119873047 L 306.78570556640625 164.14076232910156 L 302.5 164.8402557373047 L 298.21429443359375 165.53646850585938 L 293.9285583496094 166.2294464111328 L 289.6428527832031 166.9192352294922 L 285.3571472167969 167.6059112548828 L 281.0714416503906 168.2895050048828 L 276.78570556640625 168.97007751464844 L 272.5 169.64768981933594 L 268.21429443359375 170.3223876953125 L 263.9285583496094 170.99423217773438 L 259.6428527832031 171.66326904296875 L 255.35714721679688 172.3295440673828 L 251.07142639160156 172.99313354492188 L 246.7857208251953 173.65408325195312 L 242.5 174.31243896484375 L 238.2142791748047 174.96824645996094 L 233.92857360839844 175.62158203125 L 229.64285278320312 176.27249145507812 L 225.35714721679688 176.9210205078125 L 221.07142639160156 177.56723022460938 L 216.7857208251953 178.211181640625 L 212.5 178.8529052734375 L 208.2142791748047 179.4924774169922 L 203.92857360839844 180.12994384765625 L 199.64285278320312 180.76535034179688 L 195.35714721679688 181.3987579345703 L 191.07142639160156 182.0302276611328 L 186.7857208251953 182.65980529785156 L 182.5 183.28753662109375 L 178.2142791748047 183.9134979248047 L 173.92857360839844 184.5377197265625 L 169.64285278320312 185.16026306152344 L 165.35714721679688 185.78118896484375 L 161.07142639160156 186.40054321289062 L 156.7857208251953 187.0183868408203 L 152.5 187.634765625 L 148.2142791748047 188.24974060058594 L 143.92857360839844 188.8633575439453 L 139.64285278320312 189.47567749023438 L 135.35714721679688 190.0867462158203 L 131.07142639160156 190.6966094970703 L 126.78571319580078 191.30535888671875 L 122.5 191.9130096435547 L 118.21428680419922 192.51962280273438 L 113.92857360839844 193.12527465820312 L 109.64286041259766 193.72998046875 L 105.35713958740234 194.33383178710938 L 101.07142639160156 194.93685913085938 L 96.78571319580078 195.5391387939453 L 92.5 196.14068603515625 L 88.21428680419922 196.74159240722656 L 83.92857360839844 197.34188842773438 L 79.64286041259766 197.941650390625 L 75.35713958740234 198.54090881347656 L 71.07142639160156 199.1397247314453 L 66.78571319580078 199.73814392089844 L 62.5 200.33624267578125 Z" fill-opacity="0.6" clip-path="url(#gcdxXQfSdfTA)" stroke-opacity="0.6" stroke-linejoin="bevel" stroke-miterlimit="10"/><path fill="none" stroke="rgb(0,0,0)" paint-order="fill" d="M 62.5 174.97625732421875 L 66.78571319580078 174.37815856933594 L 71.07142639160156 173.77972412109375 L 75.35713958740234 173.180908203125 L 79.64286041259766 172.58164978027344 L 83.92857360839844 171.98190307617188 L 88.21428680419922 171.38160705566406 L 92.5 170.78070068359375 L 96.78571319580078 170.17913818359375 L 101.07142639160156 169.57687377929688 L 105.35713958740234 168.97384643554688 L 109.64286041259766 168.3699951171875 L 113.92857360839844 167.76527404785156 L 118.21428680419922 167.15963745117188 L 122.5 166.55300903320312 L 126.78571319580078 165.9453582763672 L 131.07142639160156 165.3366241455078 L 135.35714721679688 164.72674560546875 L 139.64285278320312 164.1156768798828 L 143.92857360839844 163.50335693359375 L 148.2142791748047 162.88973999023438 L 152.5 162.2747802734375 L 156.7857208251953 161.6584014892578 L 161.07142639160156 161.04055786132812 L 165.35714721679688 160.42120361328125 L 169.64285278320312 159.80027770996094 L 173.92857360839844 159.177734375 L 178.2142791748047 158.55349731445312 L 182.5 157.92755126953125 L 186.7857208251953 157.29981994628906 L 191.07142639160156 156.6702423095703 L 195.35714721679688 156.0387725830078 L 199.64285278320312 155.40536499023438 L 203.92857360839844 154.7699432373047 L 208.2142791748047 154.1324920654297 L 212.5 153.492919921875 L 216.7857208251953 152.85118103027344 L 221.07142639160156 152.20724487304688 L 225.35714721679688 151.56103515625 L 229.64285278320312 150.91250610351562 L 233.92857360839844 150.2615966796875 L 238.2142791748047 149.60826110839844 L 242.5 148.9524383544922 L 246.7857208251953 148.29408264160156 L 251.07142639160156 147.63314819335938 L 255.35714721679688 146.9695587158203 L 259.6428527832031 146.3032684326172 L 263.9285583496094 145.6342315673828 L 268.21429443359375 144.96240234375 L 272.5 144.28770446777344 L 276.78570556640625 143.61009216308594 L 281.0714416503906 142.9295196533203 L 285.3571472167969 142.24591064453125 L 289.6428527832031 141.5592498779297 L 293.9285583496094 140.86944580078125 L 298.21429443359375 140.17648315429688 L 302.5 139.4802703857422 L 306.78570556640625 138.78076171875 L 311.0714416503906 138.0779266357422 L 315.3571472167969 137.37168884277344 L 319.6428527832031 136.66200256347656 L 323.9285583496094 135.9488067626953 L 328.21429443359375 135.23207092285156 L 332.5 134.51170349121094 L 336.78570556640625 133.78768920898438 L 341.0714416503906 133.05995178222656 L 345.3571472167969 132.32843017578125 L 349.6428527832031 131.5930938720703 L 353.9285583496094 130.8538818359375 L 358.21429443359375 130.11073303222656 L 362.5 129.3636016845703" stroke-opacity="1" stroke-linejoin="bevel" stroke-miterlimit="10" stroke-width="2" clip-path="url(#GVvIDIauRwDG)"/><path fill="none" stroke="rgb(0,0,0)" paint-order="fill" d="M 62.5 329.5 L 362.5 329.5" stroke-opacity="1" stroke-linejoin="bevel" stroke-miterlimit="10"/><path fill="none" stroke="rgb(0,0,0)" paint-order="fill" d="M 62.5 335.5 L 62.5 327.5 M 105.5 335.5 L 105.5 327.5 M 148.5 335.5 L 148.5 327.5 M 191.5 335.5 L 191.5 327.5 M 233.5 335.5 L 233.5 327.5 M 276.5 335.5 L 276.5 327.5 M 319.5 335.5 L 319.5 327.5 M 362.5 335.5 L 362.5 327.5" stroke-opacity="1" stroke-linejoin="bevel" stroke-miterlimit="10"/><path fill="none" stroke="rgb(0,0,0)" paint-order="fill" d="" stroke-opacity="1" stroke-linejoin="bevel" stroke-miterlimit="10"/><text fill="rgb(68,68,68)" stroke="none" font-family="helvetica" font-size="10pt" font-style="normal" font-weight="normal" text-decoration="normal" x="47.173004150390625" y="349.56141090393066" text-anchor="start" dominant-baseline="alphabetic" transform="matrix(1, 0, 0, 1, 0.5, 0.5)" fill-opacity="1">2030</text><text fill="none" stroke="rgb(0,0,0)" font-family="helvetica" font-size="10pt" font-style="normal" font-weight="normal" text-decoration="normal" x="47.173004150390625" y="349.56141090393066" text-anchor="start" dominant-baseline="alphabetic" transform="matrix(1, 0, 0, 1, 0.5, 0.5)" stroke-opacity="0" stroke-linejoin="bevel" stroke-miterlimit="10">2030</text><text fill="rgb(68,68,68)" stroke="none" font-family="helvetica" font-size="10pt" font-style="normal" font-weight="normal" text-decoration="normal" x="90.03014373779297" y="349.56141090393066" text-anchor="start" dominant-baseline="alphabetic" transform="matrix(1, 0, 0, 1, 0.5, 0.5)" fill-opacity="1">2040</text><text fill="none" stroke="rgb(0,0,0)" font-family="helvetica" font-size="10pt" font-style="normal" font-weight="normal" text-decoration="normal" x="90.03014373779297" y="349.56141090393066" text-anchor="start" dominant-baseline="alphabetic" transform="matrix(1, 0, 0, 1, 0.5, 0.5)" stroke-opacity="0" stroke-linejoin="bevel" stroke-miterlimit="10">2040</text><text fill="rgb(68,68,68)" stroke="none" font-family="helvetica" font-size="10pt" font-style="normal" font-weight="normal" text-decoration="normal" x="132.8872833251953" y="349.56141090393066" text-anchor="start" dominant-baseline="alphabetic" transform="matrix(1, 0, 0, 1, 0.5, 0.5)" fill-opacity="1">2050</text><text fill="none" stroke="rgb(0,0,0)" font-family="helvetica" font-size="10pt" font-style="normal" font-weight="normal" text-decoration="normal" x="132.8872833251953" y="349.56141090393066" text-anchor="start" dominant-baseline="alphabetic" transform="matrix(1, 0, 0, 1, 0.5, 0.5)" stroke-opacity="0" stroke-linejoin="bevel" stroke-miterlimit="10">2050</text><text fill="rgb(68,68,68)" stroke="none" font-family="helvetica" font-size="10pt" font-style="normal" font-weight="normal" text-decoration="normal" x="175.7444305419922" y="349.56141090393066" text-anchor="start" dominant-baseline="alphabetic" transform="matrix(1, 0, 0, 1, 0.5, 0.5)" fill-opacity="1">2060</text><text fill="none" stroke="rgb(0,0,0)" font-family="helvetica" font-size="10pt" font-style="normal" font-weight="normal" text-decoration="normal" x="175.7444305419922" y="349.56141090393066" text-anchor="start" dominant-baseline="alphabetic" transform="matrix(1, 0, 0, 1, 0.5, 0.5)" stroke-opacity="0" stroke-linejoin="bevel" stroke-miterlimit="10">2060</text><text fill="rgb(68,68,68)" stroke="none" font-family="helvetica" font-size="10pt" font-style="normal" font-weight="normal" text-decoration="normal" x="218.60157775878906" y="349.56141090393066" text-anchor="start" dominant-baseline="alphabetic" transform="matrix(1, 0, 0, 1, 0.5, 0.5)" fill-opacity="1">2070</text><text fill="none" stroke="rgb(0,0,0)" font-family="helvetica" font-size="10pt" font-style="normal" font-weight="normal" text-decoration="normal" x="218.60157775878906" y="349.56141090393066" text-anchor="start" dominant-baseline="alphabetic" transform="matrix(1, 0, 0, 1, 0.5, 0.5)" stroke-opacity="0" stroke-linejoin="bevel" stroke-miterlimit="10">2070</text><text fill="rgb(68,68,68)" stroke="none" font-family="helvetica" font-size="10pt" font-style="normal" font-weight="normal" text-decoration="normal" x="261.4587097167969" y="349.56141090393066" text-anchor="start" dominant-baseline="alphabetic" transform="matrix(1, 0, 0, 1, 0.5, 0.5)" fill-opacity="1">2080</text><text fill="none" stroke="rgb(0,0,0)" font-family="helvetica" font-size="10pt" font-style="normal" font-weight="normal" text-decoration="normal" x="261.4587097167969" y="349.56141090393066" text-anchor="start" dominant-baseline="alphabetic" transform="matrix(1, 0, 0, 1, 0.5, 0.5)" stroke-opacity="0" stroke-linejoin="bevel" stroke-miterlimit="10">2080</text><text fill="rgb(68,68,68)" stroke="none" font-family="helvetica" font-size="10pt" font-style="normal" font-weight="normal" text-decoration="normal" x="304.31585693359375" y="349.56141090393066" text-anchor="start" dominant-baseline="alphabetic" transform="matrix(1, 0, 0, 1, 0.5, 0.5)" fill-opacity="1">2090</text><text fill="none" stroke="rgb(0,0,0)" font-family="helvetica" font-size="10pt" font-style="normal" font-weight="normal" text-decoration="normal" x="304.31585693359375" y="349.56141090393066" text-anchor="start" dominant-baseline="alphabetic" transform="matrix(1, 0, 0, 1, 0.5, 0.5)" stroke-opacity="0" stroke-linejoin="bevel" stroke-miterlimit="10">2090</text><text fill="rgb(68,68,68)" stroke="none" font-family="helvetica" font-size="10pt" font-style="normal" font-weight="normal" text-decoration="normal" x="347.1730041503906" y="349.56141090393066" text-anchor="start" dominant-baseline="alphabetic" transform="matrix(1, 0, 0, 1, 0.5, 0.5)" fill-opacity="1">2100</text><text fill="none" stroke="rgb(0,0,0)" font-family="helvetica" font-size="10pt" font-style="normal" font-weight="normal" text-decoration="normal" x="347.1730041503906" y="349.56141090393066" text-anchor="start" dominant-baseline="alphabetic" transform="matrix(1, 0, 0, 1, 0.5, 0.5)" stroke-opacity="0" stroke-linejoin="bevel" stroke-miterlimit="10">2100</text><text fill="rgb(68,68,68)" stroke="none" font-family="helvetica" font-size="12pt" font-style="normal" font-weight="normal" text-decoration="normal" x="212" y="369.03797340393066" text-anchor="start" dominant-baseline="alphabetic" transform="matrix(1, 0, 0, 1, 0.5, 0.5)" fill-opacity="1"></text><text fill="none" stroke="rgb(0,0,0)" font-family="helvetica" font-size="12pt" font-style="normal" font-weight="normal" text-decoration="normal" x="212" y="369.03797340393066" text-anchor="start" dominant-baseline="alphabetic" transform="matrix(1, 0, 0, 1, 0.5, 0.5)" stroke-opacity="0" stroke-linejoin="bevel" stroke-miterlimit="10"></text><path fill="none" stroke="rgb(0,0,0)" paint-order="fill" d="M 62.5 329.5 L 62.5 29.5" stroke-opacity="1" stroke-linejoin="bevel" stroke-miterlimit="10"/><path fill="none" stroke="rgb(0,0,0)" paint-order="fill" d="M 56.5 329.5 L 64.5 329.5 M 56.5 292.5 L 64.5 292.5 M 56.5 254.5 L 64.5 254.5 M 56.5 217.5 L 64.5 217.5 M 56.5 179.5 L 64.5 179.5 M 56.5 142.5 L 64.5 142.5 M 56.5 104.5 L 64.5 104.5 M 56.5 67.5 L 64.5 67.5 M 56.5 29.5 L 64.5 29.5" stroke-opacity="1" stroke-linejoin="bevel" stroke-miterlimit="10"/><path fill="none" stroke="rgb(0,0,0)" paint-order="fill" d="" stroke-opacity="1" stroke-linejoin="bevel" stroke-miterlimit="10"/><text fill="rgb(68,68,68)" stroke="none" font-family="helvetica" font-size="10pt" font-style="normal" font-weight="normal" text-decoration="normal" x="43.58650207519531" y="333.78070545196533" text-anchor="start" dominant-baseline="alphabetic" transform="matrix(1, 0, 0, 1, 0.5, 0.5)" fill-opacity="1">0</text><text fill="none" stroke="rgb(0,0,0)" font-family="helvetica" font-size="10pt" font-style="normal" font-weight="normal" text-decoration="normal" x="43.58650207519531" y="333.78070545196533" text-anchor="start" dominant-baseline="alphabetic" transform="matrix(1, 0, 0, 1, 0.5, 0.5)" stroke-opacity="0" stroke-linejoin="bevel" stroke-miterlimit="10">0</text><text fill="rgb(68,68,68)" stroke="none" font-family="helvetica" font-size="10pt" font-style="normal" font-weight="normal" text-decoration="normal" x="36.173004150390625" y="296.28070545196533" text-anchor="start" dominant-baseline="alphabetic" transform="matrix(1, 0, 0, 1, 0.5, 0.5)" fill-opacity="1">30</text><text fill="none" stroke="rgb(0,0,0)" font-family="helvetica" font-size="10pt" font-style="normal" font-weight="normal" text-decoration="normal" x="36.173004150390625" y="296.28070545196533" text-anchor="start" dominant-baseline="alphabetic" transform="matrix(1, 0, 0, 1, 0.5, 0.5)" stroke-opacity="0" stroke-linejoin="bevel" stroke-miterlimit="10">30</text><text fill="rgb(68,68,68)" stroke="none" font-family="helvetica" font-size="10pt" font-style="normal" font-weight="normal" text-decoration="normal" x="36.173004150390625" y="258.78070545196533" text-anchor="start" dominant-baseline="alphabetic" transform="matrix(1, 0, 0, 1, 0.5, 0.5)" fill-opacity="1">60</text><text fill="none" stroke="rgb(0,0,0)" font-family="helvetica" font-size="10pt" font-style="normal" font-weight="normal" text-decoration="normal" x="36.173004150390625" y="258.78070545196533" text-anchor="start" dominant-baseline="alphabetic" transform="matrix(1, 0, 0, 1, 0.5, 0.5)" stroke-opacity="0" stroke-linejoin="bevel" stroke-miterlimit="10">60</text><text fill="rgb(68,68,68)" stroke="none" font-family="helvetica" font-size="10pt" font-style="normal" font-weight="normal" text-decoration="normal" x="36.173004150390625" y="221.28070545196533" text-anchor="start" dominant-baseline="alphabetic" transform="matrix(1, 0, 0, 1, 0.5, 0.5)" fill-opacity="1">90</text><text fill="none" stroke="rgb(0,0,0)" font-family="helvetica" font-size="10pt" font-style="normal" font-weight="normal" text-decoration="normal" x="36.173004150390625" y="221.28070545196533" text-anchor="start" dominant-baseline="alphabetic" transform="matrix(1, 0, 0, 1, 0.5, 0.5)" stroke-opacity="0" stroke-linejoin="bevel" stroke-miterlimit="10">90</text><text fill="rgb(68,68,68)" stroke="none" font-family="helvetica" font-size="10pt" font-style="normal" font-weight="normal" text-decoration="normal" x="28.759506225585938" y="183.78070545196533" text-anchor="start" dominant-baseline="alphabetic" transform="matrix(1, 0, 0, 1, 0.5, 0.5)" fill-opacity="1">120</text><text fill="none" stroke="rgb(0,0,0)" font-family="helvetica" font-size="10pt" font-style="normal" font-weight="normal" text-decoration="normal" x="28.759506225585938" y="183.78070545196533" text-anchor="start" dominant-baseline="alphabetic" transform="matrix(1, 0, 0, 1, 0.5, 0.5)" stroke-opacity="0" stroke-linejoin="bevel" stroke-miterlimit="10">120</text><text fill="rgb(68,68,68)" stroke="none" font-family="helvetica" font-size="10pt" font-style="normal" font-weight="normal" text-decoration="normal" x="28.759506225585938" y="146.28070545196533" text-anchor="start" dominant-baseline="alphabetic" transform="matrix(1, 0, 0, 1, 0.5, 0.5)" fill-opacity="1">150</text><text fill="none" stroke="rgb(0,0,0)" font-family="helvetica" font-size="10pt" font-style="normal" font-weight="normal" text-decoration="normal" x="28.759506225585938" y="146.28070545196533" text-anchor="start" dominant-baseline="alphabetic" transform="matrix(1, 0, 0, 1, 0.5, 0.5)" stroke-opacity="0" stroke-linejoin="bevel" stroke-miterlimit="10">150</text><text fill="rgb(68,68,68)" stroke="none" font-family="helvetica" font-size="10pt" font-style="normal" font-weight="normal" text-decoration="normal" x="28.759506225585938" y="108.78070545196533" text-anchor="start" dominant-baseline="alphabetic" transform="matrix(1, 0, 0, 1, 0.5, 0.5)" fill-opacity="1">180</text><text fill="none" stroke="rgb(0,0,0)" font-family="helvetica" font-size="10pt" font-style="normal" font-weight="normal" text-decoration="normal" x="28.759506225585938" y="108.78070545196533" text-anchor="start" dominant-baseline="alphabetic" transform="matrix(1, 0, 0, 1, 0.5, 0.5)" stroke-opacity="0" stroke-linejoin="bevel" stroke-miterlimit="10">180</text><text fill="rgb(68,68,68)" stroke="none" font-family="helvetica" font-size="10pt" font-style="normal" font-weight="normal" text-decoration="normal" x="28.759506225585938" y="71.28070545196533" text-anchor="start" dominant-baseline="alphabetic" transform="matrix(1, 0, 0, 1, 0.5, 0.5)" fill-opacity="1">210</text><text fill="none" stroke="rgb(0,0,0)" font-family="helvetica" font-size="10pt" font-style="normal" font-weight="normal" text-decoration="normal" x="28.759506225585938" y="71.28070545196533" text-anchor="start" dominant-baseline="alphabetic" transform="matrix(1, 0, 0, 1, 0.5, 0.5)" stroke-opacity="0" stroke-linejoin="bevel" stroke-miterlimit="10">210</text><text fill="rgb(68,68,68)" stroke="none" font-family="helvetica" font-size="10pt" font-style="normal" font-weight="normal" text-decoration="normal" x="28.759506225585938" y="33.78070545196533" text-anchor="start" dominant-baseline="alphabetic" transform="matrix(1, 0, 0, 1, 0.5, 0.5)" fill-opacity="1">240</text><text fill="none" stroke="rgb(0,0,0)" font-family="helvetica" font-size="10pt" font-style="normal" font-weight="normal" text-decoration="normal" x="28.759506225585938" y="33.78070545196533" text-anchor="start" dominant-baseline="alphabetic" transform="matrix(1, 0, 0, 1, 0.5, 0.5)" stroke-opacity="0" stroke-linejoin="bevel" stroke-miterlimit="10">240</text><text fill="rgb(68,68,68)" stroke="none" font-family="helvetica" font-size="12pt" font-style="normal" font-weight="normal" text-decoration="normal" x="-85.94752502441406" y="175" text-anchor="start" dominant-baseline="alphabetic" transform="matrix(6.123233995736766e-17, -1, 1, 6.123233995736766e-17, -157.74049377441406, 200.25950622558594)" fill-opacity="1">Days suitable for transmission</text><text fill="none" stroke="rgb(0,0,0)" font-family="helvetica" font-size="12pt" font-style="normal" font-weight="normal" text-decoration="normal" x="-85.94752502441406" y="175" text-anchor="start" dominant-baseline="alphabetic" transform="matrix(6.123233995736766e-17, -1, 1, 6.123233995736766e-17, -157.74049377441406, 200.25950622558594)" stroke-opacity="0" stroke-linejoin="bevel" stroke-miterlimit="10">Days suitable for transmission</text><text fill="rgb(68,68,68)" stroke="none" font-family="helvetica" font-size="16pt" font-style="normal" font-weight="normal" text-decoration="normal" x="0" y="19" text-anchor="start" dominant-baseline="alphabetic" transform="matrix(1, 0, 0, 1, 7.346923828125, 4.25)" fill-opacity="1">B.</text><text fill="none" stroke="rgb(0,0,0)" font-family="helvetica" font-size="16pt" font-style="normal" font-weight="normal" text-decoration="normal" x="0" y="19" text-anchor="start" dominant-baseline="alphabetic" transform="matrix(1, 0, 0, 1, 7.346923828125, 4.25)" stroke-opacity="0" stroke-miterlimit="10" stroke-dasharray="">B.</text></g></svg>