<svg version="1.1" xmlns="http://www.w3.org/2000/svg" width="750" height="345"><defs><clipPath id="xweWqDBvCDic"><path fill="none" stroke="none" d="M 57.5 21.5 L 357.5 21.5 L 357.5 321.5 L 57.5 321.5 L 57.5 21.5 Z"/></clipPath><clipPath id="AecPnAzMWmpI"><path fill="none" stroke="none" d="M 57.5 21.5 L 357.5 21.5 L 357.5 321.5 L 57.5 321.5 L 57.5 21.5 Z"/></clipPath><clipPath id="cENqvwKUtFTP"><path fill="none" stroke="none" d="M 57.5 21.5 L 357.5 21.5 L 357.5 321.5 L 57.5 321.5 L 57.5 21.5 Z"/></clipPath><clipPath id="TFmGWSQCTogP"><path fill="none" stroke="none" d="M 57.5 21.5 L 357.5 21.5 L 357.5 321.5 L 57.5 321.5 L 57.5 21.5 Z"/></clipPath><clipPath id="ItGqpbFgqyxr"><path fill="none" stroke="none" d="M 57.5 21.5 L 357.5 21.5 L 357.5 321.5 L 57.5 321.5 L 57.5 21.5 Z"/></clipPath><clipPath id="LBclxcgkCuDc"><path fill="none" stroke="none" d="M 57.5 21.5 L 357.5 21.5 L 357.5 321.5 L 57.5 321.5 L 57.5 21.5 Z"/></clipPath><clipPath id="vWIQLcNJnemS"><path fill="none" stroke="none" d="M 57.5 21.5 L 357.5 21.5 L 357.5 321.5 L 57.5 321.5 L 57.5 21.5 Z"/></clipPath><clipPath id="nTfTIIsTAZzD"><path fill="none" stroke="none" d="M 59.5 21.5 L 359.5 21.5 L 359.5 321.5 L 59.5 321.5 L 59.5 21.5 Z"/></clipPath><clipPath id="JiCZCCbTtbkf"><path fill="none" stroke="none" d="M 59.5 21.5 L 359.5 21.5 L 359.5 321.5 L 59.5 321.5 L 59.5 21.5 Z"/></clipPath><clipPath id="GIDbycNNsmRh"><path fill="none" stroke="none" d="M 59.5 21.5 L 359.5 21.5 L 359.5 321.5 L 59.5 321.5 L 59.5 21.5 Z"/></clipPath><clipPath id="ALhxLyMGyKAA"><path fill="none" stroke="none" d="M 59.5 21.5 L 359.5 21.5 L 359.5 321.5 L 59.5 321.5 L 59.5 21.5 Z"/></clipPath><clipPath id="xwDkFeENiHNZ"><path fill="none" stroke="none" d="M 59.5 21.5 L 359.5 21.5 L 359.5 321.5 L 59.5 321.5 L 59.5 21.5 Z"/></clipPath><clipPath id="EeDRGMPTZvub"><path fill="none" stroke="none" d="M 59.5 21.5 L 359.5 21.5 L 359.5 321.5 L 59.5 321.5 L 59.5 21.5 Z"/></clipPath><clipPath id="veuGganekfSK"><path fill="none" stroke="none" d="M 59.5 21.5 L 359.5 21.5 L 359.5 321.5 L 59.5 321.5 L 59.5 21.5 Z"/></clipPath></defs><path fill="rgb(0,0,0)" stroke="none" paint-order="stroke" d="M 0 0 L 750 0 L 750 345 L 0 345 L 0 0 Z" fill-opacity="0"/><path fill="rgb(0,0,0)" stroke="none" paint-order="stroke" d="M 0 0 L 750 0 L 750 345 L 0 345 L 0 0 Z" fill-opacity="0"/><path fill="none" stroke="rgb(229,229,229)" paint-order="fill" d="M 57.5 21.5 L 357.5 21.5 L 357.5 321.5 L 57.5 321.5 L 57.5 21.5 Z" stroke-opacity="1" stroke-linejoin="bevel" stroke-miterlimit="10"/><path fill="rgb(48,162,218)" stroke="rgb(0,0,0)" paint-order="fill" d="M 57.5 321.5 L 61.78571319580078 321.5 L 66.07142639160156 321.5 L 70.35713958740234 321.5 L 74.64286041259766 321.5 L 78.92857360839844 321.5 L 83.21428680419922 321.5 L 87.5 321.5 L 91.78571319580078 321.5 L 96.07142639160156 321.5 L 100.35713958740234 321.5 L 104.64286041259766 321.5 L 108.92857360839844 321.5 L 113.21428680419922 321.5 L 117.5 321.5 L 121.78571319580078 321.5 L 126.07142639160156 321.5 L 130.35714721679688 321.5 L 134.64285278320312 321.5 L 138.92857360839844 321.5 L 143.2142791748047 321.5 L 147.5 321.5 L 151.7857208251953 321.5 L 156.07142639160156 321.5 L 160.35714721679688 321.5 L 164.64285278320312 321.5 L 168.92857360839844 321.5 L 173.2142791748047 321.5 L 177.5 321.5 L 181.7857208251953 321.5 L 186.07142639160156 321.5 L 190.35714721679688 321.5 L 194.64285278320312 321.5 L 198.92857360839844 321.5 L 203.2142791748047 321.5 L 207.5 321.5 L 211.7857208251953 321.5 L 216.07142639160156 321.5 L 220.35714721679688 321.5 L 224.64285278320312 321.5 L 228.92857360839844 321.5 L 233.2142791748047 321.5 L 237.5 321.5 L 241.7857208251953 321.5 L 246.07142639160156 321.5 L 250.35714721679688 321.5 L 254.64285278320312 321.5 L 258.9285583496094 321.5 L 263.21429443359375 321.5 L 267.5 321.5 L 271.78570556640625 321.5 L 276.0714416503906 321.5 L 280.3571472167969 321.5 L 284.6428527832031 321.5 L 288.9285583496094 321.5 L 293.21429443359375 321.5 L 297.5 321.5 L 301.78570556640625 321.5 L 306.0714416503906 321.5 L 310.3571472167969 321.5 L 314.6428527832031 321.5 L 318.9285583496094 321.5 L 323.21429443359375 321.5 L 327.5 321.5 L 331.78570556640625 321.5 L 336.0714416503906 321.5 L 340.3571472167969 321.5 L 344.6428527832031 321.5 L 348.9285583496094 321.5 L 353.21429443359375 321.5 L 357.5 321.5 L 357.5 302.5065612792969 L 353.21429443359375 302.5065612792969 L 348.9285583496094 302.5065612792969 L 344.6428527832031 302.5065612792969 L 340.3571472167969 302.5065612792969 L 336.0714416503906 302.5065612792969 L 331.78570556640625 302.5065612792969 L 327.5 302.5065612792969 L 323.21429443359375 302.5065612792969 L 318.9285583496094 302.5065612792969 L 314.6428527832031 302.5065612792969 L 310.3571472167969 302.5065612792969 L 306.0714416503906 302.5065612792969 L 301.78570556640625 302.5065612792969 L 297.5 302.5065612792969 L 293.21429443359375 302.5065612792969 L 288.9285583496094 302.5065612792969 L 284.6428527832031 302.5065612792969 L 280.3571472167969 302.5065612792969 L 276.0714416503906 302.5065612792969 L 271.78570556640625 302.5065612792969 L 267.5 302.5065612792969 L 263.21429443359375 302.5065612792969 L 258.9285583496094 302.5065612792969 L 254.64285278320312 302.5065612792969 L 250.35714721679688 302.5065612792969 L 246.07142639160156 302.5065612792969 L 241.7857208251953 302.5065612792969 L 237.5 302.5065612792969 L 233.2142791748047 302.5065612792969 L 228.92857360839844 302.5065612792969 L 224.64285278320312 302.5065612792969 L 220.35714721679688 302.5065612792969 L 216.07142639160156 302.5065612792969 L 211.7857208251953 302.5065612792969 L 207.5 302.5065612792969 L 203.2142791748047 302.5065612792969 L 198.92857360839844 302.5065612792969 L 194.64285278320312 302.5065612792969 L 190.35714721679688 302.5065612792969 L 186.07142639160156 302.5065612792969 L 181.7857208251953 302.5065612792969 L 177.5 302.5065612792969 L 173.2142791748047 302.5065612792969 L 168.92857360839844 302.5065612792969 L 164.64285278320312 302.5065612792969 L 160.35714721679688 302.5065612792969 L 156.07142639160156 302.5065612792969 L 151.7857208251953 302.5065612792969 L 147.5 302.5065612792969 L 143.2142791748047 302.5065612792969 L 138.92857360839844 302.5065612792969 L 134.64285278320312 302.5065612792969 L 130.35714721679688 302.5065612792969 L 126.07142639160156 302.5065612792969 L 121.78571319580078 302.5065612792969 L 117.5 302.5065612792969 L 113.21428680419922 302.5065612792969 L 108.92857360839844 302.5065612792969 L 104.64286041259766 302.5065612792969 L 100.35713958740234 302.5065612792969 L 96.07142639160156 302.5065612792969 L 91.78571319580078 302.5065612792969 L 87.5 302.5065612792969 L 83.21428680419922 302.5065612792969 L 78.92857360839844 302.5065612792969 L 74.64286041259766 302.5065612792969 L 70.35713958740234 302.5065612792969 L 66.07142639160156 302.5065612792969 L 61.78571319580078 302.5065612792969 L 57.5 302.5065612792969 Z" fill-opacity="1" clip-path="url(#cENqvwKUtFTP)" stroke-opacity="1" stroke-linejoin="bevel" stroke-miterlimit="10"/><path fill="rgb(252,79,48)" stroke="rgb(0,0,0)" paint-order="fill" d="M 57.5 302.5065612792969 L 61.78571319580078 302.5065612792969 L 66.07142639160156 302.5065612792969 L 70.35713958740234 302.5065612792969 L 74.64286041259766 302.5065612792969 L 78.92857360839844 302.5065612792969 L 83.21428680419922 302.5065612792969 L 87.5 302.5065612792969 L 91.78571319580078 302.5065612792969 L 96.07142639160156 302.5065612792969 L 100.35713958740234 302.5065612792969 L 104.64286041259766 302.5065612792969 L 108.92857360839844 302.5065612792969 L 113.21428680419922 302.5065612792969 L 117.5 302.5065612792969 L 121.78571319580078 302.5065612792969 L 126.07142639160156 302.5065612792969 L 130.35714721679688 302.5065612792969 L 134.64285278320312 302.5065612792969 L 138.92857360839844 302.5065612792969 L 143.2142791748047 302.5065612792969 L 147.5 302.5065612792969 L 151.7857208251953 302.5065612792969 L 156.07142639160156 302.5065612792969 L 160.35714721679688 302.5065612792969 L 164.64285278320312 302.5065612792969 L 168.92857360839844 302.5065612792969 L 173.2142791748047 302.5065612792969 L 177.5 302.5065612792969 L 181.7857208251953 302.5065612792969 L 186.07142639160156 302.5065612792969 L 190.35714721679688 302.5065612792969 L 194.64285278320312 302.5065612792969 L 198.92857360839844 302.5065612792969 L 203.2142791748047 302.5065612792969 L 207.5 302.5065612792969 L 211.7857208251953 302.5065612792969 L 216.07142639160156 302.5065612792969 L 220.35714721679688 302.5065612792969 L 224.64285278320312 302.5065612792969 L 228.92857360839844 302.5065612792969 L 233.2142791748047 302.5065612792969 L 237.5 302.5065612792969 L 241.7857208251953 302.5065612792969 L 246.07142639160156 302.5065612792969 L 250.35714721679688 302.5065612792969 L 254.64285278320312 302.5065612792969 L 258.9285583496094 302.5065612792969 L 263.21429443359375 302.5065612792969 L 267.5 302.5065612792969 L 271.78570556640625 302.5065612792969 L 276.0714416503906 302.5065612792969 L 280.3571472167969 302.5065612792969 L 284.6428527832031 302.5065612792969 L 288.9285583496094 302.5065612792969 L 293.21429443359375 302.5065612792969 L 297.5 302.5065612792969 L 301.78570556640625 302.5065612792969 L 306.0714416503906 302.5065612792969 L 310.3571472167969 302.5065612792969 L 314.6428527832031 302.5065612792969 L 318.9285583496094 302.5065612792969 L 323.21429443359375 302.5065612792969 L 327.5 302.5065612792969 L 331.78570556640625 302.5065612792969 L 336.0714416503906 302.5065612792969 L 340.3571472167969 302.5065612792969 L 344.6428527832031 302.5065612792969 L 348.9285583496094 302.5065612792969 L 353.21429443359375 302.5065612792969 L 357.5 302.5065612792969 L 357.5 199.54656982421875 L 353.21429443359375 203.10470581054688 L 348.9285583496094 206.44180297851562 L 344.6428527832031 209.57830810546875 L 340.3571472167969 212.53277587890625 L 336.0714416503906 215.32200622558594 L 331.78570556640625 217.9611358642578 L 327.5 220.4638214111328 L 323.21429443359375 222.84226989746094 L 318.9285583496094 225.10740661621094 L 314.6428527832031 227.2689971923828 L 310.3571472167969 229.33567810058594 L 306.0714416503906 231.3151092529297 L 301.78570556640625 233.21405029296875 L 297.5 235.03846740722656 L 293.21429443359375 236.79359436035156 L 288.9285583496094 238.48399353027344 L 284.6428527832031 240.1136932373047 L 280.3571472167969 241.6862335205078 L 276.0714416503906 243.20468139648438 L 271.78570556640625 244.6717987060547 L 267.5 246.08999633789062 L 263.21429443359375 247.46145629882812 L 258.9285583496094 248.78817749023438 L 254.64285278320312 250.0719757080078 L 250.35714721679688 251.31459045410156 L 246.07142639160156 252.51768493652344 L 241.7857208251953 253.68284606933594 L 237.5 254.81173706054688 L 233.2142791748047 255.90597534179688 L 228.92857360839844 256.96722412109375 L 224.64285278320312 257.9972839355469 L 220.35714721679688 258.9979248046875 L 216.07142639160156 259.9710693359375 L 211.7857208251953 260.918701171875 L 207.5 261.8428955078125 L 203.2142791748047 262.7458190917969 L 198.92857360839844 263.62969970703125 L 194.64285278320312 264.49688720703125 L 190.35714721679688 265.3497314453125 L 186.07142639160156 266.1905822753906 L 181.7857208251953 267.0218505859375 L 177.5 267.84588623046875 L 173.2142791748047 268.6650695800781 L 168.92857360839844 269.4815368652344 L 164.64285278320312 270.2974548339844 L 160.35714721679688 271.1146545410156 L 156.07142639160156 271.934814453125 L 151.7857208251953 272.7593688964844 L 147.5 273.58935546875 L 143.2142791748047 274.4253845214844 L 138.92857360839844 275.2676696777344 L 134.64285278320312 276.1158142089844 L 130.35714721679688 276.96881103515625 L 126.07142639160156 277.82501220703125 L 121.78571319580078 278.68194580078125 L 117.5 279.5362854003906 L 113.21428680419922 280.38372802734375 L 108.92857360839844 281.2189636230469 L 104.64286041259766 282.03546142578125 L 100.35713958740234 282.82550048828125 L 96.07142639160156 283.5799255371094 L 91.78571319580078 284.28814697265625 L 87.5 284.9379577636719 L 83.21428680419922 285.51544189453125 L 78.92857360839844 286.0048522949219 L 74.64286041259766 286.388427734375 L 70.35713958740234 286.6463623046875 L 66.07142639160156 286.7565002441406 L 61.78571319580078 286.6944274902344 L 57.5 286.4331359863281 Z" fill-opacity="1" clip-path="url(#TFmGWSQCTogP)" stroke-opacity="1" stroke-linejoin="bevel" stroke-miterlimit="10"/><path fill="rgb(229,174,56)" stroke="rgb(0,0,0)" paint-order="fill" d="M 57.5 286.4331359863281 L 61.78571319580078 286.6944274902344 L 66.07142639160156 286.7565002441406 L 70.35713958740234 286.6463623046875 L 74.64286041259766 286.388427734375 L 78.92857360839844 286.0048522949219 L 83.21428680419922 285.51544189453125 L 87.5 284.9379577636719 L 91.78571319580078 284.28814697265625 L 96.07142639160156 283.5799255371094 L 100.35713958740234 282.82550048828125 L 104.64286041259766 282.03546142578125 L 108.92857360839844 281.2189636230469 L 113.21428680419922 280.38372802734375 L 117.5 279.5362854003906 L 121.78571319580078 278.68194580078125 L 126.07142639160156 277.82501220703125 L 130.35714721679688 276.96881103515625 L 134.64285278320312 276.1158142089844 L 138.92857360839844 275.2676696777344 L 143.2142791748047 274.4253845214844 L 147.5 273.58935546875 L 151.7857208251953 272.7593688964844 L 156.07142639160156 271.934814453125 L 160.35714721679688 271.1146545410156 L 164.64285278320312 270.2974548339844 L 168.92857360839844 269.4815368652344 L 173.2142791748047 268.6650695800781 L 177.5 267.84588623046875 L 181.7857208251953 267.0218505859375 L 186.07142639160156 266.1905822753906 L 190.35714721679688 265.3497314453125 L 194.64285278320312 264.49688720703125 L 198.92857360839844 263.62969970703125 L 203.2142791748047 262.7458190917969 L 207.5 261.8428955078125 L 211.7857208251953 260.918701171875 L 216.07142639160156 259.9710693359375 L 220.35714721679688 258.9979248046875 L 224.64285278320312 257.9972839355469 L 228.92857360839844 256.96722412109375 L 233.2142791748047 255.90597534179688 L 237.5 254.81173706054688 L 241.7857208251953 253.68284606933594 L 246.07142639160156 252.51768493652344 L 250.35714721679688 251.31459045410156 L 254.64285278320312 250.0719757080078 L 258.9285583496094 248.78817749023438 L 263.21429443359375 247.46145629882812 L 267.5 246.08999633789062 L 271.78570556640625 244.6717987060547 L 276.0714416503906 243.20468139648438 L 280.3571472167969 241.6862335205078 L 284.6428527832031 240.1136932373047 L 288.9285583496094 238.48399353027344 L 293.21429443359375 236.79359436035156 L 297.5 235.03846740722656 L 301.78570556640625 233.21405029296875 L 306.0714416503906 231.3151092529297 L 310.3571472167969 229.33567810058594 L 314.6428527832031 227.2689971923828 L 318.9285583496094 225.10740661621094 L 323.21429443359375 222.84226989746094 L 327.5 220.4638214111328 L 331.78570556640625 217.9611358642578 L 336.0714416503906 215.32200622558594 L 340.3571472167969 212.53277587890625 L 344.6428527832031 209.57830810546875 L 348.9285583496094 206.44180297851562 L 353.21429443359375 203.10470581054688 L 357.5 199.54656982421875 L 357.5 24.89208984375 L 353.21429443359375 38.24494552612305 L 348.9285583496094 50.90402603149414 L 344.6428527832031 62.90885543823242 L 340.3571472167969 74.29644775390625 L 336.0714416503906 85.10147857666016 L 331.78570556640625 95.35638427734375 L 327.5 105.0915298461914 L 323.21429443359375 114.3353042602539 L 318.9285583496094 123.11426544189453 L 314.6428527832031 131.4532470703125 L 310.3571472167969 139.37550354003906 L 306.0714416503906 146.9027557373047 L 301.78570556640625 154.05535888671875 L 297.5 160.8523712158203 L 293.21429443359375 167.31167602539062 L 288.9285583496094 173.4500274658203 L 284.6428527832031 179.28321838378906 L 280.3571472167969 184.8260498046875 L 276.0714416503906 190.092529296875 L 271.78570556640625 195.0958709716797 L 267.5 199.84860229492188 L 263.21429443359375 204.36257934570312 L 258.9285583496094 208.6491241455078 L 254.64285278320312 212.7190399169922 L 250.35714721679688 216.5826416015625 L 246.07142639160156 220.2498321533203 L 241.7857208251953 223.7301788330078 L 237.5 227.03289794921875 L 233.2142791748047 230.16690063476562 L 228.92857360839844 233.140869140625 L 224.64285278320312 235.96319580078125 L 220.35714721679688 238.6421356201172 L 216.07142639160156 241.1856689453125 L 211.7857208251953 243.60165405273438 L 207.5 245.89776611328125 L 203.2142791748047 248.08148193359375 L 198.92857360839844 250.16015625 L 194.64285278320312 252.14096069335938 L 190.35714721679688 254.03086853027344 L 186.07142639160156 255.83668518066406 L 181.7857208251953 257.56500244140625 L 177.5 259.2221984863281 L 173.2142791748047 260.8143615722656 L 168.92857360839844 262.34735107421875 L 164.64285278320312 263.82666015625 L 160.35714721679688 265.2574768066406 L 156.07142639160156 266.6445007324219 L 151.7857208251953 267.99212646484375 L 147.5 269.3040771484375 L 143.2142791748047 270.58367919921875 L 138.92857360839844 271.8335876464844 L 134.64285278320312 273.05572509765625 L 130.35714721679688 274.2513122558594 L 126.07142639160156 275.4207763671875 L 121.78571319580078 276.5635986328125 L 117.5 277.67828369140625 L 113.21428680419922 278.76226806640625 L 108.92857360839844 279.8118896484375 L 104.64286041259766 280.8221130371094 L 100.35713958740234 281.7866516113281 L 96.07142639160156 282.69769287109375 L 91.78571319580078 283.5458984375 L 87.5 284.3201904296875 L 83.21428680419922 285.0078125 L 78.92857360839844 285.59393310546875 L 74.64286041259766 286.061767578125 L 70.35713958740234 286.3923645019531 L 66.07142639160156 286.5644226074219 L 61.78571319580078 286.5541687011719 L 57.5 286.3352966308594 Z" fill-opacity="1" clip-path="url(#ItGqpbFgqyxr)" stroke-opacity="1" stroke-linejoin="bevel" stroke-miterlimit="10"/><path fill="none" stroke="rgb(0,0,0)" paint-order="fill" d="M 57.5 321.5 L 357.5 321.5" stroke-opacity="1" stroke-linejoin="bevel" stroke-miterlimit="10"/><path fill="none" stroke="rgb(0,0,0)" paint-order="fill" d="M 57.5 327.5 L 57.5 319.5 M 100.5 327.5 L 100.5 319.5 M 143.5 327.5 L 143.5 319.5 M 186.5 327.5 L 186.5 319.5 M 228.5 327.5 L 228.5 319.5 M 271.5 327.5 L 271.5 319.5 M 314.5 327.5 L 314.5 319.5 M 357.5 327.5 L 357.5 319.5" stroke-opacity="1" stroke-linejoin="bevel" stroke-miterlimit="10"/><path fill="none" stroke="rgb(0,0,0)" paint-order="fill" d="" stroke-opacity="1" stroke-linejoin="bevel" stroke-miterlimit="10"/><text fill="rgb(68,68,68)" stroke="none" font-family="helvetica" font-size="10pt" font-style="normal" font-weight="normal" text-decoration="normal" x="42.173004150390625" y="341.56141090393066" text-anchor="start" dominant-baseline="alphabetic" transform="matrix(1, 0, 0, 1, 0.5, 0.5)" fill-opacity="1">2030</text><text fill="none" stroke="rgb(0,0,0)" font-family="helvetica" font-size="10pt" font-style="normal" font-weight="normal" text-decoration="normal" x="42.173004150390625" y="341.56141090393066" text-anchor="start" dominant-baseline="alphabetic" transform="matrix(1, 0, 0, 1, 0.5, 0.5)" stroke-opacity="0" stroke-linejoin="bevel" stroke-miterlimit="10">2030</text><text fill="rgb(68,68,68)" stroke="none" font-family="helvetica" font-size="10pt" font-style="normal" font-weight="normal" text-decoration="normal" x="85.03014373779297" y="341.56141090393066" text-anchor="start" dominant-baseline="alphabetic" transform="matrix(1, 0, 0, 1, 0.5, 0.5)" fill-opacity="1">2040</text><text fill="none" stroke="rgb(0,0,0)" font-family="helvetica" font-size="10pt" font-style="normal" font-weight="normal" text-decoration="normal" x="85.03014373779297" y="341.56141090393066" text-anchor="start" dominant-baseline="alphabetic" transform="matrix(1, 0, 0, 1, 0.5, 0.5)" stroke-opacity="0" stroke-linejoin="bevel" stroke-miterlimit="10">2040</text><text fill="rgb(68,68,68)" stroke="none" font-family="helvetica" font-size="10pt" font-style="normal" font-weight="normal" text-decoration="normal" x="127.88728332519531" y="341.56141090393066" text-anchor="start" dominant-baseline="alphabetic" transform="matrix(1, 0, 0, 1, 0.5, 0.5)" fill-opacity="1">2050</text><text fill="none" stroke="rgb(0,0,0)" font-family="helvetica" font-size="10pt" font-style="normal" font-weight="normal" text-decoration="normal" x="127.88728332519531" y="341.56141090393066" text-anchor="start" dominant-baseline="alphabetic" transform="matrix(1, 0, 0, 1, 0.5, 0.5)" stroke-opacity="0" stroke-linejoin="bevel" stroke-miterlimit="10">2050</text><text fill="rgb(68,68,68)" stroke="none" font-family="helvetica" font-size="10pt" font-style="normal" font-weight="normal" text-decoration="normal" x="170.7444305419922" y="341.56141090393066" text-anchor="start" dominant-baseline="alphabetic" transform="matrix(1, 0, 0, 1, 0.5, 0.5)" fill-opacity="1">2060</text><text fill="none" stroke="rgb(0,0,0)" font-family="helvetica" font-size="10pt" font-style="normal" font-weight="normal" text-decoration="normal" x="170.7444305419922" y="341.56141090393066" text-anchor="start" dominant-baseline="alphabetic" transform="matrix(1, 0, 0, 1, 0.5, 0.5)" stroke-opacity="0" stroke-linejoin="bevel" stroke-miterlimit="10">2060</text><text fill="rgb(68,68,68)" stroke="none" font-family="helvetica" font-size="10pt" font-style="normal" font-weight="normal" text-decoration="normal" x="213.60157775878906" y="341.56141090393066" text-anchor="start" dominant-baseline="alphabetic" transform="matrix(1, 0, 0, 1, 0.5, 0.5)" fill-opacity="1">2070</text><text fill="none" stroke="rgb(0,0,0)" font-family="helvetica" font-size="10pt" font-style="normal" font-weight="normal" text-decoration="normal" x="213.60157775878906" y="341.56141090393066" text-anchor="start" dominant-baseline="alphabetic" transform="matrix(1, 0, 0, 1, 0.5, 0.5)" stroke-opacity="0" stroke-linejoin="bevel" stroke-miterlimit="10">2070</text><text fill="rgb(68,68,68)" stroke="none" font-family="helvetica" font-size="10pt" font-style="normal" font-weight="normal" text-decoration="normal" x="256.4587097167969" y="341.56141090393066" text-anchor="start" dominant-baseline="alphabetic" transform="matrix(1, 0, 0, 1, 0.5, 0.5)" fill-opacity="1">2080</text><text fill="none" stroke="rgb(0,0,0)" font-family="helvetica" font-size="10pt" font-style="normal" font-weight="normal" text-decoration="normal" x="256.4587097167969" y="341.56141090393066" text-anchor="start" dominant-baseline="alphabetic" transform="matrix(1, 0, 0, 1, 0.5, 0.5)" stroke-opacity="0" stroke-linejoin="bevel" stroke-miterlimit="10">2080</text><text fill="rgb(68,68,68)" stroke="none" font-family="helvetica" font-size="10pt" font-style="normal" font-weight="normal" text-decoration="normal" x="299.31585693359375" y="341.56141090393066" text-anchor="start" dominant-baseline="alphabetic" transform="matrix(1, 0, 0, 1, 0.5, 0.5)" fill-opacity="1">2090</text><text fill="none" stroke="rgb(0,0,0)" font-family="helvetica" font-size="10pt" font-style="normal" font-weight="normal" text-decoration="normal" x="299.31585693359375" y="341.56141090393066" text-anchor="start" dominant-baseline="alphabetic" transform="matrix(1, 0, 0, 1, 0.5, 0.5)" stroke-opacity="0" stroke-linejoin="bevel" stroke-miterlimit="10">2090</text><text fill="rgb(68,68,68)" stroke="none" font-family="helvetica" font-size="10pt" font-style="normal" font-weight="normal" text-decoration="normal" x="342.1730041503906" y="341.56141090393066" text-anchor="start" dominant-baseline="alphabetic" transform="matrix(1, 0, 0, 1, 0.5, 0.5)" fill-opacity="1">2100</text><text fill="none" stroke="rgb(0,0,0)" font-family="helvetica" font-size="10pt" font-style="normal" font-weight="normal" text-decoration="normal" x="342.1730041503906" y="341.56141090393066" text-anchor="start" dominant-baseline="alphabetic" transform="matrix(1, 0, 0, 1, 0.5, 0.5)" stroke-opacity="0" stroke-linejoin="bevel" stroke-miterlimit="10">2100</text><text fill="rgb(68,68,68)" stroke="none" font-family="helvetica" font-size="12pt" font-style="normal" font-weight="normal" text-decoration="normal" x="207" y="361.03797340393066" text-anchor="start" dominant-baseline="alphabetic" transform="matrix(1, 0, 0, 1, 0.5, 0.5)" fill-opacity="1"></text><text fill="none" stroke="rgb(0,0,0)" font-family="helvetica" font-size="12pt" font-style="normal" font-weight="normal" text-decoration="normal" x="207" y="361.03797340393066" text-anchor="start" dominant-baseline="alphabetic" transform="matrix(1, 0, 0, 1, 0.5, 0.5)" stroke-opacity="0" stroke-linejoin="bevel" stroke-miterlimit="10"></text><path fill="none" stroke="rgb(0,0,0)" paint-order="fill" d="M 57.5 321.5 L 57.5 21.5" stroke-opacity="1" stroke-linejoin="bevel" stroke-miterlimit="10"/><path fill="none" stroke="rgb(0,0,0)" paint-order="fill" d="M 51.5 321.5 L 59.5 321.5 M 51.5 262.5 L 59.5 262.5 M 51.5 203.5 L 59.5 203.5 M 51.5 145.5 L 59.5 145.5 M 51.5 86.5 L 59.5 86.5 M 51.5 27.5 L 59.5 27.5" stroke-opacity="1" stroke-linejoin="bevel" stroke-miterlimit="10"/><path fill="none" stroke="rgb(0,0,0)" paint-order="fill" d="" stroke-opacity="1" stroke-linejoin="bevel" stroke-miterlimit="10"/><text fill="rgb(68,68,68)" stroke="none" font-family="helvetica" font-size="10pt" font-style="normal" font-weight="normal" text-decoration="normal" x="38.58650207519531" y="325.78070545196533" text-anchor="start" dominant-baseline="alphabetic" transform="matrix(1, 0, 0, 1, 0.5, 0.5)" fill-opacity="1">0</text><text fill="none" stroke="rgb(0,0,0)" font-family="helvetica" font-size="10pt" font-style="normal" font-weight="normal" text-decoration="normal" x="38.58650207519531" y="325.78070545196533" text-anchor="start" dominant-baseline="alphabetic" transform="matrix(1, 0, 0, 1, 0.5, 0.5)" stroke-opacity="0" stroke-linejoin="bevel" stroke-miterlimit="10">0</text><text fill="rgb(68,68,68)" stroke="none" font-family="helvetica" font-size="10pt" font-style="normal" font-weight="normal" text-decoration="normal" x="38.58650207519531" y="266.9571886062622" text-anchor="start" dominant-baseline="alphabetic" transform="matrix(1, 0, 0, 1, 0.5, 0.5)" fill-opacity="1">1</text><text fill="none" stroke="rgb(0,0,0)" font-family="helvetica" font-size="10pt" font-style="normal" font-weight="normal" text-decoration="normal" x="38.58650207519531" y="266.9571886062622" text-anchor="start" dominant-baseline="alphabetic" transform="matrix(1, 0, 0, 1, 0.5, 0.5)" stroke-opacity="0" stroke-linejoin="bevel" stroke-miterlimit="10">1</text><text fill="rgb(68,68,68)" stroke="none" font-family="helvetica" font-size="10pt" font-style="normal" font-weight="normal" text-decoration="normal" x="38.58650207519531" y="208.13364124298096" text-anchor="start" dominant-baseline="alphabetic" transform="matrix(1, 0, 0, 1, 0.5, 0.5)" fill-opacity="1">2</text><text fill="none" stroke="rgb(0,0,0)" font-family="helvetica" font-size="10pt" font-style="normal" font-weight="normal" text-decoration="normal" x="38.58650207519531" y="208.13364124298096" text-anchor="start" dominant-baseline="alphabetic" transform="matrix(1, 0, 0, 1, 0.5, 0.5)" stroke-opacity="0" stroke-linejoin="bevel" stroke-miterlimit="10">2</text><text fill="rgb(68,68,68)" stroke="none" font-family="helvetica" font-size="10pt" font-style="normal" font-weight="normal" text-decoration="normal" x="38.58650207519531" y="149.31012439727783" text-anchor="start" dominant-baseline="alphabetic" transform="matrix(1, 0, 0, 1, 0.5, 0.5)" fill-opacity="1">3</text><text fill="none" stroke="rgb(0,0,0)" font-family="helvetica" font-size="10pt" font-style="normal" font-weight="normal" text-decoration="normal" x="38.58650207519531" y="149.31012439727783" text-anchor="start" dominant-baseline="alphabetic" transform="matrix(1, 0, 0, 1, 0.5, 0.5)" stroke-opacity="0" stroke-linejoin="bevel" stroke-miterlimit="10">3</text><text fill="rgb(68,68,68)" stroke="none" font-family="helvetica" font-size="10pt" font-style="normal" font-weight="normal" text-decoration="normal" x="38.58650207519531" y="90.48658466339111" text-anchor="start" dominant-baseline="alphabetic" transform="matrix(1, 0, 0, 1, 0.5, 0.5)" fill-opacity="1">4</text><text fill="none" stroke="rgb(0,0,0)" font-family="helvetica" font-size="10pt" font-style="normal" font-weight="normal" text-decoration="normal" x="38.58650207519531" y="90.48658466339111" text-anchor="start" dominant-baseline="alphabetic" transform="matrix(1, 0, 0, 1, 0.5, 0.5)" stroke-opacity="0" stroke-linejoin="bevel" stroke-miterlimit="10">4</text><text fill="rgb(68,68,68)" stroke="none" font-family="helvetica" font-size="10pt" font-style="normal" font-weight="normal" text-decoration="normal" x="38.58650207519531" y="31.663058280944824" text-anchor="start" dominant-baseline="alphabetic" transform="matrix(1, 0, 0, 1, 0.5, 0.5)" fill-opacity="1">5</text><text fill="none" stroke="rgb(0,0,0)" font-family="helvetica" font-size="10pt" font-style="normal" font-weight="normal" text-decoration="normal" x="38.58650207519531" y="31.663058280944824" text-anchor="start" dominant-baseline="alphabetic" transform="matrix(1, 0, 0, 1, 0.5, 0.5)" stroke-opacity="0" stroke-linejoin="bevel" stroke-miterlimit="10">5</text><text fill="rgb(68,68,68)" stroke="none" font-family="helvetica" font-size="12pt" font-style="normal" font-weight="normal" text-decoration="normal" x="-96.07365417480469" y="167" text-anchor="start" dominant-baseline="alphabetic" transform="matrix(6.123233995736766e-17, -1, 1, 6.123233995736766e-17, -139.9134979248047, 202.0865020751953)" fill-opacity="1">Variance of mean temperature (°C²)</text><text fill="none" stroke="rgb(0,0,0)" font-family="helvetica" font-size="12pt" font-style="normal" font-weight="normal" text-decoration="normal" x="-96.07365417480469" y="167" text-anchor="start" dominant-baseline="alphabetic" transform="matrix(6.123233995736766e-17, -1, 1, 6.123233995736766e-17, -139.9134979248047, 202.0865020751953)" stroke-opacity="0" stroke-linejoin="bevel" stroke-miterlimit="10">Variance of mean temperature (°C²)</text><path fill="rgb(255,255,255)" stroke="rgb(229,229,229)" paint-order="fill" d="M 67.5 31.5 L 234.5 31.5 L 234.5 117.5 L 67.5 117.5 L 67.5 31.5 Z" fill-opacity="0.9490196078431372" clip-path="url(#LBclxcgkCuDc)" stroke-opacity="0.5019607843137255" stroke-linejoin="bevel" stroke-miterlimit="10"/><path fill="rgb(48,162,218)" stroke="rgb(0,0,0)" paint-order="fill" d="M 79.5 43.5 L 95.5 43.5 L 95.5 59.5 L 79.5 59.5 L 79.5 43.5 Z" fill-opacity="1" clip-path="url(#LBclxcgkCuDc)" stroke-opacity="1" stroke-linejoin="bevel" stroke-miterlimit="10"/><g clip-path="url(#LBclxcgkCuDc)"><text fill="rgb(68,68,68)" stroke="none" font-family="helvetica" font-size="10pt" font-style="normal" font-weight="normal" text-decoration="normal" x="0" y="4.5" text-anchor="start" dominant-baseline="alphabetic" transform="matrix(1, 0, 0, 1, 102.5, 51.5)" fill-opacity="1">Internal variability</text></g><g clip-path="url(#LBclxcgkCuDc)"><text fill="none" stroke="rgb(0,0,0)" font-family="helvetica" font-size="10pt" font-style="normal" font-weight="normal" text-decoration="normal" x="0" y="4.5" text-anchor="start" dominant-baseline="alphabetic" transform="matrix(1, 0, 0, 1, 102.5, 51.5)" stroke-opacity="0" stroke-linejoin="bevel" stroke-miterlimit="10">Internal variability</text></g><path fill="rgb(252,79,48)" stroke="rgb(0,0,0)" paint-order="fill" d="M 79.5 66.5 L 95.5 66.5 L 95.5 82.5 L 79.5 82.5 L 79.5 66.5 Z" fill-opacity="1" clip-path="url(#LBclxcgkCuDc)" stroke-opacity="1" stroke-linejoin="bevel" stroke-miterlimit="10"/><g clip-path="url(#LBclxcgkCuDc)"><text fill="rgb(68,68,68)" stroke="none" font-family="helvetica" font-size="10pt" font-style="normal" font-weight="normal" text-decoration="normal" x="0" y="4.5" text-anchor="start" dominant-baseline="alphabetic" transform="matrix(1, 0, 0, 1, 102.5, 74.5)" fill-opacity="1">Model uncertainty</text></g><g clip-path="url(#LBclxcgkCuDc)"><text fill="none" stroke="rgb(0,0,0)" font-family="helvetica" font-size="10pt" font-style="normal" font-weight="normal" text-decoration="normal" x="0" y="4.5" text-anchor="start" dominant-baseline="alphabetic" transform="matrix(1, 0, 0, 1, 102.5, 74.5)" stroke-opacity="0" stroke-linejoin="bevel" stroke-miterlimit="10">Model uncertainty</text></g><path fill="rgb(229,174,56)" stroke="rgb(0,0,0)" paint-order="fill" d="M 79.5 89.5 L 95.5 89.5 L 95.5 105.5 L 79.5 105.5 L 79.5 89.5 Z" fill-opacity="1" clip-path="url(#LBclxcgkCuDc)" stroke-opacity="1" stroke-linejoin="bevel" stroke-miterlimit="10"/><g clip-path="url(#LBclxcgkCuDc)"><text fill="rgb(68,68,68)" stroke="none" font-family="helvetica" font-size="10pt" font-style="normal" font-weight="normal" text-decoration="normal" x="0" y="4.5" text-anchor="start" dominant-baseline="alphabetic" transform="matrix(1, 0, 0, 1, 102.5, 97.5)" fill-opacity="1">Scenario uncertainty</text></g><g clip-path="url(#LBclxcgkCuDc)"><text fill="none" stroke="rgb(0,0,0)" font-family="helvetica" font-size="10pt" font-style="normal" font-weight="normal" text-decoration="normal" x="0" y="4.5" text-anchor="start" dominant-baseline="alphabetic" transform="matrix(1, 0, 0, 1, 102.5, 97.5)" stroke-opacity="0" stroke-linejoin="bevel" stroke-miterlimit="10">Scenario uncertainty</text></g><text fill="rgb(68,68,68)" stroke="none" font-family="helvetica" font-size="16pt" font-style="normal" font-weight="normal" text-decoration="normal" x="0" y="19" text-anchor="start" dominant-baseline="alphabetic" transform="matrix(1, 0, 0, 1, 2.346923828125, 0)" fill-opacity="1">A.</text><text fill="none" stroke="rgb(0,0,0)" font-family="helvetica" font-size="16pt" font-style="normal" font-weight="normal" text-decoration="normal" x="0" y="19" text-anchor="start" dominant-baseline="alphabetic" transform="matrix(1, 0, 0, 1, 2.346923828125, 0)" stroke-opacity="0" stroke-miterlimit="10" stroke-dasharray="">A.</text><g transform="matrix(1, 0, 0, 1, 375, 0)"><path fill="none" stroke="rgb(229,229,229)" paint-order="fill" d="M 59.5 21.5 L 359.5 21.5 L 359.5 321.5 L 59.5 321.5 L 59.5 21.5 Z" stroke-opacity="1" stroke-linejoin="bevel" stroke-miterlimit="10"/><path fill="rgb(48,162,218)" stroke="rgb(0,0,0)" paint-order="fill" d="M 59.5 321.5 L 63.78571319580078 321.5 L 68.07142639160156 321.5 L 72.35713958740234 321.5 L 76.64286041259766 321.5 L 80.92857360839844 321.5 L 85.21428680419922 321.5 L 89.5 321.5 L 93.78571319580078 321.5 L 98.07142639160156 321.5 L 102.35713958740234 321.5 L 106.64286041259766 321.5 L 110.92857360839844 321.5 L 115.21428680419922 321.5 L 119.5 321.5 L 123.78571319580078 321.5 L 128.07142639160156 321.5 L 132.35714721679688 321.5 L 136.64285278320312 321.5 L 140.92857360839844 321.5 L 145.2142791748047 321.5 L 149.5 321.5 L 153.7857208251953 321.5 L 158.07142639160156 321.5 L 162.35714721679688 321.5 L 166.64285278320312 321.5 L 170.92857360839844 321.5 L 175.2142791748047 321.5 L 179.5 321.5 L 183.7857208251953 321.5 L 188.07142639160156 321.5 L 192.35714721679688 321.5 L 196.64285278320312 321.5 L 200.92857360839844 321.5 L 205.2142791748047 321.5 L 209.5 321.5 L 213.7857208251953 321.5 L 218.07142639160156 321.5 L 222.35714721679688 321.5 L 226.64285278320312 321.5 L 230.92857360839844 321.5 L 235.2142791748047 321.5 L 239.5 321.5 L 243.7857208251953 321.5 L 248.07142639160156 321.5 L 252.35714721679688 321.5 L 256.6428527832031 321.5 L 260.9285583496094 321.5 L 265.21429443359375 321.5 L 269.5 321.5 L 273.78570556640625 321.5 L 278.0714416503906 321.5 L 282.3571472167969 321.5 L 286.6428527832031 321.5 L 290.9285583496094 321.5 L 295.21429443359375 321.5 L 299.5 321.5 L 303.78570556640625 321.5 L 308.0714416503906 321.5 L 312.3571472167969 321.5 L 316.6428527832031 321.5 L 320.9285583496094 321.5 L 325.21429443359375 321.5 L 329.5 321.5 L 333.78570556640625 321.5 L 338.0714416503906 321.5 L 342.3571472167969 321.5 L 346.6428527832031 321.5 L 350.9285583496094 321.5 L 355.21429443359375 321.5 L 359.5 321.5 L 359.5 252.0202178955078 L 355.21429443359375 252.0202178955078 L 350.9285583496094 252.0202178955078 L 346.6428527832031 252.0202178955078 L 342.3571472167969 252.0202178955078 L 338.0714416503906 252.0202178955078 L 333.78570556640625 252.0202178955078 L 329.5 252.0202178955078 L 325.21429443359375 252.0202178955078 L 320.9285583496094 252.0202178955078 L 316.6428527832031 252.0202178955078 L 312.3571472167969 252.0202178955078 L 308.0714416503906 252.0202178955078 L 303.78570556640625 252.0202178955078 L 299.5 252.0202178955078 L 295.21429443359375 252.0202178955078 L 290.9285583496094 252.0202178955078 L 286.6428527832031 252.0202178955078 L 282.3571472167969 252.0202178955078 L 278.0714416503906 252.0202178955078 L 273.78570556640625 252.0202178955078 L 269.5 252.0202178955078 L 265.21429443359375 252.0202178955078 L 260.9285583496094 252.0202178955078 L 256.6428527832031 252.0202178955078 L 252.35714721679688 252.0202178955078 L 248.07142639160156 252.0202178955078 L 243.7857208251953 252.0202178955078 L 239.5 252.0202178955078 L 235.2142791748047 252.0202178955078 L 230.92857360839844 252.0202178955078 L 226.64285278320312 252.0202178955078 L 222.35714721679688 252.0202178955078 L 218.07142639160156 252.0202178955078 L 213.7857208251953 252.0202178955078 L 209.5 252.0202178955078 L 205.2142791748047 252.0202178955078 L 200.92857360839844 252.0202178955078 L 196.64285278320312 252.0202178955078 L 192.35714721679688 252.0202178955078 L 188.07142639160156 252.0202178955078 L 183.7857208251953 252.0202178955078 L 179.5 252.0202178955078 L 175.2142791748047 252.0202178955078 L 170.92857360839844 252.0202178955078 L 166.64285278320312 252.0202178955078 L 162.35714721679688 252.0202178955078 L 158.07142639160156 252.0202178955078 L 153.7857208251953 252.0202178955078 L 149.5 252.0202178955078 L 145.2142791748047 252.0202178955078 L 140.92857360839844 252.0202178955078 L 136.64285278320312 252.0202178955078 L 132.35714721679688 252.0202178955078 L 128.07142639160156 252.0202178955078 L 123.78571319580078 252.0202178955078 L 119.5 252.0202178955078 L 115.21428680419922 252.0202178955078 L 110.92857360839844 252.0202178955078 L 106.64286041259766 252.0202178955078 L 102.35713958740234 252.0202178955078 L 98.07142639160156 252.0202178955078 L 93.78571319580078 252.0202178955078 L 89.5 252.0202178955078 L 85.21428680419922 252.0202178955078 L 80.92857360839844 252.0202178955078 L 76.64286041259766 252.0202178955078 L 72.35713958740234 252.0202178955078 L 68.07142639160156 252.0202178955078 L 63.78571319580078 252.0202178955078 L 59.5 252.0202178955078 Z" fill-opacity="1" clip-path="url(#GIDbycNNsmRh)" stroke-opacity="1" stroke-linejoin="bevel" stroke-miterlimit="10"/><path fill="rgb(252,79,48)" stroke="rgb(0,0,0)" paint-order="fill" d="M 59.5 252.0202178955078 L 63.78571319580078 252.0202178955078 L 68.07142639160156 252.0202178955078 L 72.35713958740234 252.0202178955078 L 76.64286041259766 252.0202178955078 L 80.92857360839844 252.0202178955078 L 85.21428680419922 252.0202178955078 L 89.5 252.0202178955078 L 93.78571319580078 252.0202178955078 L 98.07142639160156 252.0202178955078 L 102.35713958740234 252.0202178955078 L 106.64286041259766 252.0202178955078 L 110.92857360839844 252.0202178955078 L 115.21428680419922 252.0202178955078 L 119.5 252.0202178955078 L 123.78571319580078 252.0202178955078 L 128.07142639160156 252.0202178955078 L 132.35714721679688 252.0202178955078 L 136.64285278320312 252.0202178955078 L 140.92857360839844 252.0202178955078 L 145.2142791748047 252.0202178955078 L 149.5 252.0202178955078 L 153.7857208251953 252.0202178955078 L 158.07142639160156 252.0202178955078 L 162.35714721679688 252.0202178955078 L 166.64285278320312 252.0202178955078 L 170.92857360839844 252.0202178955078 L 175.2142791748047 252.0202178955078 L 179.5 252.0202178955078 L 183.7857208251953 252.0202178955078 L 188.07142639160156 252.0202178955078 L 192.35714721679688 252.0202178955078 L 196.64285278320312 252.0202178955078 L 200.92857360839844 252.0202178955078 L 205.2142791748047 252.0202178955078 L 209.5 252.0202178955078 L 213.7857208251953 252.0202178955078 L 218.07142639160156 252.0202178955078 L 222.35714721679688 252.0202178955078 L 226.64285278320312 252.0202178955078 L 230.92857360839844 252.0202178955078 L 235.2142791748047 252.0202178955078 L 239.5 252.0202178955078 L 243.7857208251953 252.0202178955078 L 248.07142639160156 252.0202178955078 L 252.35714721679688 252.0202178955078 L 256.6428527832031 252.0202178955078 L 260.9285583496094 252.0202178955078 L 265.21429443359375 252.0202178955078 L 269.5 252.0202178955078 L 273.78570556640625 252.0202178955078 L 278.0714416503906 252.0202178955078 L 282.3571472167969 252.0202178955078 L 286.6428527832031 252.0202178955078 L 290.9285583496094 252.0202178955078 L 295.21429443359375 252.0202178955078 L 299.5 252.0202178955078 L 303.78570556640625 252.0202178955078 L 308.0714416503906 252.0202178955078 L 312.3571472167969 252.0202178955078 L 316.6428527832031 252.0202178955078 L 320.9285583496094 252.0202178955078 L 325.21429443359375 252.0202178955078 L 329.5 252.0202178955078 L 333.78570556640625 252.0202178955078 L 338.0714416503906 252.0202178955078 L 342.3571472167969 252.0202178955078 L 346.6428527832031 252.0202178955078 L 350.9285583496094 252.0202178955078 L 355.21429443359375 252.0202178955078 L 359.5 252.0202178955078 L 359.5 183.90895080566406 L 355.21429443359375 187.45272827148438 L 350.9285583496094 190.2869415283203 L 346.6428527832031 192.52645874023438 L 342.3571472167969 194.2734832763672 L 338.0714416503906 195.618408203125 L 333.78570556640625 196.6405792236328 L 329.5 197.4091796875 L 325.21429443359375 197.98399353027344 L 320.9285583496094 198.41610717773438 L 316.6428527832031 198.74864196777344 L 312.3571472167969 199.0175018310547 L 308.0714416503906 199.25196838378906 L 303.78570556640625 199.4753875732422 L 299.5 199.7057647705078 L 295.21429443359375 199.9563446044922 L 290.9285583496094 200.23622131347656 L 286.6428527832031 200.55079650878906 L 282.3571472167969 200.90231323242188 L 278.0714416503906 201.29037475585938 L 273.78570556640625 201.7123260498047 L 269.5 202.1637420654297 L 265.21429443359375 202.63880920410156 L 260.9285583496094 203.13064575195312 L 256.6428527832031 203.63172912597656 L 252.35714721679688 204.13414001464844 L 248.07142639160156 204.62989807128906 L 243.7857208251953 205.11123657226562 L 239.5 205.5707550048828 L 235.2142791748047 206.0017547607422 L 230.92857360839844 206.39830017089844 L 226.64285278320312 206.75546264648438 L 222.35714721679688 207.06939697265625 L 218.07142639160156 207.33749389648438 L 213.7857208251953 207.55838012695312 L 209.5 207.7320556640625 L 205.2142791748047 207.85983276367188 L 200.92857360839844 207.94439697265625 L 196.64285278320312 207.98973083496094 L 192.35714721679688 208.00106811523438 L 188.07142639160156 207.9848175048828 L 183.7857208251953 207.94845581054688 L 179.5 207.90032958984375 L 175.2142791748047 207.84957885742188 L 170.92857360839844 207.8058624267578 L 166.64285278320312 207.77920532226562 L 162.35714721679688 207.77967834472656 L 158.07142639160156 207.81719970703125 L 153.7857208251953 207.9011688232422 L 149.5 208.04017639160156 L 145.2142791748047 208.2416229248047 L 140.92857360839844 208.5113983154297 L 136.64285278320312 208.85337829589844 L 132.35714721679688 209.26904296875 L 128.07142639160156 209.75701904296875 L 123.78571319580078 210.31259155273438 L 119.5 210.92715454101562 L 115.21428680419922 211.58767700195312 L 110.92857360839844 212.2761688232422 L 106.64286041259766 212.96905517578125 L 102.35713958740234 213.6365203857422 L 98.07142639160156 214.24192810058594 L 93.78571319580078 214.74110412597656 L 89.5 215.08160400390625 L 85.21428680419922 215.2020263671875 L 80.92857360839844 215.03123474121094 L 76.64286041259766 214.4875946044922 L 72.35713958740234 213.47811889648438 L 68.07142639160156 211.89764404296875 L 63.78571319580078 209.62799072265625 L 59.5 206.5370330810547 Z" fill-opacity="1" clip-path="url(#ALhxLyMGyKAA)" stroke-opacity="1" stroke-linejoin="bevel" stroke-miterlimit="10"/><path fill="rgb(229,174,56)" stroke="rgb(0,0,0)" paint-order="fill" d="M 59.5 206.5370330810547 L 63.78571319580078 209.62799072265625 L 68.07142639160156 211.89764404296875 L 72.35713958740234 213.47811889648438 L 76.64286041259766 214.4875946044922 L 80.92857360839844 215.03123474121094 L 85.21428680419922 215.2020263671875 L 89.5 215.08160400390625 L 93.78571319580078 214.74110412597656 L 98.07142639160156 214.24192810058594 L 102.35713958740234 213.6365203857422 L 106.64286041259766 212.96905517578125 L 110.92857360839844 212.2761688232422 L 115.21428680419922 211.58767700195312 L 119.5 210.92715454101562 L 123.78571319580078 210.31259155273438 L 128.07142639160156 209.75701904296875 L 132.35714721679688 209.26904296875 L 136.64285278320312 208.85337829589844 L 140.92857360839844 208.5113983154297 L 145.2142791748047 208.2416229248047 L 149.5 208.04017639160156 L 153.7857208251953 207.9011688232422 L 158.07142639160156 207.81719970703125 L 162.35714721679688 207.77967834472656 L 166.64285278320312 207.77920532226562 L 170.92857360839844 207.8058624267578 L 175.2142791748047 207.84957885742188 L 179.5 207.90032958984375 L 183.7857208251953 207.94845581054688 L 188.07142639160156 207.9848175048828 L 192.35714721679688 208.00106811523438 L 196.64285278320312 207.98973083496094 L 200.92857360839844 207.94439697265625 L 205.2142791748047 207.85983276367188 L 209.5 207.7320556640625 L 213.7857208251953 207.55838012695312 L 218.07142639160156 207.33749389648438 L 222.35714721679688 207.06939697265625 L 226.64285278320312 206.75546264648438 L 230.92857360839844 206.39830017089844 L 235.2142791748047 206.0017547607422 L 239.5 205.5707550048828 L 243.7857208251953 205.11123657226562 L 248.07142639160156 204.62989807128906 L 252.35714721679688 204.13414001464844 L 256.6428527832031 203.63172912597656 L 260.9285583496094 203.13064575195312 L 265.21429443359375 202.63880920410156 L 269.5 202.1637420654297 L 273.78570556640625 201.7123260498047 L 278.0714416503906 201.29037475585938 L 282.3571472167969 200.90231323242188 L 286.6428527832031 200.55079650878906 L 290.9285583496094 200.23622131347656 L 295.21429443359375 199.9563446044922 L 299.5 199.7057647705078 L 303.78570556640625 199.4753875732422 L 308.0714416503906 199.25196838378906 L 312.3571472167969 199.0175018310547 L 316.6428527832031 198.74864196777344 L 320.9285583496094 198.41610717773438 L 325.21429443359375 197.98399353027344 L 329.5 197.4091796875 L 333.78570556640625 196.6405792236328 L 338.0714416503906 195.618408203125 L 342.3571472167969 194.2734832763672 L 346.6428527832031 192.52645874023438 L 350.9285583496094 190.2869415283203 L 355.21429443359375 187.45272827148438 L 359.5 183.90895080566406 L 359.5 53.23222732543945 L 355.21429443359375 61.01468276977539 L 350.9285583496094 68.0260238647461 L 346.6428527832031 74.38069152832031 L 342.3571472167969 80.18035888671875 L 338.0714416503906 85.51477813720703 L 333.78570556640625 90.46266174316406 L 329.5 95.09246063232422 L 325.21429443359375 99.46315002441406 L 320.9285583496094 103.62501525878906 L 316.6428527832031 107.62034606933594 L 312.3571472167969 111.4841537475586 L 308.0714416503906 115.24486541748047 L 303.78570556640625 118.9249267578125 L 299.5 122.54146575927734 L 295.21429443359375 126.10688018798828 L 290.9285583496094 129.62937927246094 L 286.6428527832031 133.11355590820312 L 282.3571472167969 136.5608673095703 L 278.0714416503906 139.97012329101562 L 273.78570556640625 143.33799743652344 L 269.5 146.6593780517578 L 265.21429443359375 149.92784118652344 L 260.9285583496094 153.1359405517578 L 256.6428527832031 156.2756805419922 L 252.35714721679688 159.33872985839844 L 248.07142639160156 162.31675720214844 L 243.7857208251953 165.20169067382812 L 239.5 167.98597717285156 L 235.2142791748047 170.66278076171875 L 230.92857360839844 173.2261505126953 L 226.64285278320312 175.67123413085938 L 222.35714721679688 177.99432373046875 L 218.07142639160156 180.19305419921875 L 213.7857208251953 182.26641845703125 L 209.5 184.21481323242188 L 205.2142791748047 186.04010009765625 L 200.92857360839844 187.74557495117188 L 196.64285278320312 189.33596801757812 L 192.35714721679688 190.8173370361328 L 188.07142639160156 192.19699096679688 L 183.7857208251953 193.48341369628906 L 179.5 194.68609619140625 L 175.2142791748047 195.81533813476562 L 170.92857360839844 196.88214111328125 L 166.64285278320312 197.89788818359375 L 162.35714721679688 198.87416076660156 L 158.07142639160156 199.82240295410156 L 153.7857208251953 200.75367736816406 L 149.5 201.67832946777344 L 145.2142791748047 202.6055450439453 L 140.92857360839844 203.54310607910156 L 136.64285278320312 204.49684143066406 L 132.35714721679688 205.47024536132812 L 128.07142639160156 206.46405029296875 L 123.78571319580078 207.47564697265625 L 119.5 208.4986572265625 L 115.21428680419922 209.5222625732422 L 110.92857360839844 210.53076171875 L 106.64286041259766 211.50289916992188 L 102.35713958740234 212.41119384765625 L 98.07142639160156 213.2213897705078 L 93.78571319580078 213.8916778564453 L 89.5 214.3719940185547 L 85.21428680419922 214.6033477783203 L 80.92857360839844 214.51698303222656 L 76.64286041259766 214.0336151123047 L 72.35713958740234 213.06259155273438 L 68.07142639160156 211.50108337402344 L 63.78571319580078 209.233154296875 L 59.5 206.12892150878906 Z" fill-opacity="1" clip-path="url(#xwDkFeENiHNZ)" stroke-opacity="1" stroke-linejoin="bevel" stroke-miterlimit="10"/><path fill="none" stroke="rgb(0,0,0)" paint-order="fill" d="M 59.5 321.5 L 359.5 321.5" stroke-opacity="1" stroke-linejoin="bevel" stroke-miterlimit="10"/><path fill="none" stroke="rgb(0,0,0)" paint-order="fill" d="M 59.5 327.5 L 59.5 319.5 M 102.5 327.5 L 102.5 319.5 M 145.5 327.5 L 145.5 319.5 M 188.5 327.5 L 188.5 319.5 M 230.5 327.5 L 230.5 319.5 M 273.5 327.5 L 273.5 319.5 M 316.5 327.5 L 316.5 319.5 M 359.5 327.5 L 359.5 319.5" stroke-opacity="1" stroke-linejoin="bevel" stroke-miterlimit="10"/><path fill="none" stroke="rgb(0,0,0)" paint-order="fill" d="" stroke-opacity="1" stroke-linejoin="bevel" stroke-miterlimit="10"/><text fill="rgb(68,68,68)" stroke="none" font-family="helvetica" font-size="10pt" font-style="normal" font-weight="normal" text-decoration="normal" x="44.173004150390625" y="341.56141090393066" text-anchor="start" dominant-baseline="alphabetic" transform="matrix(1, 0, 0, 1, 0.5, 0.5)" fill-opacity="1">2030</text><text fill="none" stroke="rgb(0,0,0)" font-family="helvetica" font-size="10pt" font-style="normal" font-weight="normal" text-decoration="normal" x="44.173004150390625" y="341.56141090393066" text-anchor="start" dominant-baseline="alphabetic" transform="matrix(1, 0, 0, 1, 0.5, 0.5)" stroke-opacity="0" stroke-linejoin="bevel" stroke-miterlimit="10">2030</text><text fill="rgb(68,68,68)" stroke="none" font-family="helvetica" font-size="10pt" font-style="normal" font-weight="normal" text-decoration="normal" x="87.03014373779297" y="341.56141090393066" text-anchor="start" dominant-baseline="alphabetic" transform="matrix(1, 0, 0, 1, 0.5, 0.5)" fill-opacity="1">2040</text><text fill="none" stroke="rgb(0,0,0)" font-family="helvetica" font-size="10pt" font-style="normal" font-weight="normal" text-decoration="normal" x="87.03014373779297" y="341.56141090393066" text-anchor="start" dominant-baseline="alphabetic" transform="matrix(1, 0, 0, 1, 0.5, 0.5)" stroke-opacity="0" stroke-linejoin="bevel" stroke-miterlimit="10">2040</text><text fill="rgb(68,68,68)" stroke="none" font-family="helvetica" font-size="10pt" font-style="normal" font-weight="normal" text-decoration="normal" x="129.8872833251953" y="341.56141090393066" text-anchor="start" dominant-baseline="alphabetic" transform="matrix(1, 0, 0, 1, 0.5, 0.5)" fill-opacity="1">2050</text><text fill="none" stroke="rgb(0,0,0)" font-family="helvetica" font-size="10pt" font-style="normal" font-weight="normal" text-decoration="normal" x="129.8872833251953" y="341.56141090393066" text-anchor="start" dominant-baseline="alphabetic" transform="matrix(1, 0, 0, 1, 0.5, 0.5)" stroke-opacity="0" stroke-linejoin="bevel" stroke-miterlimit="10">2050</text><text fill="rgb(68,68,68)" stroke="none" font-family="helvetica" font-size="10pt" font-style="normal" font-weight="normal" text-decoration="normal" x="172.7444305419922" y="341.56141090393066" text-anchor="start" dominant-baseline="alphabetic" transform="matrix(1, 0, 0, 1, 0.5, 0.5)" fill-opacity="1">2060</text><text fill="none" stroke="rgb(0,0,0)" font-family="helvetica" font-size="10pt" font-style="normal" font-weight="normal" text-decoration="normal" x="172.7444305419922" y="341.56141090393066" text-anchor="start" dominant-baseline="alphabetic" transform="matrix(1, 0, 0, 1, 0.5, 0.5)" stroke-opacity="0" stroke-linejoin="bevel" stroke-miterlimit="10">2060</text><text fill="rgb(68,68,68)" stroke="none" font-family="helvetica" font-size="10pt" font-style="normal" font-weight="normal" text-decoration="normal" x="215.60157775878906" y="341.56141090393066" text-anchor="start" dominant-baseline="alphabetic" transform="matrix(1, 0, 0, 1, 0.5, 0.5)" fill-opacity="1">2070</text><text fill="none" stroke="rgb(0,0,0)" font-family="helvetica" font-size="10pt" font-style="normal" font-weight="normal" text-decoration="normal" x="215.60157775878906" y="341.56141090393066" text-anchor="start" dominant-baseline="alphabetic" transform="matrix(1, 0, 0, 1, 0.5, 0.5)" stroke-opacity="0" stroke-linejoin="bevel" stroke-miterlimit="10">2070</text><text fill="rgb(68,68,68)" stroke="none" font-family="helvetica" font-size="10pt" font-style="normal" font-weight="normal" text-decoration="normal" x="258.4587097167969" y="341.56141090393066" text-anchor="start" dominant-baseline="alphabetic" transform="matrix(1, 0, 0, 1, 0.5, 0.5)" fill-opacity="1">2080</text><text fill="none" stroke="rgb(0,0,0)" font-family="helvetica" font-size="10pt" font-style="normal" font-weight="normal" text-decoration="normal" x="258.4587097167969" y="341.56141090393066" text-anchor="start" dominant-baseline="alphabetic" transform="matrix(1, 0, 0, 1, 0.5, 0.5)" stroke-opacity="0" stroke-linejoin="bevel" stroke-miterlimit="10">2080</text><text fill="rgb(68,68,68)" stroke="none" font-family="helvetica" font-size="10pt" font-style="normal" font-weight="normal" text-decoration="normal" x="301.31585693359375" y="341.56141090393066" text-anchor="start" dominant-baseline="alphabetic" transform="matrix(1, 0, 0, 1, 0.5, 0.5)" fill-opacity="1">2090</text><text fill="none" stroke="rgb(0,0,0)" font-family="helvetica" font-size="10pt" font-style="normal" font-weight="normal" text-decoration="normal" x="301.31585693359375" y="341.56141090393066" text-anchor="start" dominant-baseline="alphabetic" transform="matrix(1, 0, 0, 1, 0.5, 0.5)" stroke-opacity="0" stroke-linejoin="bevel" stroke-miterlimit="10">2090</text><text fill="rgb(68,68,68)" stroke="none" font-family="helvetica" font-size="10pt" font-style="normal" font-weight="normal" text-decoration="normal" x="344.1730041503906" y="341.56141090393066" text-anchor="start" dominant-baseline="alphabetic" transform="matrix(1, 0, 0, 1, 0.5, 0.5)" fill-opacity="1">2100</text><text fill="none" stroke="rgb(0,0,0)" font-family="helvetica" font-size="10pt" font-style="normal" font-weight="normal" text-decoration="normal" x="344.1730041503906" y="341.56141090393066" text-anchor="start" dominant-baseline="alphabetic" transform="matrix(1, 0, 0, 1, 0.5, 0.5)" stroke-opacity="0" stroke-linejoin="bevel" stroke-miterlimit="10">2100</text><text fill="rgb(68,68,68)" stroke="none" font-family="helvetica" font-size="12pt" font-style="normal" font-weight="normal" text-decoration="normal" x="209" y="361.03797340393066" text-anchor="start" dominant-baseline="alphabetic" transform="matrix(1, 0, 0, 1, 0.5, 0.5)" fill-opacity="1"></text><text fill="none" stroke="rgb(0,0,0)" font-family="helvetica" font-size="12pt" font-style="normal" font-weight="normal" text-decoration="normal" x="209" y="361.03797340393066" text-anchor="start" dominant-baseline="alphabetic" transform="matrix(1, 0, 0, 1, 0.5, 0.5)" stroke-opacity="0" stroke-linejoin="bevel" stroke-miterlimit="10"></text><path fill="none" stroke="rgb(0,0,0)" paint-order="fill" d="M 59.5 321.5 L 59.5 21.5" stroke-opacity="1" stroke-linejoin="bevel" stroke-miterlimit="10"/><path fill="none" stroke="rgb(0,0,0)" paint-order="fill" d="M 53.5 321.5 L 61.5 321.5 M 53.5 246.5 L 61.5 246.5 M 53.5 171.5 L 61.5 171.5 M 53.5 96.5 L 61.5 96.5 M 53.5 21.5 L 61.5 21.5" stroke-opacity="1" stroke-linejoin="bevel" stroke-miterlimit="10"/><path fill="none" stroke="rgb(0,0,0)" paint-order="fill" d="" stroke-opacity="1" stroke-linejoin="bevel" stroke-miterlimit="10"/><text fill="rgb(68,68,68)" stroke="none" font-family="helvetica" font-size="10pt" font-style="normal" font-weight="normal" text-decoration="normal" x="40.58650207519531" y="325.78070545196533" text-anchor="start" dominant-baseline="alphabetic" transform="matrix(1, 0, 0, 1, 0.5, 0.5)" fill-opacity="1">0</text><text fill="none" stroke="rgb(0,0,0)" font-family="helvetica" font-size="10pt" font-style="normal" font-weight="normal" text-decoration="normal" x="40.58650207519531" y="325.78070545196533" text-anchor="start" dominant-baseline="alphabetic" transform="matrix(1, 0, 0, 1, 0.5, 0.5)" stroke-opacity="0" stroke-linejoin="bevel" stroke-miterlimit="10">0</text><text fill="rgb(68,68,68)" stroke="none" font-family="helvetica" font-size="10pt" font-style="normal" font-weight="normal" text-decoration="normal" x="29.469512939453125" y="250.78070545196533" text-anchor="start" dominant-baseline="alphabetic" transform="matrix(1, 0, 0, 1, 0.5, 0.5)" fill-opacity="1">0.5</text><text fill="none" stroke="rgb(0,0,0)" font-family="helvetica" font-size="10pt" font-style="normal" font-weight="normal" text-decoration="normal" x="29.469512939453125" y="250.78070545196533" text-anchor="start" dominant-baseline="alphabetic" transform="matrix(1, 0, 0, 1, 0.5, 0.5)" stroke-opacity="0" stroke-linejoin="bevel" stroke-miterlimit="10">0.5</text><text fill="rgb(68,68,68)" stroke="none" font-family="helvetica" font-size="10pt" font-style="normal" font-weight="normal" text-decoration="normal" x="40.58650207519531" y="175.78070545196533" text-anchor="start" dominant-baseline="alphabetic" transform="matrix(1, 0, 0, 1, 0.5, 0.5)" fill-opacity="1">1</text><text fill="none" stroke="rgb(0,0,0)" font-family="helvetica" font-size="10pt" font-style="normal" font-weight="normal" text-decoration="normal" x="40.58650207519531" y="175.78070545196533" text-anchor="start" dominant-baseline="alphabetic" transform="matrix(1, 0, 0, 1, 0.5, 0.5)" stroke-opacity="0" stroke-linejoin="bevel" stroke-miterlimit="10">1</text><text fill="rgb(68,68,68)" stroke="none" font-family="helvetica" font-size="10pt" font-style="normal" font-weight="normal" text-decoration="normal" x="29.469512939453125" y="100.78070545196533" text-anchor="start" dominant-baseline="alphabetic" transform="matrix(1, 0, 0, 1, 0.5, 0.5)" fill-opacity="1">1.5</text><text fill="none" stroke="rgb(0,0,0)" font-family="helvetica" font-size="10pt" font-style="normal" font-weight="normal" text-decoration="normal" x="29.469512939453125" y="100.78070545196533" text-anchor="start" dominant-baseline="alphabetic" transform="matrix(1, 0, 0, 1, 0.5, 0.5)" stroke-opacity="0" stroke-linejoin="bevel" stroke-miterlimit="10">1.5</text><text fill="rgb(68,68,68)" stroke="none" font-family="helvetica" font-size="10pt" font-style="normal" font-weight="normal" text-decoration="normal" x="40.58650207519531" y="25.780705451965332" text-anchor="start" dominant-baseline="alphabetic" transform="matrix(1, 0, 0, 1, 0.5, 0.5)" fill-opacity="1">2</text><text fill="none" stroke="rgb(0,0,0)" font-family="helvetica" font-size="10pt" font-style="normal" font-weight="normal" text-decoration="normal" x="40.58650207519531" y="25.780705451965332" text-anchor="start" dominant-baseline="alphabetic" transform="matrix(1, 0, 0, 1, 0.5, 0.5)" stroke-opacity="0" stroke-linejoin="bevel" stroke-miterlimit="10">2</text><text fill="rgb(68,68,68)" stroke="none" font-family="helvetica" font-size="12pt" font-style="normal" font-weight="normal" text-decoration="normal" x="-76.66329956054688" y="167" text-anchor="start" dominant-baseline="alphabetic" transform="matrix(6.123233995736766e-17, -1, 1, 6.123233995736766e-17, -149.03048706054688, 192.96951293945312)" fill-opacity="1">Variance of months suitable</text><text fill="none" stroke="rgb(0,0,0)" font-family="helvetica" font-size="12pt" font-style="normal" font-weight="normal" text-decoration="normal" x="-76.66329956054688" y="167" text-anchor="start" dominant-baseline="alphabetic" transform="matrix(6.123233995736766e-17, -1, 1, 6.123233995736766e-17, -149.03048706054688, 192.96951293945312)" stroke-opacity="0" stroke-linejoin="bevel" stroke-miterlimit="10">Variance of months suitable</text><text fill="rgb(68,68,68)" stroke="none" font-family="helvetica" font-size="16pt" font-style="normal" font-weight="normal" text-decoration="normal" x="0" y="19" text-anchor="start" dominant-baseline="alphabetic" transform="matrix(1, 0, 0, 1, 4.346923828125, 0)" fill-opacity="1">B.</text><text fill="none" stroke="rgb(0,0,0)" font-family="helvetica" font-size="16pt" font-style="normal" font-weight="normal" text-decoration="normal" x="0" y="19" text-anchor="start" dominant-baseline="alphabetic" transform="matrix(1, 0, 0, 1, 4.346923828125, 0)" stroke-opacity="0" stroke-miterlimit="10" stroke-dasharray="">B.</text></g></svg>