<svg version="1.1" xmlns="http://www.w3.org/2000/svg" width="750" height="345"><defs><clipPath id="ELkuwRShDcLg"><path fill="none" stroke="none" d="M 57.5 21.5 L 357.5 21.5 L 357.5 321.5 L 57.5 321.5 L 57.5 21.5 Z"/></clipPath><clipPath id="TddoCqEoDFvT"><path fill="none" stroke="none" d="M 57.5 21.5 L 357.5 21.5 L 357.5 321.5 L 57.5 321.5 L 57.5 21.5 Z"/></clipPath><clipPath id="dIqhxyJdmQCk"><path fill="none" stroke="none" d="M 57.5 21.5 L 357.5 21.5 L 357.5 321.5 L 57.5 321.5 L 57.5 21.5 Z"/></clipPath><clipPath id="oBUENcxuckpO"><path fill="none" stroke="none" d="M 57.5 21.5 L 357.5 21.5 L 357.5 321.5 L 57.5 321.5 L 57.5 21.5 Z"/></clipPath><clipPath id="wgWPxNmwiwsM"><path fill="none" stroke="none" d="M 57.5 21.5 L 357.5 21.5 L 357.5 321.5 L 57.5 321.5 L 57.5 21.5 Z"/></clipPath><clipPath id="kkbaguAHSlBA"><path fill="none" stroke="none" d="M 57.5 21.5 L 357.5 21.5 L 357.5 321.5 L 57.5 321.5 L 57.5 21.5 Z"/></clipPath><clipPath id="MxmwMPgNFvDZ"><path fill="none" stroke="none" d="M 57.5 21.5 L 357.5 21.5 L 357.5 321.5 L 57.5 321.5 L 57.5 21.5 Z"/></clipPath><clipPath id="fPdZBelCqkJZ"><path fill="none" stroke="none" d="M 59.5 21.5 L 359.5 21.5 L 359.5 321.5 L 59.5 321.5 L 59.5 21.5 Z"/></clipPath><clipPath id="fSZkOVUFyyBX"><path fill="none" stroke="none" d="M 59.5 21.5 L 359.5 21.5 L 359.5 321.5 L 59.5 321.5 L 59.5 21.5 Z"/></clipPath><clipPath id="WGrvenEhisZE"><path fill="none" stroke="none" d="M 59.5 21.5 L 359.5 21.5 L 359.5 321.5 L 59.5 321.5 L 59.5 21.5 Z"/></clipPath><clipPath id="TSGkkUdIlIRI"><path fill="none" stroke="none" d="M 59.5 21.5 L 359.5 21.5 L 359.5 321.5 L 59.5 321.5 L 59.5 21.5 Z"/></clipPath><clipPath id="WgCIsiqquyrc"><path fill="none" stroke="none" d="M 59.5 21.5 L 359.5 21.5 L 359.5 321.5 L 59.5 321.5 L 59.5 21.5 Z"/></clipPath><clipPath id="wnQSpiaOoyOg"><path fill="none" stroke="none" d="M 59.5 21.5 L 359.5 21.5 L 359.5 321.5 L 59.5 321.5 L 59.5 21.5 Z"/></clipPath><clipPath id="mchifPLyAhht"><path fill="none" stroke="none" d="M 59.5 21.5 L 359.5 21.5 L 359.5 321.5 L 59.5 321.5 L 59.5 21.5 Z"/></clipPath></defs><path fill="rgb(0,0,0)" stroke="none" paint-order="stroke" d="M 0 0 L 750 0 L 750 345 L 0 345 L 0 0 Z" fill-opacity="0"/><path fill="rgb(0,0,0)" stroke="none" paint-order="stroke" d="M 0 0 L 750 0 L 750 345 L 0 345 L 0 0 Z" fill-opacity="0"/><path fill="none" stroke="rgb(229,229,229)" paint-order="fill" d="M 57.5 21.5 L 357.5 21.5 L 357.5 321.5 L 57.5 321.5 L 57.5 21.5 Z" stroke-opacity="1" stroke-linejoin="bevel" stroke-miterlimit="10"/><path fill="rgb(48,162,218)" stroke="rgb(0,0,0)" paint-order="fill" d="M 57.5 321.5 L 63.5 321.5 L 69.5 321.5 L 75.5 321.5 L 81.5 321.5 L 87.5 321.5 L 93.5 321.5 L 99.5 321.5 L 105.5 321.5 L 111.5 321.5 L 117.5 321.5 L 123.5 321.5 L 129.5 321.5 L 135.5 321.5 L 141.5 321.5 L 147.5 321.5 L 153.5 321.5 L 159.5 321.5 L 165.5 321.5 L 171.5 321.5 L 177.5 321.5 L 183.5 321.5 L 189.5 321.5 L 195.5 321.5 L 201.5 321.5 L 207.5 321.5 L 213.5 321.5 L 219.5 321.5 L 225.5 321.5 L 231.5 321.5 L 237.5 321.5 L 243.5 321.5 L 249.5 321.5 L 255.5 321.5 L 261.5 321.5 L 267.5 321.5 L 273.5 321.5 L 279.5 321.5 L 285.5 321.5 L 291.5 321.5 L 297.5 321.5 L 303.5 321.5 L 309.5 321.5 L 315.5 321.5 L 321.5 321.5 L 327.5 321.5 L 333.5 321.5 L 339.5 321.5 L 345.5 321.5 L 351.5 321.5 L 357.5 321.5 L 357.5 303.7637939453125 L 351.5 303.7637939453125 L 345.5 303.7637939453125 L 339.5 303.7637939453125 L 333.5 303.7637939453125 L 327.5 303.7637939453125 L 321.5 303.7637939453125 L 315.5 303.7637939453125 L 309.5 303.7637939453125 L 303.5 303.7637939453125 L 297.5 303.7637939453125 L 291.5 303.7637939453125 L 285.5 303.7637939453125 L 279.5 303.7637939453125 L 273.5 303.7637939453125 L 267.5 303.7637939453125 L 261.5 303.7637939453125 L 255.5 303.7637939453125 L 249.5 303.7637939453125 L 243.5 303.7637939453125 L 237.5 303.7637939453125 L 231.5 303.7637939453125 L 225.5 303.7637939453125 L 219.5 303.7637939453125 L 213.5 303.7637939453125 L 207.5 303.7637939453125 L 201.5 303.7637939453125 L 195.5 303.7637939453125 L 189.5 303.7637939453125 L 183.5 303.7637939453125 L 177.5 303.7637939453125 L 171.5 303.7637939453125 L 165.5 303.7637939453125 L 159.5 303.7637939453125 L 153.5 303.7637939453125 L 147.5 303.7637939453125 L 141.5 303.7637939453125 L 135.5 303.7637939453125 L 129.5 303.7637939453125 L 123.5 303.7637939453125 L 117.5 303.7637939453125 L 111.5 303.7637939453125 L 105.5 303.7637939453125 L 99.5 303.7637939453125 L 93.5 303.7637939453125 L 87.5 303.7637939453125 L 81.5 303.7637939453125 L 75.5 303.7637939453125 L 69.5 303.7637939453125 L 63.5 303.7637939453125 L 57.5 303.7637939453125 Z" fill-opacity="1" clip-path="url(#dIqhxyJdmQCk)" stroke-opacity="1" stroke-linejoin="bevel" stroke-miterlimit="10"/><path fill="rgb(252,79,48)" stroke="rgb(0,0,0)" paint-order="fill" d="M 57.5 303.7637939453125 L 63.5 303.7637939453125 L 69.5 303.7637939453125 L 75.5 303.7637939453125 L 81.5 303.7637939453125 L 87.5 303.7637939453125 L 93.5 303.7637939453125 L 99.5 303.7637939453125 L 105.5 303.7637939453125 L 111.5 303.7637939453125 L 117.5 303.7637939453125 L 123.5 303.7637939453125 L 129.5 303.7637939453125 L 135.5 303.7637939453125 L 141.5 303.7637939453125 L 147.5 303.7637939453125 L 153.5 303.7637939453125 L 159.5 303.7637939453125 L 165.5 303.7637939453125 L 171.5 303.7637939453125 L 177.5 303.7637939453125 L 183.5 303.7637939453125 L 189.5 303.7637939453125 L 195.5 303.7637939453125 L 201.5 303.7637939453125 L 207.5 303.7637939453125 L 213.5 303.7637939453125 L 219.5 303.7637939453125 L 225.5 303.7637939453125 L 231.5 303.7637939453125 L 237.5 303.7637939453125 L 243.5 303.7637939453125 L 249.5 303.7637939453125 L 255.5 303.7637939453125 L 261.5 303.7637939453125 L 267.5 303.7637939453125 L 273.5 303.7637939453125 L 279.5 303.7637939453125 L 285.5 303.7637939453125 L 291.5 303.7637939453125 L 297.5 303.7637939453125 L 303.5 303.7637939453125 L 309.5 303.7637939453125 L 315.5 303.7637939453125 L 321.5 303.7637939453125 L 327.5 303.7637939453125 L 333.5 303.7637939453125 L 339.5 303.7637939453125 L 345.5 303.7637939453125 L 351.5 303.7637939453125 L 357.5 303.7637939453125 L 357.5 227.78736877441406 L 351.5 233.75241088867188 L 345.5 238.69851684570312 L 339.5 242.79725646972656 L 333.5 246.19813537597656 L 327.5 249.030517578125 L 321.5 251.40536499023438 L 315.5 253.41697692871094 L 309.5 255.14462280273438 L 303.5 256.6540832519531 L 297.5 257.9991149902344 L 291.5 259.2228698730469 L 285.5 260.3592224121094 L 279.5 261.43402099609375 L 273.5 262.4661865234375 L 267.5 263.4689025878906 L 261.5 264.4505920410156 L 255.5 265.41583251953125 L 249.5 266.3662414550781 L 243.5 267.3012390136719 L 237.5 268.21875 L 231.5 269.1158752441406 L 225.5 269.9894714355469 L 219.5 270.8364562988281 L 213.5 271.6543884277344 L 207.5 272.4417724609375 L 201.5 273.1981506347656 L 195.5 273.9244384765625 L 189.5 274.6229553222656 L 183.5 275.2973937988281 L 177.5 275.9527893066406 L 171.5 276.595458984375 L 165.5 277.23260498046875 L 159.5 277.8721618652344 L 153.5 278.52239990234375 L 147.5 279.19146728515625 L 141.5 279.8868103027344 L 135.5 280.6146240234375 L 129.5 281.37921142578125 L 123.5 282.1820983886719 L 117.5 283.0213317871094 L 111.5 283.8905029296875 L 105.5 284.7777404785156 L 99.5 285.6646728515625 L 93.5 286.52532958984375 L 87.5 287.3248596191406 L 81.5 288.0181884765625 L 75.5 288.5487976074219 L 69.5 288.8470764160156 L 63.5 288.8290100097656 L 57.5 288.39434814453125 Z" fill-opacity="1" clip-path="url(#oBUENcxuckpO)" stroke-opacity="1" stroke-linejoin="bevel" stroke-miterlimit="10"/><path fill="rgb(229,174,56)" stroke="rgb(0,0,0)" paint-order="fill" d="M 57.5 288.39434814453125 L 63.5 288.8290100097656 L 69.5 288.8470764160156 L 75.5 288.5487976074219 L 81.5 288.0181884765625 L 87.5 287.3248596191406 L 93.5 286.52532958984375 L 99.5 285.6646728515625 L 105.5 284.7777404785156 L 111.5 283.8905029296875 L 117.5 283.0213317871094 L 123.5 282.1820983886719 L 129.5 281.37921142578125 L 135.5 280.6146240234375 L 141.5 279.8868103027344 L 147.5 279.19146728515625 L 153.5 278.52239990234375 L 159.5 277.8721618652344 L 165.5 277.23260498046875 L 171.5 276.595458984375 L 177.5 275.9527893066406 L 183.5 275.2973937988281 L 189.5 274.6229553222656 L 195.5 273.9244384765625 L 201.5 273.1981506347656 L 207.5 272.4417724609375 L 213.5 271.6543884277344 L 219.5 270.8364562988281 L 225.5 269.9894714355469 L 231.5 269.1158752441406 L 237.5 268.21875 L 243.5 267.3012390136719 L 249.5 266.3662414550781 L 255.5 265.41583251953125 L 261.5 264.4505920410156 L 267.5 263.4689025878906 L 273.5 262.4661865234375 L 279.5 261.43402099609375 L 285.5 260.3592224121094 L 291.5 259.2228698730469 L 297.5 257.9991149902344 L 303.5 256.6540832519531 L 309.5 255.14462280273438 L 315.5 253.41697692871094 L 321.5 251.40536499023438 L 327.5 249.030517578125 L 333.5 246.19813537597656 L 339.5 242.79725646972656 L 345.5 238.69851684570312 L 351.5 233.75241088867188 L 357.5 227.78736877441406 L 357.5 187.39894104003906 L 351.5 195.6303253173828 L 345.5 202.74301147460938 L 339.5 208.91236877441406 L 333.5 214.29156494140625 L 327.5 219.0133819580078 L 321.5 223.1920623779297 L 315.5 226.925048828125 L 309.5 230.2945556640625 L 303.5 233.36920166015625 L 297.5 236.20545959472656 L 291.5 238.8490753173828 L 285.5 241.33642578125 L 279.5 243.69570922851562 L 273.5 245.94822692871094 L 267.5 248.10935974121094 L 261.5 250.189697265625 L 255.5 252.19590759277344 L 249.5 254.13162231445312 L 243.5 255.998291015625 L 237.5 257.7957458496094 L 231.5 259.5230407714844 L 225.5 261.1788024902344 L 219.5 262.76177978515625 L 213.5 264.2713928222656 L 207.5 265.707763671875 L 201.5 267.072265625 L 195.5 268.367431640625 L 189.5 269.59722900390625 L 183.5 270.7669982910156 L 177.5 271.8833923339844 L 171.5 272.9541931152344 L 165.5 273.9881896972656 L 159.5 274.9947814941406 L 153.5 275.983642578125 L 147.5 276.96429443359375 L 141.5 277.9455261230469 L 135.5 278.934814453125 L 129.5 279.9376220703125 L 123.5 280.9566345214844 L 117.5 281.990966796875 L 111.5 283.03515625 L 105.5 284.07818603515625 L 99.5 285.10247802734375 L 93.5 286.08270263671875 L 87.5 286.9844970703125 L 81.5 287.7632141113281 L 75.5 288.362548828125 L 69.5 288.7130126953125 L 63.5 288.7304382324219 L 57.5 288.3143615722656 Z" fill-opacity="1" clip-path="url(#wgWPxNmwiwsM)" stroke-opacity="1" stroke-linejoin="bevel" stroke-miterlimit="10"/><path fill="none" stroke="rgb(0,0,0)" paint-order="fill" d="M 57.5 321.5 L 357.5 321.5" stroke-opacity="1" stroke-linejoin="bevel" stroke-miterlimit="10"/><path fill="none" stroke="rgb(0,0,0)" paint-order="fill" d="M 57.5 327.5 L 57.5 319.5 M 117.5 327.5 L 117.5 319.5 M 177.5 327.5 L 177.5 319.5 M 237.5 327.5 L 237.5 319.5 M 297.5 327.5 L 297.5 319.5 M 357.5 327.5 L 357.5 319.5" stroke-opacity="1" stroke-linejoin="bevel" stroke-miterlimit="10"/><path fill="none" stroke="rgb(0,0,0)" paint-order="fill" d="" stroke-opacity="1" stroke-linejoin="bevel" stroke-miterlimit="10"/><text fill="rgb(68,68,68)" stroke="none" font-family="helvetica" font-size="10pt" font-style="normal" font-weight="normal" text-decoration="normal" x="42.173004150390625" y="341.56141090393066" text-anchor="start" dominant-baseline="alphabetic" transform="matrix(1, 0, 0, 1, 0.5, 0.5)" fill-opacity="1">2030</text><text fill="none" stroke="rgb(0,0,0)" font-family="helvetica" font-size="10pt" font-style="normal" font-weight="normal" text-decoration="normal" x="42.173004150390625" y="341.56141090393066" text-anchor="start" dominant-baseline="alphabetic" transform="matrix(1, 0, 0, 1, 0.5, 0.5)" stroke-opacity="0" stroke-linejoin="bevel" stroke-miterlimit="10">2030</text><text fill="rgb(68,68,68)" stroke="none" font-family="helvetica" font-size="10pt" font-style="normal" font-weight="normal" text-decoration="normal" x="102.17300415039062" y="341.56141090393066" text-anchor="start" dominant-baseline="alphabetic" transform="matrix(1, 0, 0, 1, 0.5, 0.5)" fill-opacity="1">2040</text><text fill="none" stroke="rgb(0,0,0)" font-family="helvetica" font-size="10pt" font-style="normal" font-weight="normal" text-decoration="normal" x="102.17300415039062" y="341.56141090393066" text-anchor="start" dominant-baseline="alphabetic" transform="matrix(1, 0, 0, 1, 0.5, 0.5)" stroke-opacity="0" stroke-linejoin="bevel" stroke-miterlimit="10">2040</text><text fill="rgb(68,68,68)" stroke="none" font-family="helvetica" font-size="10pt" font-style="normal" font-weight="normal" text-decoration="normal" x="162.17300415039062" y="341.56141090393066" text-anchor="start" dominant-baseline="alphabetic" transform="matrix(1, 0, 0, 1, 0.5, 0.5)" fill-opacity="1">2050</text><text fill="none" stroke="rgb(0,0,0)" font-family="helvetica" font-size="10pt" font-style="normal" font-weight="normal" text-decoration="normal" x="162.17300415039062" y="341.56141090393066" text-anchor="start" dominant-baseline="alphabetic" transform="matrix(1, 0, 0, 1, 0.5, 0.5)" stroke-opacity="0" stroke-linejoin="bevel" stroke-miterlimit="10">2050</text><text fill="rgb(68,68,68)" stroke="none" font-family="helvetica" font-size="10pt" font-style="normal" font-weight="normal" text-decoration="normal" x="222.17300415039062" y="341.56141090393066" text-anchor="start" dominant-baseline="alphabetic" transform="matrix(1, 0, 0, 1, 0.5, 0.5)" fill-opacity="1">2060</text><text fill="none" stroke="rgb(0,0,0)" font-family="helvetica" font-size="10pt" font-style="normal" font-weight="normal" text-decoration="normal" x="222.17300415039062" y="341.56141090393066" text-anchor="start" dominant-baseline="alphabetic" transform="matrix(1, 0, 0, 1, 0.5, 0.5)" stroke-opacity="0" stroke-linejoin="bevel" stroke-miterlimit="10">2060</text><text fill="rgb(68,68,68)" stroke="none" font-family="helvetica" font-size="10pt" font-style="normal" font-weight="normal" text-decoration="normal" x="282.1730041503906" y="341.56141090393066" text-anchor="start" dominant-baseline="alphabetic" transform="matrix(1, 0, 0, 1, 0.5, 0.5)" fill-opacity="1">2070</text><text fill="none" stroke="rgb(0,0,0)" font-family="helvetica" font-size="10pt" font-style="normal" font-weight="normal" text-decoration="normal" x="282.1730041503906" y="341.56141090393066" text-anchor="start" dominant-baseline="alphabetic" transform="matrix(1, 0, 0, 1, 0.5, 0.5)" stroke-opacity="0" stroke-linejoin="bevel" stroke-miterlimit="10">2070</text><text fill="rgb(68,68,68)" stroke="none" font-family="helvetica" font-size="10pt" font-style="normal" font-weight="normal" text-decoration="normal" x="342.1730041503906" y="341.56141090393066" text-anchor="start" dominant-baseline="alphabetic" transform="matrix(1, 0, 0, 1, 0.5, 0.5)" fill-opacity="1">2080</text><text fill="none" stroke="rgb(0,0,0)" font-family="helvetica" font-size="10pt" font-style="normal" font-weight="normal" text-decoration="normal" x="342.1730041503906" y="341.56141090393066" text-anchor="start" dominant-baseline="alphabetic" transform="matrix(1, 0, 0, 1, 0.5, 0.5)" stroke-opacity="0" stroke-linejoin="bevel" stroke-miterlimit="10">2080</text><text fill="rgb(68,68,68)" stroke="none" font-family="helvetica" font-size="12pt" font-style="normal" font-weight="normal" text-decoration="normal" x="207" y="361.03797340393066" text-anchor="start" dominant-baseline="alphabetic" transform="matrix(1, 0, 0, 1, 0.5, 0.5)" fill-opacity="1"></text><text fill="none" stroke="rgb(0,0,0)" font-family="helvetica" font-size="12pt" font-style="normal" font-weight="normal" text-decoration="normal" x="207" y="361.03797340393066" text-anchor="start" dominant-baseline="alphabetic" transform="matrix(1, 0, 0, 1, 0.5, 0.5)" stroke-opacity="0" stroke-linejoin="bevel" stroke-miterlimit="10"></text><path fill="none" stroke="rgb(0,0,0)" paint-order="fill" d="M 57.5 321.5 L 57.5 21.5" stroke-opacity="1" stroke-linejoin="bevel" stroke-miterlimit="10"/><path fill="none" stroke="rgb(0,0,0)" paint-order="fill" d="M 51.5 321.5 L 59.5 321.5 M 51.5 262.5 L 59.5 262.5 M 51.5 203.5 L 59.5 203.5 M 51.5 145.5 L 59.5 145.5 M 51.5 86.5 L 59.5 86.5 M 51.5 27.5 L 59.5 27.5" stroke-opacity="1" stroke-linejoin="bevel" stroke-miterlimit="10"/><path fill="none" stroke="rgb(0,0,0)" paint-order="fill" d="" stroke-opacity="1" stroke-linejoin="bevel" stroke-miterlimit="10"/><text fill="rgb(68,68,68)" stroke="none" font-family="helvetica" font-size="10pt" font-style="normal" font-weight="normal" text-decoration="normal" x="38.58650207519531" y="325.78070545196533" text-anchor="start" dominant-baseline="alphabetic" transform="matrix(1, 0, 0, 1, 0.5, 0.5)" fill-opacity="1">0</text><text fill="none" stroke="rgb(0,0,0)" font-family="helvetica" font-size="10pt" font-style="normal" font-weight="normal" text-decoration="normal" x="38.58650207519531" y="325.78070545196533" text-anchor="start" dominant-baseline="alphabetic" transform="matrix(1, 0, 0, 1, 0.5, 0.5)" stroke-opacity="0" stroke-linejoin="bevel" stroke-miterlimit="10">0</text><text fill="rgb(68,68,68)" stroke="none" font-family="helvetica" font-size="10pt" font-style="normal" font-weight="normal" text-decoration="normal" x="38.58650207519531" y="266.9571886062622" text-anchor="start" dominant-baseline="alphabetic" transform="matrix(1, 0, 0, 1, 0.5, 0.5)" fill-opacity="1">1</text><text fill="none" stroke="rgb(0,0,0)" font-family="helvetica" font-size="10pt" font-style="normal" font-weight="normal" text-decoration="normal" x="38.58650207519531" y="266.9571886062622" text-anchor="start" dominant-baseline="alphabetic" transform="matrix(1, 0, 0, 1, 0.5, 0.5)" stroke-opacity="0" stroke-linejoin="bevel" stroke-miterlimit="10">1</text><text fill="rgb(68,68,68)" stroke="none" font-family="helvetica" font-size="10pt" font-style="normal" font-weight="normal" text-decoration="normal" x="38.58650207519531" y="208.13364124298096" text-anchor="start" dominant-baseline="alphabetic" transform="matrix(1, 0, 0, 1, 0.5, 0.5)" fill-opacity="1">2</text><text fill="none" stroke="rgb(0,0,0)" font-family="helvetica" font-size="10pt" font-style="normal" font-weight="normal" text-decoration="normal" x="38.58650207519531" y="208.13364124298096" text-anchor="start" dominant-baseline="alphabetic" transform="matrix(1, 0, 0, 1, 0.5, 0.5)" stroke-opacity="0" stroke-linejoin="bevel" stroke-miterlimit="10">2</text><text fill="rgb(68,68,68)" stroke="none" font-family="helvetica" font-size="10pt" font-style="normal" font-weight="normal" text-decoration="normal" x="38.58650207519531" y="149.31012439727783" text-anchor="start" dominant-baseline="alphabetic" transform="matrix(1, 0, 0, 1, 0.5, 0.5)" fill-opacity="1">3</text><text fill="none" stroke="rgb(0,0,0)" font-family="helvetica" font-size="10pt" font-style="normal" font-weight="normal" text-decoration="normal" x="38.58650207519531" y="149.31012439727783" text-anchor="start" dominant-baseline="alphabetic" transform="matrix(1, 0, 0, 1, 0.5, 0.5)" stroke-opacity="0" stroke-linejoin="bevel" stroke-miterlimit="10">3</text><text fill="rgb(68,68,68)" stroke="none" font-family="helvetica" font-size="10pt" font-style="normal" font-weight="normal" text-decoration="normal" x="38.58650207519531" y="90.48658466339111" text-anchor="start" dominant-baseline="alphabetic" transform="matrix(1, 0, 0, 1, 0.5, 0.5)" fill-opacity="1">4</text><text fill="none" stroke="rgb(0,0,0)" font-family="helvetica" font-size="10pt" font-style="normal" font-weight="normal" text-decoration="normal" x="38.58650207519531" y="90.48658466339111" text-anchor="start" dominant-baseline="alphabetic" transform="matrix(1, 0, 0, 1, 0.5, 0.5)" stroke-opacity="0" stroke-linejoin="bevel" stroke-miterlimit="10">4</text><text fill="rgb(68,68,68)" stroke="none" font-family="helvetica" font-size="10pt" font-style="normal" font-weight="normal" text-decoration="normal" x="38.58650207519531" y="31.663058280944824" text-anchor="start" dominant-baseline="alphabetic" transform="matrix(1, 0, 0, 1, 0.5, 0.5)" fill-opacity="1">5</text><text fill="none" stroke="rgb(0,0,0)" font-family="helvetica" font-size="10pt" font-style="normal" font-weight="normal" text-decoration="normal" x="38.58650207519531" y="31.663058280944824" text-anchor="start" dominant-baseline="alphabetic" transform="matrix(1, 0, 0, 1, 0.5, 0.5)" stroke-opacity="0" stroke-linejoin="bevel" stroke-miterlimit="10">5</text><text fill="rgb(68,68,68)" stroke="none" font-family="helvetica" font-size="12pt" font-style="normal" font-weight="normal" text-decoration="normal" x="-96.07365417480469" y="167" text-anchor="start" dominant-baseline="alphabetic" transform="matrix(6.123233995736766e-17, -1, 1, 6.123233995736766e-17, -139.9134979248047, 202.0865020751953)" fill-opacity="1">Variance of mean temperature (°C²)</text><text fill="none" stroke="rgb(0,0,0)" font-family="helvetica" font-size="12pt" font-style="normal" font-weight="normal" text-decoration="normal" x="-96.07365417480469" y="167" text-anchor="start" dominant-baseline="alphabetic" transform="matrix(6.123233995736766e-17, -1, 1, 6.123233995736766e-17, -139.9134979248047, 202.0865020751953)" stroke-opacity="0" stroke-linejoin="bevel" stroke-miterlimit="10">Variance of mean temperature (°C²)</text><path fill="rgb(255,255,255)" stroke="rgb(229,229,229)" paint-order="fill" d="M 67.5 31.5 L 234.5 31.5 L 234.5 117.5 L 67.5 117.5 L 67.5 31.5 Z" fill-opacity="0.9490196078431372" clip-path="url(#kkbaguAHSlBA)" stroke-opacity="0.5019607843137255" stroke-linejoin="bevel" stroke-miterlimit="10"/><path fill="rgb(48,162,218)" stroke="rgb(0,0,0)" paint-order="fill" d="M 79.5 43.5 L 95.5 43.5 L 95.5 59.5 L 79.5 59.5 L 79.5 43.5 Z" fill-opacity="1" clip-path="url(#kkbaguAHSlBA)" stroke-opacity="1" stroke-linejoin="bevel" stroke-miterlimit="10"/><g clip-path="url(#kkbaguAHSlBA)"><text fill="rgb(68,68,68)" stroke="none" font-family="helvetica" font-size="10pt" font-style="normal" font-weight="normal" text-decoration="normal" x="0" y="4.5" text-anchor="start" dominant-baseline="alphabetic" transform="matrix(1, 0, 0, 1, 102.5, 51.5)" fill-opacity="1">Internal variability</text></g><g clip-path="url(#kkbaguAHSlBA)"><text fill="none" stroke="rgb(0,0,0)" font-family="helvetica" font-size="10pt" font-style="normal" font-weight="normal" text-decoration="normal" x="0" y="4.5" text-anchor="start" dominant-baseline="alphabetic" transform="matrix(1, 0, 0, 1, 102.5, 51.5)" stroke-opacity="0" stroke-linejoin="bevel" stroke-miterlimit="10">Internal variability</text></g><path fill="rgb(252,79,48)" stroke="rgb(0,0,0)" paint-order="fill" d="M 79.5 66.5 L 95.5 66.5 L 95.5 82.5 L 79.5 82.5 L 79.5 66.5 Z" fill-opacity="1" clip-path="url(#kkbaguAHSlBA)" stroke-opacity="1" stroke-linejoin="bevel" stroke-miterlimit="10"/><g clip-path="url(#kkbaguAHSlBA)"><text fill="rgb(68,68,68)" stroke="none" font-family="helvetica" font-size="10pt" font-style="normal" font-weight="normal" text-decoration="normal" x="0" y="4.5" text-anchor="start" dominant-baseline="alphabetic" transform="matrix(1, 0, 0, 1, 102.5, 74.5)" fill-opacity="1">Model uncertainty</text></g><g clip-path="url(#kkbaguAHSlBA)"><text fill="none" stroke="rgb(0,0,0)" font-family="helvetica" font-size="10pt" font-style="normal" font-weight="normal" text-decoration="normal" x="0" y="4.5" text-anchor="start" dominant-baseline="alphabetic" transform="matrix(1, 0, 0, 1, 102.5, 74.5)" stroke-opacity="0" stroke-linejoin="bevel" stroke-miterlimit="10">Model uncertainty</text></g><path fill="rgb(229,174,56)" stroke="rgb(0,0,0)" paint-order="fill" d="M 79.5 89.5 L 95.5 89.5 L 95.5 105.5 L 79.5 105.5 L 79.5 89.5 Z" fill-opacity="1" clip-path="url(#kkbaguAHSlBA)" stroke-opacity="1" stroke-linejoin="bevel" stroke-miterlimit="10"/><g clip-path="url(#kkbaguAHSlBA)"><text fill="rgb(68,68,68)" stroke="none" font-family="helvetica" font-size="10pt" font-style="normal" font-weight="normal" text-decoration="normal" x="0" y="4.5" text-anchor="start" dominant-baseline="alphabetic" transform="matrix(1, 0, 0, 1, 102.5, 97.5)" fill-opacity="1">Scenario uncertainty</text></g><g clip-path="url(#kkbaguAHSlBA)"><text fill="none" stroke="rgb(0,0,0)" font-family="helvetica" font-size="10pt" font-style="normal" font-weight="normal" text-decoration="normal" x="0" y="4.5" text-anchor="start" dominant-baseline="alphabetic" transform="matrix(1, 0, 0, 1, 102.5, 97.5)" stroke-opacity="0" stroke-linejoin="bevel" stroke-miterlimit="10">Scenario uncertainty</text></g><text fill="rgb(68,68,68)" stroke="none" font-family="helvetica" font-size="16pt" font-style="normal" font-weight="normal" text-decoration="normal" x="0" y="19" text-anchor="start" dominant-baseline="alphabetic" transform="matrix(1, 0, 0, 1, 2.346923828125, 0)" fill-opacity="1">A.</text><text fill="none" stroke="rgb(0,0,0)" font-family="helvetica" font-size="16pt" font-style="normal" font-weight="normal" text-decoration="normal" x="0" y="19" text-anchor="start" dominant-baseline="alphabetic" transform="matrix(1, 0, 0, 1, 2.346923828125, 0)" stroke-opacity="0" stroke-miterlimit="10" stroke-dasharray="">A.</text><g transform="matrix(1, 0, 0, 1, 375, 0)"><path fill="none" stroke="rgb(229,229,229)" paint-order="fill" d="M 59.5 21.5 L 359.5 21.5 L 359.5 321.5 L 59.5 321.5 L 59.5 21.5 Z" stroke-opacity="1" stroke-linejoin="bevel" stroke-miterlimit="10"/><path fill="rgb(48,162,218)" stroke="rgb(0,0,0)" paint-order="fill" d="M 59.5 321.5 L 65.5 321.5 L 71.5 321.5 L 77.5 321.5 L 83.5 321.5 L 89.5 321.5 L 95.5 321.5 L 101.5 321.5 L 107.5 321.5 L 113.5 321.5 L 119.5 321.5 L 125.5 321.5 L 131.5 321.5 L 137.5 321.5 L 143.5 321.5 L 149.5 321.5 L 155.5 321.5 L 161.5 321.5 L 167.5 321.5 L 173.5 321.5 L 179.5 321.5 L 185.5 321.5 L 191.5 321.5 L 197.5 321.5 L 203.5 321.5 L 209.5 321.5 L 215.5 321.5 L 221.5 321.5 L 227.5 321.5 L 233.5 321.5 L 239.5 321.5 L 245.5 321.5 L 251.5 321.5 L 257.5 321.5 L 263.5 321.5 L 269.5 321.5 L 275.5 321.5 L 281.5 321.5 L 287.5 321.5 L 293.5 321.5 L 299.5 321.5 L 305.5 321.5 L 311.5 321.5 L 317.5 321.5 L 323.5 321.5 L 329.5 321.5 L 335.5 321.5 L 341.5 321.5 L 347.5 321.5 L 353.5 321.5 L 359.5 321.5 L 359.5 230.49815368652344 L 353.5 230.49815368652344 L 347.5 230.49815368652344 L 341.5 230.49815368652344 L 335.5 230.49815368652344 L 329.5 230.49815368652344 L 323.5 230.49815368652344 L 317.5 230.49815368652344 L 311.5 230.49815368652344 L 305.5 230.49815368652344 L 299.5 230.49815368652344 L 293.5 230.49815368652344 L 287.5 230.49815368652344 L 281.5 230.49815368652344 L 275.5 230.49815368652344 L 269.5 230.49815368652344 L 263.5 230.49815368652344 L 257.5 230.49815368652344 L 251.5 230.49815368652344 L 245.5 230.49815368652344 L 239.5 230.49815368652344 L 233.5 230.49815368652344 L 227.5 230.49815368652344 L 221.5 230.49815368652344 L 215.5 230.49815368652344 L 209.5 230.49815368652344 L 203.5 230.49815368652344 L 197.5 230.49815368652344 L 191.5 230.49815368652344 L 185.5 230.49815368652344 L 179.5 230.49815368652344 L 173.5 230.49815368652344 L 167.5 230.49815368652344 L 161.5 230.49815368652344 L 155.5 230.49815368652344 L 149.5 230.49815368652344 L 143.5 230.49815368652344 L 137.5 230.49815368652344 L 131.5 230.49815368652344 L 125.5 230.49815368652344 L 119.5 230.49815368652344 L 113.5 230.49815368652344 L 107.5 230.49815368652344 L 101.5 230.49815368652344 L 95.5 230.49815368652344 L 89.5 230.49815368652344 L 83.5 230.49815368652344 L 77.5 230.49815368652344 L 71.5 230.49815368652344 L 65.5 230.49815368652344 L 59.5 230.49815368652344 Z" fill-opacity="1" clip-path="url(#WGrvenEhisZE)" stroke-opacity="1" stroke-linejoin="bevel" stroke-miterlimit="10"/><path fill="rgb(252,79,48)" stroke="rgb(0,0,0)" paint-order="fill" d="M 59.5 230.49815368652344 L 65.5 230.49815368652344 L 71.5 230.49815368652344 L 77.5 230.49815368652344 L 83.5 230.49815368652344 L 89.5 230.49815368652344 L 95.5 230.49815368652344 L 101.5 230.49815368652344 L 107.5 230.49815368652344 L 113.5 230.49815368652344 L 119.5 230.49815368652344 L 125.5 230.49815368652344 L 131.5 230.49815368652344 L 137.5 230.49815368652344 L 143.5 230.49815368652344 L 149.5 230.49815368652344 L 155.5 230.49815368652344 L 161.5 230.49815368652344 L 167.5 230.49815368652344 L 173.5 230.49815368652344 L 179.5 230.49815368652344 L 185.5 230.49815368652344 L 191.5 230.49815368652344 L 197.5 230.49815368652344 L 203.5 230.49815368652344 L 209.5 230.49815368652344 L 215.5 230.49815368652344 L 221.5 230.49815368652344 L 227.5 230.49815368652344 L 233.5 230.49815368652344 L 239.5 230.49815368652344 L 245.5 230.49815368652344 L 251.5 230.49815368652344 L 257.5 230.49815368652344 L 263.5 230.49815368652344 L 269.5 230.49815368652344 L 275.5 230.49815368652344 L 281.5 230.49815368652344 L 287.5 230.49815368652344 L 293.5 230.49815368652344 L 299.5 230.49815368652344 L 305.5 230.49815368652344 L 311.5 230.49815368652344 L 317.5 230.49815368652344 L 323.5 230.49815368652344 L 329.5 230.49815368652344 L 335.5 230.49815368652344 L 341.5 230.49815368652344 L 347.5 230.49815368652344 L 353.5 230.49815368652344 L 359.5 230.49815368652344 L 359.5 124.02603912353516 L 353.5 138.09007263183594 L 347.5 149.13450622558594 L 341.5 157.7088165283203 L 335.5 164.28634643554688 L 329.5 169.27127075195312 L 323.5 173.0052032470703 L 317.5 175.77352905273438 L 311.5 177.81137084960938 L 305.5 179.30935668945312 L 299.5 180.4189910888672 L 293.5 181.25772094726562 L 287.5 181.9137420654297 L 281.5 182.45040893554688 L 275.5 182.91050720214844 L 269.5 183.32000732421875 L 263.5 183.6916046142578 L 257.5 184.02806091308594 L 251.5 184.3249969482422 L 245.5 184.5736083984375 L 239.5 184.76292419433594 L 233.5 184.8818359375 L 227.5 184.92076110839844 L 221.5 184.873046875 L 215.5 184.73606872558594 L 209.5 184.51193237304688 L 203.5 184.2080078125 L 197.5 183.83700561523438 L 191.5 183.41688537597656 L 185.5 182.97035217285156 L 179.5 182.52407836914062 L 173.5 182.10763549804688 L 167.5 181.75210571289062 L 161.5 181.4883575439453 L 155.5 181.3450469970703 L 149.5 181.3463134765625 L 143.5 181.50914001464844 L 137.5 181.84042358398438 L 131.5 182.33370971679688 L 125.5 182.96566772460938 L 119.5 183.69224548339844 L 113.5 184.44444274902344 L 107.5 185.12388610839844 L 101.5 185.5980224609375 L 95.5 185.69503784179688 L 89.5 185.1984100341797 L 83.5 183.8412628173828 L 77.5 181.30029296875 L 71.5 177.18948364257812 L 65.5 171.05343627929688 L 59.5 162.36041259765625 Z" fill-opacity="1" clip-path="url(#TSGkkUdIlIRI)" stroke-opacity="1" stroke-linejoin="bevel" stroke-miterlimit="10"/><path fill="rgb(229,174,56)" stroke="rgb(0,0,0)" paint-order="fill" d="M 59.5 162.36041259765625 L 65.5 171.05343627929688 L 71.5 177.18948364257812 L 77.5 181.30029296875 L 83.5 183.8412628173828 L 89.5 185.1984100341797 L 95.5 185.69503784179688 L 101.5 185.5980224609375 L 107.5 185.12388610839844 L 113.5 184.44444274902344 L 119.5 183.69224548339844 L 125.5 182.96566772460938 L 131.5 182.33370971679688 L 137.5 181.84042358398438 L 143.5 181.50914001464844 L 149.5 181.3463134765625 L 155.5 181.3450469970703 L 161.5 181.4883575439453 L 167.5 181.75210571289062 L 173.5 182.10763549804688 L 179.5 182.52407836914062 L 185.5 182.97035217285156 L 191.5 183.41688537597656 L 197.5 183.83700561523438 L 203.5 184.2080078125 L 209.5 184.51193237304688 L 215.5 184.73606872558594 L 221.5 184.873046875 L 227.5 184.92076110839844 L 233.5 184.8818359375 L 239.5 184.76292419433594 L 245.5 184.5736083984375 L 251.5 184.3249969482422 L 257.5 184.02806091308594 L 263.5 183.6916046142578 L 269.5 183.32000732421875 L 275.5 182.91050720214844 L 281.5 182.45040893554688 L 287.5 181.9137420654297 L 293.5 181.25772094726562 L 299.5 180.4189910888672 L 305.5 179.30935668945312 L 311.5 177.81137084960938 L 317.5 175.77352905273438 L 323.5 173.0052032470703 L 329.5 169.27127075195312 L 335.5 164.28634643554688 L 341.5 157.7088165283203 L 347.5 149.13450622558594 L 353.5 138.09007263183594 L 359.5 124.02603912353516 L 359.5 42.847904205322266 L 353.5 63.39551544189453 L 347.5 80.47453308105469 L 341.5 94.6600112915039 L 335.5 106.44972229003906 L 329.5 116.27113342285156 L 323.5 124.48809814453125 L 317.5 131.40719604492188 L 311.5 137.28378295898438 L 305.5 142.32772827148438 L 299.5 146.70889282226562 L 293.5 150.5621795654297 L 287.5 153.9923858642578 L 281.5 157.0786895751953 L 275.5 159.87887573242188 L 269.5 162.43313598632812 L 263.5 164.7677459716797 L 257.5 166.8982696533203 L 251.5 168.8324737548828 L 245.5 170.5730438232422 L 239.5 172.1199188232422 L 233.5 173.47222900390625 L 227.5 174.63009643554688 L 221.5 175.59597778320312 L 215.5 176.3758087158203 L 209.5 176.979736328125 L 203.5 177.42266845703125 L 197.5 177.72433471679688 L 191.5 177.90921020507812 L 185.5 178.00607299804688 L 179.5 178.04718017578125 L 173.5 178.06723022460938 L 167.5 178.10195922851562 L 161.5 178.18650817871094 L 155.5 178.35328674316406 L 149.5 178.62982177734375 L 143.5 179.03598022460938 L 137.5 179.5811767578125 L 131.5 180.260986328125 L 125.5 181.05372619628906 L 119.5 181.91648864746094 L 113.5 182.78102111816406 L 107.5 183.54925537109375 L 101.5 184.0884552001953 L 95.5 184.22616577148438 L 89.5 183.74478149414062 L 83.5 182.37582397460938 L 77.5 179.79393005371094 L 71.5 175.61045837402344 L 65.5 169.36691284179688 L 59.5 160.5279083251953 Z" fill-opacity="1" clip-path="url(#WgCIsiqquyrc)" stroke-opacity="1" stroke-linejoin="bevel" stroke-miterlimit="10"/><path fill="none" stroke="rgb(0,0,0)" paint-order="fill" d="M 59.5 321.5 L 359.5 321.5" stroke-opacity="1" stroke-linejoin="bevel" stroke-miterlimit="10"/><path fill="none" stroke="rgb(0,0,0)" paint-order="fill" d="M 59.5 327.5 L 59.5 319.5 M 119.5 327.5 L 119.5 319.5 M 179.5 327.5 L 179.5 319.5 M 239.5 327.5 L 239.5 319.5 M 299.5 327.5 L 299.5 319.5 M 359.5 327.5 L 359.5 319.5" stroke-opacity="1" stroke-linejoin="bevel" stroke-miterlimit="10"/><path fill="none" stroke="rgb(0,0,0)" paint-order="fill" d="" stroke-opacity="1" stroke-linejoin="bevel" stroke-miterlimit="10"/><text fill="rgb(68,68,68)" stroke="none" font-family="helvetica" font-size="10pt" font-style="normal" font-weight="normal" text-decoration="normal" x="44.173004150390625" y="341.56141090393066" text-anchor="start" dominant-baseline="alphabetic" transform="matrix(1, 0, 0, 1, 0.5, 0.5)" fill-opacity="1">2030</text><text fill="none" stroke="rgb(0,0,0)" font-family="helvetica" font-size="10pt" font-style="normal" font-weight="normal" text-decoration="normal" x="44.173004150390625" y="341.56141090393066" text-anchor="start" dominant-baseline="alphabetic" transform="matrix(1, 0, 0, 1, 0.5, 0.5)" stroke-opacity="0" stroke-linejoin="bevel" stroke-miterlimit="10">2030</text><text fill="rgb(68,68,68)" stroke="none" font-family="helvetica" font-size="10pt" font-style="normal" font-weight="normal" text-decoration="normal" x="104.17300415039062" y="341.56141090393066" text-anchor="start" dominant-baseline="alphabetic" transform="matrix(1, 0, 0, 1, 0.5, 0.5)" fill-opacity="1">2040</text><text fill="none" stroke="rgb(0,0,0)" font-family="helvetica" font-size="10pt" font-style="normal" font-weight="normal" text-decoration="normal" x="104.17300415039062" y="341.56141090393066" text-anchor="start" dominant-baseline="alphabetic" transform="matrix(1, 0, 0, 1, 0.5, 0.5)" stroke-opacity="0" stroke-linejoin="bevel" stroke-miterlimit="10">2040</text><text fill="rgb(68,68,68)" stroke="none" font-family="helvetica" font-size="10pt" font-style="normal" font-weight="normal" text-decoration="normal" x="164.17300415039062" y="341.56141090393066" text-anchor="start" dominant-baseline="alphabetic" transform="matrix(1, 0, 0, 1, 0.5, 0.5)" fill-opacity="1">2050</text><text fill="none" stroke="rgb(0,0,0)" font-family="helvetica" font-size="10pt" font-style="normal" font-weight="normal" text-decoration="normal" x="164.17300415039062" y="341.56141090393066" text-anchor="start" dominant-baseline="alphabetic" transform="matrix(1, 0, 0, 1, 0.5, 0.5)" stroke-opacity="0" stroke-linejoin="bevel" stroke-miterlimit="10">2050</text><text fill="rgb(68,68,68)" stroke="none" font-family="helvetica" font-size="10pt" font-style="normal" font-weight="normal" text-decoration="normal" x="224.17300415039062" y="341.56141090393066" text-anchor="start" dominant-baseline="alphabetic" transform="matrix(1, 0, 0, 1, 0.5, 0.5)" fill-opacity="1">2060</text><text fill="none" stroke="rgb(0,0,0)" font-family="helvetica" font-size="10pt" font-style="normal" font-weight="normal" text-decoration="normal" x="224.17300415039062" y="341.56141090393066" text-anchor="start" dominant-baseline="alphabetic" transform="matrix(1, 0, 0, 1, 0.5, 0.5)" stroke-opacity="0" stroke-linejoin="bevel" stroke-miterlimit="10">2060</text><text fill="rgb(68,68,68)" stroke="none" font-family="helvetica" font-size="10pt" font-style="normal" font-weight="normal" text-decoration="normal" x="284.1730041503906" y="341.56141090393066" text-anchor="start" dominant-baseline="alphabetic" transform="matrix(1, 0, 0, 1, 0.5, 0.5)" fill-opacity="1">2070</text><text fill="none" stroke="rgb(0,0,0)" font-family="helvetica" font-size="10pt" font-style="normal" font-weight="normal" text-decoration="normal" x="284.1730041503906" y="341.56141090393066" text-anchor="start" dominant-baseline="alphabetic" transform="matrix(1, 0, 0, 1, 0.5, 0.5)" stroke-opacity="0" stroke-linejoin="bevel" stroke-miterlimit="10">2070</text><text fill="rgb(68,68,68)" stroke="none" font-family="helvetica" font-size="10pt" font-style="normal" font-weight="normal" text-decoration="normal" x="344.1730041503906" y="341.56141090393066" text-anchor="start" dominant-baseline="alphabetic" transform="matrix(1, 0, 0, 1, 0.5, 0.5)" fill-opacity="1">2080</text><text fill="none" stroke="rgb(0,0,0)" font-family="helvetica" font-size="10pt" font-style="normal" font-weight="normal" text-decoration="normal" x="344.1730041503906" y="341.56141090393066" text-anchor="start" dominant-baseline="alphabetic" transform="matrix(1, 0, 0, 1, 0.5, 0.5)" stroke-opacity="0" stroke-linejoin="bevel" stroke-miterlimit="10">2080</text><text fill="rgb(68,68,68)" stroke="none" font-family="helvetica" font-size="12pt" font-style="normal" font-weight="normal" text-decoration="normal" x="209" y="361.03797340393066" text-anchor="start" dominant-baseline="alphabetic" transform="matrix(1, 0, 0, 1, 0.5, 0.5)" fill-opacity="1"></text><text fill="none" stroke="rgb(0,0,0)" font-family="helvetica" font-size="12pt" font-style="normal" font-weight="normal" text-decoration="normal" x="209" y="361.03797340393066" text-anchor="start" dominant-baseline="alphabetic" transform="matrix(1, 0, 0, 1, 0.5, 0.5)" stroke-opacity="0" stroke-linejoin="bevel" stroke-miterlimit="10"></text><path fill="none" stroke="rgb(0,0,0)" paint-order="fill" d="M 59.5 321.5 L 59.5 21.5" stroke-opacity="1" stroke-linejoin="bevel" stroke-miterlimit="10"/><path fill="none" stroke="rgb(0,0,0)" paint-order="fill" d="M 53.5 321.5 L 61.5 321.5 M 53.5 221.5 L 61.5 221.5 M 53.5 121.5 L 61.5 121.5 M 53.5 21.5 L 61.5 21.5" stroke-opacity="1" stroke-linejoin="bevel" stroke-miterlimit="10"/><path fill="none" stroke="rgb(0,0,0)" paint-order="fill" d="" stroke-opacity="1" stroke-linejoin="bevel" stroke-miterlimit="10"/><text fill="rgb(68,68,68)" stroke="none" font-family="helvetica" font-size="10pt" font-style="normal" font-weight="normal" text-decoration="normal" x="40.58650207519531" y="325.78070545196533" text-anchor="start" dominant-baseline="alphabetic" transform="matrix(1, 0, 0, 1, 0.5, 0.5)" fill-opacity="1">0</text><text fill="none" stroke="rgb(0,0,0)" font-family="helvetica" font-size="10pt" font-style="normal" font-weight="normal" text-decoration="normal" x="40.58650207519531" y="325.78070545196533" text-anchor="start" dominant-baseline="alphabetic" transform="matrix(1, 0, 0, 1, 0.5, 0.5)" stroke-opacity="0" stroke-linejoin="bevel" stroke-miterlimit="10">0</text><text fill="rgb(68,68,68)" stroke="none" font-family="helvetica" font-size="10pt" font-style="normal" font-weight="normal" text-decoration="normal" x="29.469512939453125" y="225.78070545196533" text-anchor="start" dominant-baseline="alphabetic" transform="matrix(1, 0, 0, 1, 0.5, 0.5)" fill-opacity="1">0.5</text><text fill="none" stroke="rgb(0,0,0)" font-family="helvetica" font-size="10pt" font-style="normal" font-weight="normal" text-decoration="normal" x="29.469512939453125" y="225.78070545196533" text-anchor="start" dominant-baseline="alphabetic" transform="matrix(1, 0, 0, 1, 0.5, 0.5)" stroke-opacity="0" stroke-linejoin="bevel" stroke-miterlimit="10">0.5</text><text fill="rgb(68,68,68)" stroke="none" font-family="helvetica" font-size="10pt" font-style="normal" font-weight="normal" text-decoration="normal" x="40.58650207519531" y="125.78070545196533" text-anchor="start" dominant-baseline="alphabetic" transform="matrix(1, 0, 0, 1, 0.5, 0.5)" fill-opacity="1">1</text><text fill="none" stroke="rgb(0,0,0)" font-family="helvetica" font-size="10pt" font-style="normal" font-weight="normal" text-decoration="normal" x="40.58650207519531" y="125.78070545196533" text-anchor="start" dominant-baseline="alphabetic" transform="matrix(1, 0, 0, 1, 0.5, 0.5)" stroke-opacity="0" stroke-linejoin="bevel" stroke-miterlimit="10">1</text><text fill="rgb(68,68,68)" stroke="none" font-family="helvetica" font-size="10pt" font-style="normal" font-weight="normal" text-decoration="normal" x="29.469512939453125" y="25.780705451965332" text-anchor="start" dominant-baseline="alphabetic" transform="matrix(1, 0, 0, 1, 0.5, 0.5)" fill-opacity="1">1.5</text><text fill="none" stroke="rgb(0,0,0)" font-family="helvetica" font-size="10pt" font-style="normal" font-weight="normal" text-decoration="normal" x="29.469512939453125" y="25.780705451965332" text-anchor="start" dominant-baseline="alphabetic" transform="matrix(1, 0, 0, 1, 0.5, 0.5)" stroke-opacity="0" stroke-linejoin="bevel" stroke-miterlimit="10">1.5</text><text fill="rgb(68,68,68)" stroke="none" font-family="helvetica" font-size="12pt" font-style="normal" font-weight="normal" text-decoration="normal" x="-76.66329956054688" y="167" text-anchor="start" dominant-baseline="alphabetic" transform="matrix(6.123233995736766e-17, -1, 1, 6.123233995736766e-17, -149.03048706054688, 192.96951293945312)" fill-opacity="1">Variance of months suitable</text><text fill="none" stroke="rgb(0,0,0)" font-family="helvetica" font-size="12pt" font-style="normal" font-weight="normal" text-decoration="normal" x="-76.66329956054688" y="167" text-anchor="start" dominant-baseline="alphabetic" transform="matrix(6.123233995736766e-17, -1, 1, 6.123233995736766e-17, -149.03048706054688, 192.96951293945312)" stroke-opacity="0" stroke-linejoin="bevel" stroke-miterlimit="10">Variance of months suitable</text><text fill="rgb(68,68,68)" stroke="none" font-family="helvetica" font-size="16pt" font-style="normal" font-weight="normal" text-decoration="normal" x="0" y="19" text-anchor="start" dominant-baseline="alphabetic" transform="matrix(1, 0, 0, 1, 4.346923828125, 0)" fill-opacity="1">B.</text><text fill="none" stroke="rgb(0,0,0)" font-family="helvetica" font-size="16pt" font-style="normal" font-weight="normal" text-decoration="normal" x="0" y="19" text-anchor="start" dominant-baseline="alphabetic" transform="matrix(1, 0, 0, 1, 4.346923828125, 0)" stroke-opacity="0" stroke-miterlimit="10" stroke-dasharray="">B.</text></g></svg>